<svg version="1.2" xmlns="http://www.w3.org/2000/svg" viewBox="0 0 176 177" width="176" height="177">
	<title>camt_cmu_logo_th-ai</title>
	<style>
		.s0 { fill: #ffffff;stroke: #00a551;stroke-linecap: round;stroke-linejoin: round;stroke-width: 2 } 
		.s1 { fill: #ffffff } 
		.s2 { fill: #9d76b3 } 
		.s3 { fill: #00a551 } 
		.s4 { fill: #231f20 } 
	</style>
	<g id="_Artboards_">
	</g>
	<g id="Layer 1">
		<g id="&lt;Group&gt;">
			<g id="&lt;Group&gt;" style="display: none">
				<path id="&lt;Path&gt;" class="s0" d="m171.3 151.7c8.3-11.3 6.4-41.9 6.4-41.9l12 24.8 14.4-24.9c0 0 5.6 16.9-2.3 38.7-5.2 14.4-14.2 21.3-14.2 21.3l-18.9-8.6c0 0-5.6 1.8 2.6-9.4z"/>
				<path id="&lt;Path&gt;" class="s0" d="m179.4 167.1l8 2-0.9-11.7z"/>
				<path id="&lt;Path&gt;" class="s0" d="m3.4 151c-8.2-11.3-6.3-41.9-6.3-41.9l-12 24.8-14.4-24.8c0 0-5.6 16.8 2.3 38.7 5.2 14.3 14.1 21.3 14.1 21.3l19-8.7c0 0 5.6 1.8-2.7-9.4z"/>
				<path id="&lt;Path&gt;" class="s0" d="m-5.2 165.9l-6.6 2.7-0.5-11.4z"/>
				<path id="&lt;Path&gt;" class="s0" d="m-13 155.8c1.5 2.1 37.4 51.6 100.4 51.6h0.3c70-1.1 97.2-49.3 98.3-51.3l-23-9.1c-0.9 1.5-21.4 32-75.1 32.9-48.4-0.2-78.8-34.8-79.1-35.2z"/>
			</g>
			<path id="&lt;Path&gt;" class="s1" d="m174.7 87.8c0 47.9-38.7 86.6-86.6 86.6-47.8 0-86.6-38.7-86.6-86.6 0-47.8 38.8-86.6 86.6-86.6 47.9 0 86.6 38.8 86.6 86.6z"/>
			<path id="&lt;Path&gt;" class="s2" d="m146.7 88.3c0 32.3-26.2 58.6-58.6 58.6-32.3 0-58.6-26.3-58.6-58.6 0-32.4 26.3-58.6 58.6-58.6 32.4 0 58.6 26.2 58.6 58.6z"/>
			<path id="&lt;Compound Path&gt;" fill-rule="evenodd" class="s3" d="m171.9 88.4c0 46.2-37.6 83.8-83.8 83.8-46.2 0-83.8-37.6-83.8-83.8 0-46.2 37.6-83.8 83.8-83.8 46.2 0 83.8 37.6 83.8 83.8zm-0.7 0c0-45.8-37.3-83.1-83.1-83.1-45.8 0-83.1 37.3-83.1 83.1 0 45.8 37.3 83.1 83.1 83.1 45.8 0 83.1-37.3 83.1-83.1z"/>
			<path id="&lt;Compound Path&gt;" fill-rule="evenodd" class="s3" d="m176 88.4c0 23.5-9.2 45.5-25.8 62.1-16.6 16.7-38.6 25.8-62.1 25.8-23.5 0-45.6-9.1-62.2-25.8-16.6-16.6-25.7-38.6-25.7-62.1 0-23.5 9.1-45.6 25.7-62.2 16.6-16.6 38.7-25.7 62.2-25.7 23.5 0 45.5 9.1 62.1 25.7 16.6 16.6 25.8 38.7 25.8 62.2zm-2.1 0c0-22.9-9-44.5-25.2-60.7-16.2-16.2-37.7-25.1-60.6-25.1-22.9 0-44.5 8.9-60.7 25.1-16.2 16.2-25.1 37.8-25.1 60.7 0 22.9 8.9 44.5 25.1 60.7 16.2 16.2 37.8 25.1 60.7 25.1 22.9 0 44.4-8.9 60.6-25.1 16.2-16.2 25.2-37.8 25.2-60.7z"/>
			<path id="&lt;Compound Path&gt;" fill-rule="evenodd" class="s3" d="m28.9 88.4c0-32.6 26.5-59.1 59.1-59.1 32.6 0 59.2 26.5 59.2 59.1 0 32.6-26.6 59.2-59.2 59.2-32.6 0-59.1-26.6-59.1-59.2zm1.4 0c0 31.9 25.9 57.8 57.7 57.8 31.9 0 57.7-25.9 57.7-57.8 0-31.8-25.8-57.7-57.7-57.7-31.8 0-57.7 25.9-57.7 57.7z"/>
			<g id="&lt;Group&gt;">
				<path id="&lt;Compound Path&gt;" fill-rule="evenodd" class="s2" d="m17.4 61.1c0.6-1.6 2.1-4.1 3.8-3.4l5.8 2.3-2.8 7-3-1.2c-1.9-0.7-1.8-2-1.4-2.8 0.8-2.2 4.1-0.9 3.2 1.2q0 0.1-0.1 0.2l1.1 0.5 1.5-3.6-4.6-1.8c-1.2-0.5-2-0.1-2.8 2.2-0.4 1.6 0.9 1.9 0.9 2l-0.7 1.6c0 0-2-0.9-0.9-4.2zm3.1 2.2c-0.4 1.1 1.3 1.8 1.7 0.6 0.5-1.1-1.2-1.8-1.7-0.6z"/>
				<path id="&lt;Compound Path&gt;" fill-rule="evenodd" class="s2" d="m21.4 52.5c0-0.6 0.7-0.1 1.7-1.2 0.3-0.4-0.2-1.6-0.1-1.8 0.2-0.4 1.7-1.6 3.6-0.6l4.9 2.9-0.9 1.5-5-2.9c-0.9-0.5-0.9-0.6-1.6-0.4-0.3 0.1 0.2 1.1-0.1 1.8-0.4 0.6-1.5 0.8-1.5 1.1 0.1 0.5 0.4 1 0.9 1.3l4.2 2.4c0 0-1.1-2.5-1.1-2.6-1.1 1.2-3.3-0.2-2.4-1.8 0.8-1.2 2.2-0.8 2.7 0.1l1.9 4.7-1 1.7-4.9-2.8c-1.3-0.7-1.4-2.6-1.3-3.4zm3.3 0.1c-0.5 0.8 0.8 1.6 1.3 0.7 0.4-0.8-0.8-1.5-1.3-0.7z"/>
				<path id="&lt;Path&gt;" class="s2" d="m33.5 53.9c0.3-0.4 0.1-1-0.3-1.3-0.4-0.3-1-0.2-1.3 0.3-0.2 0.4-0.1 1 0.3 1.2 0.4 0.3 1 0.2 1.3-0.2z"/>
				<path id="&lt;Compound Path&gt;" fill-rule="evenodd" class="s2" d="m27.5 42.9c0.1-0.5 0.8 0.1 1.8-0.9 0.4-0.3 0.2-1.6 0.3-1.8 0.2-0.3 1.8-1.4 3.6 0l4.4 3.5-1.1 1.4-4.5-3.6c-0.9-0.6-0.8-0.7-1.5-0.6-0.4 0 0 1.1-0.4 1.7-0.5 0.5-1.6 0.6-1.6 0.9 0 0.6 0.2 1 0.6 1.4l3.8 3c0 0-0.7-2.6-0.7-2.7-1.2 1-3.1-0.7-2-2.1 0.9-1.2 2.2-0.5 2.6 0.4l1.2 4.9-1.3 1.6-4.4-3.5c-1.1-0.9-1-2.8-0.8-3.6zm3.3 0.7c-0.6 0.7 0.5 1.6 1.1 0.9 0.6-0.8-0.5-1.7-1.1-0.9z"/>
				<path id="&lt;Path&gt;" class="s2" d="m34.1 38.5l1.1-1.1c0 0-1.1-1 0.4-2.4 1.3-1.2 2.1-0.4 2.2-0.3l4.4 4.5 1.3-1.3-4.2-4.3c-1.1-1.1-2.8-0.5-3.9 0.5-3.1 2.6-1.3 4.4-1.3 4.4z"/>
				<path id="&lt;Compound Path&gt;" fill-rule="evenodd" class="s2" d="m40.9 28.9c1-0.7 2.1-0.8 2.9 0.2l2.8 4c0.2 0.2 0.2-2 1.1-3.8v-0.1l-2.4-3.3 1.5-1.1 2.2 3.1c0.1 0 0.1 0 0.1 0 0.6-0.2 2.1-0.5 3.1 1.2 1 1.8-1.5 4.1-2.2 3.1l-1.7-2.3v0.1c-0.9 1.6-0.8 4.3-0.6 4.6l-1.4 1-3-4.1c-0.1 0.1-0.2 0.1-0.3 0.2-1.9 1.4-3.9-1.4-2.1-2.8zm8.7-0.2l1.5 2c0.3 0.5 1.1-1-0.2-1.9-0.3-0.3-0.8-0.4-1.3-0.1zm-7.1 2.3c1-0.7-0.1-2.1-1.1-1.4-1 0.7 0.1 2.2 1.1 1.4z"/>
				<path id="&lt;Compound Path&gt;" fill-rule="evenodd" class="s2" d="m43.6 21.6c1.7-1 3.3 1.6 1.6 2.6-1.8 1.1-3.3-1.5-1.6-2.6zm1.3 2.2c1.1-0.7 0.1-2.3-1-1.7-1.1 0.7-0.1 2.3 1 1.7z"/>
				<path id="&lt;Compound Path&gt;" fill-rule="evenodd" class="s2" d="m59 18.3c2.4-0.9 3 2.3 3.1 2 0.5-1.8 1.1-3.8 2.8-4.1 1.6-0.3 2.1 0.9 2.1 0.9l2.4 6.5-1.7 0.6-2.4-6.6c-0.4-1-2 0.2-2.3 3-0.2 2.1 1 5 0.8 5l-1.7 0.7-1.8-4.8-0.1 0.1c-2.2 0.8-3.4-2.5-1.2-3.3zm0.9 2.5c1.1-0.5 0.5-2.2-0.6-1.7-1.2 0.4-0.5 2.1 0.6 1.7z"/>
				<path id="&lt;Compound Path&gt;" fill-rule="evenodd" class="s2" d="m70.8 14.5c1-0.2 2.2 0 2.5 1.5l0.5 2.2c0.2 0 0.5 0.1 0.7 0.1 1.6 0.4 2.6 1.7 2.6 1.6l-1.2-6.3 1.7-0.4 1.7 8.3-1.8 0.4c-0.1 0-1.1-1.7-2.3-2.3-0.3-0.2-0.8-0.4-1.3-0.5l0.5 2.2c0.1 0.7-0.8 1.5-1.7 1.6-1.9 0.1-2.2-1.6-2.2-2.6-0.1-1 0.6-1.6 1.5-1.9l-0.2-0.6q-0.1 0.1-0.3 0.1c-2.3 0.4-3-3-0.7-3.4zm1.3 4.7c-0.2 0.1-0.4 0.3-0.6 0.4-0.4 0.5-0.2 2.2 0.7 2.3 0.6 0.1 0.3-0.8 0.2-1.2zm-0.8-2.1c1.2-0.3 0.9-2.1-0.3-1.8-1.2 0.2-0.9 2 0.3 1.8z"/>
				<path id="&lt;Compound Path&gt;" fill-rule="evenodd" class="s2" d="m80.7 15.9c-0.6-1.9 0.7-3.2 2.6-3.3 2.3 0 2.5 3.4 0.2 3.5-1.1 0.1-1.8-0.7-1.8-1.6l-0.1 0.2c-0.1 0.4 0 0.7 0.1 0.9 0.5 1 1.2 1.5 3.5 1.3 0 0 0.1 0.5 0 0.5-0.3 0.1-2.2 0.3-2.1 1.2l0.1 1.7 3.5-0.1-0.4-7.6 1.8-0.1 0.4 8.5-7.1 0.3-0.1-2.5c0-1.1 1-1.4 0.8-1.5-0.4-0.1-1.2-0.8-1.4-1.4zm2.8-0.6c1.2 0 1.1-1.9-0.1-1.8-1.2 0-1.1 1.8 0.1 1.8z"/>
				<path id="&lt;Compound Path&gt;" fill-rule="evenodd" class="s2" d="m92.6 12.5c1.2 0.1 2.1 0.9 2 2.1l-0.5 4.9c0 0.2 1.5-1.4 3.3-2.1l0.2-0.1 0.4-4.1 1.8 0.2-0.4 3.8c0 0 0 0 0 0 0.6 0.3 1.9 1 1.5 2.9-0.4 2.1-3.8 2.1-3.7 0.9l0.3-2.8-0.1 0.1c-1.7 0.6-3.5 2.6-3.5 3l-1.7-0.2 0.4-5c-0.1 0-0.2-0.1-0.3-0.1-2.3-0.2-2-3.7 0.3-3.5zm6.4 8.2c0 0.5 1.5-0.1 1.2-1.6-0.1-0.4-0.4-0.8-0.9-0.9zm-6.7-5.5c1.2 0.1 1.4-1.7 0.2-1.8-1.2-0.2-1.4 1.6-0.2 1.8z"/>
				<path id="&lt;Path&gt;" class="s2" d="m99.4 23.9c0.1-0.5-0.2-1-0.7-1.1-0.5-0.1-1 0.2-1.1 0.7 0 0.5 0.3 1 0.8 1.1 0.5 0.1 0.9-0.2 1-0.7z"/>
				<path id="&lt;Compound Path&gt;" fill-rule="evenodd" class="s2" d="m104 22.9l-2-0.5 1.5-5.5c0.4-1.3 2.2-2 3-2.1 0.5-0.1 0.3 0.7 1.6 1.3 0.4 0.3 1.5-0.5 1.7-0.4 0.4 0.1 2 1.1 1.4 3.3l-1.5 5.5-1.7-0.5 1.5-5.6c0.3-1 0.4-1 0.1-1.7-0.2-0.3-1 0.5-1.8 0.3-0.7-0.1-1.2-1.2-1.4-1.1-0.5 0.3-0.9 0.6-1.1 1.2l-1.2 4.6c0 0 2.1-1.6 2.1-1.6-1.3-0.8-0.6-3.2 1.2-2.8 1.4 0.4 1.3 1.9 0.6 2.6zm2.9-3.5c0.9 0.3 1.3-1.1 0.3-1.3-0.9-0.3-1.3 1.1-0.3 1.3z"/>
				<path id="&lt;Compound Path&gt;" fill-rule="evenodd" class="s2" d="m112.4 15.3l-6.7-2.3 0.4-1 2.2-0.1c0.2 0 0.4-0.1 0.6 0 0.9 0.3 1.8 1.4 2.6 1.7l1.3 0.7zm-1.5-1.3l-1.6-1.2c-0.1-0.1-0.3-0.2-0.4-0.2-0.1-0.1-0.3 0-0.4 0l-1.4 0.1z"/>
				<path id="&lt;Compound Path&gt;" fill-rule="evenodd" class="s2" d="m119.6 28.8l2.6-4.5q-0.2 0-0.3-0.1c-2-1.2-0.3-4.2 1.7-3 1.1 0.5 1.5 1.6 0.9 2.6l-2.9 5 2.9 1.7 5.1-8.9 1.5 0.9-5.5 9.7zm2.7-5.4c1 0.6 1.9-0.9 0.9-1.5-1-0.6-1.9 1-0.9 1.5z"/>
				<path id="&lt;Compound Path&gt;" fill-rule="evenodd" class="s2" d="m130.8 28.1l0.6-0.8c0.1-0.1 3.4 1 4.3 1.9 1.2 1.1 2.2 3 1.1 4.3l-2.6 3.1c0.4-0.1 1.9-0.4 3.5-0.1l0.2 0.1 2.7-3.1 1.4 1.1-2.5 2.9c0.7 0.8 1 2-0.4 3.3-1.6 1.4-4.6-0.2-3.3-1.7l1.4-1.6h-0.2c-1.7-0.2-3.7 0.1-4 0.6l-1.4-1.3 3.9-4.5c0.7-0.8 0.4-2-0.3-2.6-0.9-0.7-2.7-1.1-2.7-1.1-0.3-0.1 1.5 2.2 1 2-0.5-0.2-1.5-0.2-2.1 0.4l-0.6 0.8c0.1 0 0.2 0.1 0.3 0.2 1.7 1.5-0.5 4.2-2.3 2.7-0.8-0.7-1.3-1.9-0.2-3.2 0 0 1.6-1.8 1.6-1.9 0.8-0.5 1.5-0.2 1.3-0.5zm-0.2 4.6c-0.9-0.8-2.1 0.6-1.2 1.4 0.9 0.8 2.1-0.6 1.2-1.4zm6.7 7.5c-0.3 0.4 1.2 0.7 1.8-0.6 0.1-0.4 0.1-0.9-0.2-1.2z"/>
				<path id="&lt;Path&gt;" class="s2" d="m135.6 43.3c0.4-0.3 0.4-0.9 0.1-1.3-0.4-0.4-0.9-0.4-1.3 0-0.4 0.3-0.4 0.9-0.1 1.3 0.4 0.3 1 0.3 1.3 0z"/>
				<path id="&lt;Compound Path&gt;" fill-rule="evenodd" class="s2" d="m139.5 44.6l3.1-2.5c0.1-0.1 1.5 0.5 2.3 0.5 1.1-0.1 1.9-1.5 1.5-1.6-0.2-0.1-0.5-0.2-0.6-0.4-0.3-0.4 0-0.6-0.2-0.8q-0.1-0.1-0.2 0c-0.1 0-0.1 0.1-0.1 0.1 0.7 1.2-1.2 2.6-2.2 1.3-0.5-0.7-0.2-1.5 0.4-2 0.6-0.5 1.6-0.8 2.7 0.1 0 0-0.2 0.6 0.1 1.1 0.3 0.3 0.8 0.2 0.8 0.2 0.7 0.3 0.5 2.5-1 3-0.8 0.2-2.1-0.4-2.1-0.3l-0.6 0.4c-1.7 1.4 5.1-1 6.4 0.1 0.4 0.5 0.7 1.4 0 1.9l-5.8 4.6-1.1-1.4 5.2-4.2c0.6-0.4-4.7 0.4-6.6 1-0.4 0-0.9 0.3-0.9 0.3zm5.1-4.5c-0.5-0.7-1.4 0.1-0.9 0.7 0.5 0.7 1.4-0.1 0.9-0.7z"/>
				<path id="&lt;Compound Path&gt;" fill-rule="evenodd" class="s2" d="m152 45.2l-4-5.9 0.9-0.6 1.8 1.2c0.2 0.2 0.4 0.2 0.5 0.5 0.6 0.7 0.7 2.1 1.1 2.9l0.5 1.3zm-0.3-1.9l-0.6-2c0-0.1-0.1-0.3-0.2-0.4-0.1-0.1-0.2-0.2-0.3-0.2l-1.2-0.8z"/>
				<path id="&lt;Compound Path&gt;" fill-rule="evenodd" class="s2" d="m153.7 49.9c0.4 0.3-0.4 0.7 0.1 2.1 0.2 0.5 1.4 0.7 1.6 0.9 0.2 0.4 0.5 2.3-1.4 3.3l-5 2.8-0.9-1.5 5.1-2.9c0.9-0.5 1-0.4 1.2-1.1 0.1-0.3-1-0.4-1.4-1.1-0.4-0.6 0-1.7-0.3-1.8-0.5-0.2-1-0.2-1.5 0.1l-4.2 2.4c0 0 2.7 0.3 2.7 0.3-0.4-1.5 1.9-2.6 2.8-1 0.7 1.3-0.4 2.2-1.4 2.2l-5-0.8-1-1.7 4.9-2.8c1.3-0.7 3 0.2 3.7 0.6zm-3.2 3.5c0.5 0.9 1.8 0.2 1.3-0.7-0.5-0.8-1.7-0.1-1.3 0.7z"/>
				<path id="&lt;Path&gt;" class="s2" d="m155.8 59.1c0 0.1 1.3-0.5 2 1.4 0.7 1.7-0.4 2.1-0.4 2.1l-5.9 2.4 0.6 1.6 5.7-2.2c1.4-0.6 1.5-2.4 1-3.8-1.3-3.9-3.6-2.9-3.6-2.9z"/>
			</g>
			<g id="&lt;Group&gt;">
				<path id="&lt;Compound Path&gt;" fill-rule="evenodd" class="s3" d="m167.2 93.7c-1-0.1-1.7 0.7-2.8 0.9-1 0.2-1.2-0.6-1.4-1-0.2-0.5-0.4-1.1-0.9-1q-0.8 0.2 0 1.6c0.4 0.8-0.5 1.7-1.4 2.2-0.9 0.5-1.5 1.3-1.5 1.3-0.4-1-2-1.3-2.5-2.2-0.4-0.6 0.1-1.3 0.5-2.1 0.3-0.8-0.5-1.1-0.9-0.8-0.4 0.3-0.5 0.9-1.3 1.2-0.7 0.4-1.8 0-2.3-0.4-0.4-0.5-1.4-0.6-1.4-0.6 0.2-0.2 0.2-1.1 0.3-2.3 0-1.2 0.7-1.5 1.4-1.6 0.7 0 1.5 0.1 1.5-0.7 0-0.9-1.3-0.3-2.3-0.8-1-0.5-0.4-2.1-0.3-2.6 0.1-0.5 0.2-1.4 0.2-1.4 0.8 0 1.2-0.1 2.3-0.5 1-0.4 1.7 0.3 1.8 0.7 0.2 0.4 0.6 1 1.2 0.6 0.5-0.3-0.1-1-0.5-1.8-0.3-0.8 1.4-1.8 1.9-2 0.5-0.2 1.1-1 1.1-1 0.3 0.9 1.6 1.2 2.3 1.8 0.6 0.6 0.1 1.8-0.1 2.1-0.2 0.2-0.9 0.9-0.3 1.3 0.6 0.5 1.1-0.6 2-1.3 0.8-0.8 1.5 0.1 2.2 0.6 0.7 0.4 1.5 0.3 1.5 0.3-0.5 0.6-0.2 1.9-0.2 2.8-0.1 0.9-0.9 1.4-1.3 1.5-0.4 0.1-1.7-0.4-1.8 0.3-0.1 0.7 0.8 0.5 1.9 0.7 1.2 0.2 1 2 1 2.7-0.1 0.7 0.1 1.5 0.1 1.5zm-0.8-1.7c0-0.4 0.2-1.7-0.7-1.9-0.9-0.1-2.3-0.2-2.2-1.3 0.2-1 1.2-1 1.9-1 0.7 0 1-0.7 1-1.3-0.1-0.7 0-1.3 0-1.6 0 0-0.6-0.2-1.1-0.6-0.6-0.3-0.9-0.7-1.4-0.2-0.6 0.4-1.5 1.6-2.3 1.1-0.8-0.5-0.4-1.6-0.1-2 0.2-0.4 0.8-1-0.1-1.6-0.8-0.5-1.6-0.8-1.6-1 0 0-0.5 0.3-1.2 0.6-0.5 0.3-1 0.7-0.9 1.2 0.1 0.5 0.9 1.6 0.1 2.2-0.7 0.6-1.5 0.1-2-0.5-0.5-0.7-0.7-0.9-1.8-0.4-1 0.4-1.4 0.4-1.4 0.4 0 0 0.1 0.5 0 1.2-0.2 0.6-0.4 1.5 0.2 1.8 0.6 0.2 2.5-0.5 2.5 1.1 0 1.3-1.4 1.3-1.8 1.3-0.5 0.1-1.1 0.2-1.1 1.2-0.1 0.9-0.1 1.2-0.2 1.6 0 0 0.4 0.1 0.8 0.4 0.4 0.4 1.4 0.8 1.9 0.5 0.6-0.4 1-1.4 1.7-1.5 0.7-0.2 1.6 0.8 1.2 1.6-0.3 0.8-0.9 1.3-0.5 1.9 0.4 0.7 1.7 1 2 1.3 0 0 0.5-0.4 0.9-0.6 0.5-0.2 1.2-0.6 1.1-1.2-0.1-0.7-0.4-1.6-0.1-2.1 0.3-0.6 1.3-0.8 1.8-0.1 0.5 0.6 0.6 1.5 1.4 1.4 0.8-0.1 1.6-0.7 2-0.7 0 0-0.1-0.7 0-1.2z"/>
				<path id="&lt;Compound Path&gt;" fill-rule="evenodd" class="s3" d="m161.1 88.6c0 0.7-0.7 1.4-1.4 1.4-0.8 0-1.5-0.7-1.5-1.4 0-0.8 0.7-1.5 1.5-1.5 0.7 0 1.4 0.7 1.4 1.5zm-0.4 0c0-0.6-0.5-1.1-1-1.1-0.6 0-1.1 0.5-1.1 1.1 0 0.5 0.5 1 1.1 1 0.5 0 1-0.5 1-1z"/>
				<path id="&lt;Compound Path&gt;" fill-rule="evenodd" class="s3" d="m164.4 92.1c-0.6-0.9-1.8-1.4-2.3-1.6q-0.1 0.2-0.3 0.3c0.4 0.5 0.5 0.9 0.5 0.9 0 0-0.6-0.6-0.9-0.8q-0.2 0-0.4 0 0 0 0 0.1c0 0.3 0.2 0.8 0.2 0.8 0 0-0.3-0.5-0.6-0.6q-0.1 0-0.1 0-0.1 0.1-0.2 0.2-0.1 0.1-0.1 0.1c0.4 0.5 0.3 1.1 0.3 1.1-0.1-0.5-0.4-0.9-0.6-1q-0.2 0-0.3 0c-0.2 0.8-0.3 3.1-0.3 3.1-0.2-1.3-0.1-2.7 0-3.1q-0.2 0-0.3-0.1 0 0 0 0c-0.3 0.1-0.7 1-0.7 1 0-0.7 0.2-1.1 0.3-1.3q-0.1-0.2-0.2-0.3c0 0-0.2 0-0.4 0.1-0.2 0.1-0.5 0.3-0.5 0.3 0 0 0.2-0.3 0.2-0.5q-0.1 0-0.3-0.1c-0.3 0.2-0.7 0.6-0.7 0.6 0.1-0.4 0.3-0.6 0.4-0.7q-0.2-0.2-0.4-0.4 0-0.1 0-0.1c-1.2 0.3-2.6 1.2-2.6 1.2 1-0.9 2.1-1.4 2.5-1.5q-0.1-0.2-0.1-0.3c0 0-0.7 0.1-1 0.3 0 0 0.3-0.4 1.1-0.7q0.1-0.3 0.3-0.5c-0.3 0-0.9 0-1.1-0.1 0 0-0.2-0.1 0.2-0.1 0.3 0.1 0.7 0 0.8-0.1q-0.1-0.2-0.2-0.5c-0.3-0.1-0.9-0.3-1.1-0.7-0.3-0.4 0.1 0.1 1.1 0.4q0-0.3 0.2-0.7c-1.9-0.6-2.2-1.7-2.2-1.7 0.7 0.9 2 1.4 2.4 1.5q0.2-0.1 0.3-0.2c-0.4-0.5-0.5-1-0.5-1 0 0 0.6 0.7 0.9 0.8 0.3 0.2 0.4 0.1 0.4-0.1-0.1-0.3-0.3-0.8-0.3-0.8 0 0 0.4 0.5 0.7 0.6q0 0 0.1 0 0-0.1 0-0.2 0.1-0.1 0.2-0.1c-0.3-0.5-0.3-1.1-0.3-1.1 0.1 0.4 0.4 0.7 0.6 0.9q0.2-0.1 0.4-0.1c0.1-0.8 0.2-3 0.2-3 0.2 1.2 0.1 2.5 0.1 3q0.2 0 0.4 0.1c0.3-0.2 0.6-0.8 0.6-0.8q-0.1 0.7-0.3 1 0.1 0 0.1 0.1 0.2 0.2 0.3 0.4 0 0 0.1-0.1c0.3-0.1 0.5-0.3 0.5-0.3 0 0-0.3 0.7-0.1 0.6 0.3 0 0.9-0.7 0.9-0.7-0.1 0.5-0.2 0.7-0.3 0.8q0.2 0.2 0.4 0.4c1.2-0.3 2.5-1.2 2.5-1.2-0.9 0.8-1.9 1.4-2.3 1.6q0.1 0.2 0.1 0.4 0 0 0 0c0.2 0 0.6-0.1 0.9-0.2 0 0-0.3 0.3-1 0.6-0.1 0.2-0.2 0.4-0.3 0.5 0.3 0 0.7 0.1 0.9 0.1 0 0 0.2 0.1-0.2 0.1-0.3 0-0.6 0-0.8 0.1q0.2 0.2 0.2 0.5c0.3 0.2 0.9 0.4 1.2 0.8 0.3 0.4-0.1-0.2-1.1-0.5q0 0.3-0.2 0.7c1.8 0.7 2.1 1.8 2.1 1.8zm-2.9-3.5l0.3-0.1c0-0.1 0.4-0.3 0.5-0.7q0.1-0.3-0.1-0.7-0.2-0.3-0.5-0.4c-0.4-0.1-0.8 0.2-0.8 0.2l-0.4 0.2 0.1-0.4c0 0 0-0.5-0.2-0.8q-0.3-0.2-0.8-0.2-0.5 0-0.7 0.2c-0.2 0.4-0.2 0.8-0.2 0.8l0.1 0.4-0.3-0.2c-0.1 0-0.9-0.6-1.4 0.1-0.5 0.7 0.2 1.3 0.2 1.4l0.2 0.1-0.2 0.1c0 0.1-0.7 0.6-0.3 1.4 0.5 0.8 1.3 0.3 1.4 0.3l0.2-0.1v0.2c0 0.1 0.2 0.9 1 0.9 0.7 0 0.8-0.7 0.8-0.8l0.1-0.2 0.2 0.1c0 0 0.9 0.4 1.3-0.2 0.4-0.8-0.2-1.4-0.3-1.5z"/>
				<path id="&lt;Compound Path&gt;" fill-rule="evenodd" class="s3" d="m162.2 84.2c0 0 0.9-1.4 1.1-1.9 0.1-0.5 0-0.9 0.3-1.3 0.4-0.3 0.7-0.2 0.8-0.1 0.1 0.1 0.3 0.5 0 0.9-0.2 0.3-0.7 0.4-0.9 0.7-0.2 0.2-1 1.6-1.2 1.7 0 0-0.2 0.2-0.1 0zm1.7-2.3c0.3 0 0.8-0.6 0.5-0.9 0 0-0.3-0.1-0.5 0.2-0.2 0.3-0.2 0.7 0 0.7z"/>
				<path id="&lt;Compound Path&gt;" fill-rule="evenodd" class="s3" d="m156 80.7c0.2 0.5 0.1 0.9 0.2 1.2 0.1 0.4 0.9 1.7 0.9 1.9 0 0 0.1 0.3-0.1 0.1 0 0-0.7-1.5-1.1-1.9-0.4-0.3-0.8-0.4-0.9-0.9-0.2-0.4 0.1-0.7 0.2-0.8 0.1 0 0.6 0 0.8 0.4zm-0.7-0.2c0 0-0.2 0.2-0.1 0.5 0.2 0.3 0.6 0.5 0.7 0.3 0.1-0.3-0.2-1-0.6-0.8z"/>
				<path id="&lt;Compound Path&gt;" fill-rule="evenodd" class="s3" d="m150.7 87.6c0.5 0.1 0.8 0.4 1.2 0.4 0.3 0.1 1.8 0.1 2.1 0.1 0 0 0.2 0.1 0 0.2 0 0-1.6-0.1-2.2 0.1-0.5 0.1-0.8 0.4-1.2 0.3-0.5-0.1-0.6-0.5-0.6-0.6 0-0.1 0.3-0.5 0.7-0.5zm-0.5 0.5c0 0 0 0.2 0.4 0.3 0.3 0 0.7-0.3 0.6-0.4-0.2-0.3-0.9-0.3-1 0.1z"/>
				<path id="&lt;Compound Path&gt;" fill-rule="evenodd" class="s3" d="m168.7 89.2c0 0.2-0.3 0.5-0.7 0.5-0.5-0.1-0.8-0.4-1.1-0.5-0.4-0.1-1.9-0.2-2.1-0.2 0 0-0.3-0.1-0.1-0.2 0 0 1.7 0.2 2.2 0.1 0.6-0.1 0.9-0.4 1.3-0.3 0.5 0.1 0.6 0.5 0.5 0.6zm-0.1 0.1c0 0-0.1-0.3-0.4-0.4-0.3 0-0.7 0.2-0.6 0.4 0.1 0.3 0.9 0.4 1 0z"/>
				<path id="&lt;Compound Path&gt;" fill-rule="evenodd" class="s3" d="m164 95.8c0.3 0.4 0 0.8-0.1 0.9-0.1 0.1-0.5 0.1-0.8-0.2-0.2-0.4-0.1-0.8-0.2-1.3-0.1-0.6-0.8-2.1-0.8-2.1 0-0.2 0.1 0 0.1 0 0.2 0.2 0.8 1.6 1 1.9 0.2 0.3 0.6 0.5 0.8 0.8zm-0.4-0.2c-0.3 0-0.3 0.4-0.2 0.7 0.2 0.3 0.5 0.3 0.5 0.3 0.3-0.3-0.1-1-0.3-1z"/>
				<path id="&lt;Compound Path&gt;" fill-rule="evenodd" class="s3" d="m154.4 96.3c-0.1-0.1-0.3-0.5 0-0.9 0.3-0.3 0.8-0.4 1-0.7 0.3-0.2 1.1-1.5 1.2-1.7 0 0 0.2-0.1 0.2 0.1 0 0-1 1.3-1.2 1.8-0.1 0.6 0 1-0.4 1.3-0.3 0.3-0.7 0.2-0.8 0.1zm0.5-0.3c0.2-0.3 0.2-0.7 0-0.7-0.2 0-0.7 0.6-0.4 0.9 0 0 0.2 0.1 0.4-0.2z"/>
			</g>
			<g id="&lt;Group&gt;">
				<path id="&lt;Compound Path&gt;" fill-rule="evenodd" class="s3" d="m14.1 95.6c-0.4-0.6 0.1-1.3 0.5-2.1 0.4-0.8-0.4-1.1-0.9-0.8-0.4 0.2-0.5 0.9-1.2 1.2-0.8 0.4-1.9 0-2.3-0.5-0.5-0.4-1.5-0.5-1.5-0.5 0.3-0.2 0.3-1.1 0.3-2.3 0.1-1.2 0.7-1.5 1.4-1.6 0.8 0 1.6 0.1 1.6-0.7 0-0.9-1.4-0.3-2.4-0.8-1-0.5-0.4-2.1-0.2-2.6 0.1-0.5 0.1-1.4 0.1-1.4 0.8 0 1.3-0.2 2.3-0.5 1-0.4 1.7 0.3 1.9 0.7 0.1 0.4 0.6 1 1.1 0.6 0.6-0.4 0-1-0.4-1.8-0.4-0.8 1.3-1.8 1.8-2 0.5-0.2 1.1-1 1.1-1 0.3 0.8 1.7 1.2 2.3 1.8 0.7 0.6 0.1 1.8-0.1 2-0.2 0.3-0.9 1-0.3 1.4 0.6 0.4 1.1-0.6 2-1.4 0.9-0.7 1.5 0.2 2.2 0.6 0.7 0.5 1.5 0.4 1.5 0.4-0.5 0.6-0.2 1.9-0.2 2.8-0.1 0.9-0.8 1.4-1.3 1.5-0.4 0.1-1.7-0.5-1.8 0.3 0 0.7 0.8 0.4 1.9 0.7 1.2 0.2 1.1 2 1 2.7 0 0.7 0.1 1.5 0.1 1.5-1-0.1-1.7 0.7-2.8 0.9-1 0.2-1.2-0.6-1.4-1-0.1-0.5-0.4-1.1-0.9-1q-0.7 0.2 0 1.6c0.4 0.8-0.5 1.7-1.4 2.2-0.8 0.5-1.4 1.3-1.4 1.3-0.5-1-2.1-1.3-2.6-2.2zm2.6 1c0 0 0.5-0.4 0.9-0.6 0.5-0.2 1.3-0.6 1.1-1.3-0.1-0.6-0.4-1.5-0.1-2 0.4-0.7 1.4-0.8 1.9-0.1 0.4 0.6 0.5 1.5 1.3 1.4 0.8-0.2 1.6-0.7 2-0.8 0 0-0.1-0.6 0-1.1 0-0.4 0.2-1.8-0.7-1.9-0.9-0.1-2.3-0.2-2.1-1.3 0.1-1.1 1.1-1 1.8-1 0.7 0 1-0.7 1-1.3-0.1-0.7 0-1.3 0-1.6 0 0-0.6-0.2-1.1-0.6-0.5-0.3-0.8-0.7-1.4-0.2-0.6 0.4-1.5 1.6-2.3 1.1-0.8-0.5-0.4-1.6-0.1-2 0.2-0.4 0.8-1 0-1.6-0.9-0.5-1.6-0.8-1.7-1 0 0-0.5 0.3-1.1 0.6-0.5 0.2-1.1 0.7-1 1.2 0.1 0.5 0.9 1.6 0.2 2.2-0.8 0.6-1.6 0.1-2.1-0.5-0.5-0.7-0.7-0.9-1.7-0.4-1.1 0.4-1.4 0.4-1.4 0.4 0 0 0 0.5-0.1 1.1-0.2 0.7-0.4 1.6 0.2 1.8 0.7 0.2 2.5-0.4 2.5 1.2 0 1.3-1.3 1.3-1.8 1.3-0.5 0-1.1 0.2-1.1 1.2-0.1 0.9-0.1 1.2-0.2 1.6 0 0 0.5 0.1 0.9 0.4 0.3 0.4 1.3 0.8 1.9 0.4 0.5-0.3 0.9-1.3 1.6-1.4 0.8-0.2 1.6 0.7 1.3 1.6-0.4 0.8-0.9 1.3-0.6 1.9 0.4 0.7 1.8 0.9 2 1.3z"/>
				<path id="&lt;Compound Path&gt;" fill-rule="evenodd" class="s3" d="m17.1 90.1c-0.8 0-1.4-0.7-1.4-1.5 0-0.7 0.6-1.4 1.4-1.4 0.8 0 1.4 0.7 1.4 1.4 0 0.8-0.6 1.5-1.4 1.5zm0-0.4c0.6 0 1-0.5 1-1.1 0-0.5-0.4-1-1-1-0.6 0-1.1 0.5-1.1 1 0 0.6 0.5 1.1 1.1 1.1z"/>
				<path id="&lt;Compound Path&gt;" fill-rule="evenodd" class="s3" d="m16.7 91.7q-0.1-0.1-0.2-0.1 0 0-0.1 0c-0.3 0.1-0.7 0.9-0.7 0.9 0.1-0.6 0.3-1.1 0.3-1.2q-0.1-0.2-0.1-0.3-0.2 0-0.4 0.1c-0.3 0.1-0.6 0.3-0.6 0.3 0 0 0.2-0.3 0.3-0.5q-0.2 0-0.3-0.1c-0.3 0.2-0.7 0.6-0.7 0.6 0.1-0.4 0.2-0.6 0.3-0.8q-0.2-0.1-0.3-0.3 0-0.1-0.1-0.1c-1.2 0.3-2.6 1.2-2.6 1.2 1-0.9 2.1-1.4 2.5-1.5q0-0.2 0-0.3c-0.1 0-0.8 0.1-1.1 0.3 0 0 0.3-0.4 1.1-0.7q0.1-0.3 0.3-0.5c-0.3 0-0.8 0-1.1-0.1 0 0-0.2-0.1 0.2-0.1 0.3 0 0.7 0 0.9-0.1q-0.2-0.2-0.3-0.5c-0.3-0.1-0.8-0.4-1.1-0.7-0.2-0.5 0.2 0.1 1.1 0.4q0-0.3 0.2-0.7c-1.8-0.6-2.2-1.7-2.2-1.7 0.7 0.8 2 1.3 2.4 1.5q0.2-0.2 0.3-0.2c-0.4-0.5-0.5-1-0.5-1 0 0 0.6 0.7 0.9 0.8 0.3 0.2 0.4 0.1 0.4-0.2 0-0.2-0.3-0.7-0.3-0.7 0 0 0.4 0.5 0.7 0.5q0.1 0 0.1 0 0 0 0.1-0.1 0-0.1 0.1-0.1c-0.3-0.5-0.3-1.1-0.3-1.1 0.1 0.4 0.4 0.7 0.6 0.9q0.2-0.1 0.4-0.1c0.2-0.8 0.2-3 0.2-3 0.2 1.2 0.2 2.5 0.1 3q0.2 0 0.4 0.1c0.3-0.3 0.6-0.9 0.6-0.9 0 0.5-0.1 0.9-0.2 1.1q0 0 0 0.1 0.2 0.2 0.3 0.4 0.1-0.1 0.2-0.1c0.2-0.1 0.5-0.3 0.5-0.3 0 0-0.4 0.7-0.1 0.6 0.3-0.1 0.9-0.7 0.9-0.7-0.1 0.5-0.3 0.7-0.4 0.8q0.3 0.1 0.4 0.4c1.2-0.3 2.6-1.2 2.6-1.2-1 0.8-2 1.3-2.4 1.5q0.1 0.3 0.1 0.5 0 0 0 0c0.2 0 0.7-0.1 1-0.2 0 0-0.4 0.3-1.1 0.6 0 0.2-0.2 0.4-0.3 0.5 0.3 0 0.7 0 0.9 0.1 0 0 0.2 0.1-0.2 0.1-0.2 0-0.6 0-0.8 0.1q0.2 0.2 0.3 0.5c0.3 0.1 0.9 0.4 1.1 0.8 0.3 0.4-0.1-0.2-1.1-0.5q0 0.3-0.2 0.7c1.9 0.7 2.2 1.8 2.2 1.8-0.7-0.9-1.9-1.4-2.3-1.6q-0.2 0.2-0.4 0.3c0.4 0.5 0.5 0.9 0.5 0.9 0 0-0.6-0.7-0.8-0.8q-0.2 0-0.4 0-0.1 0-0.1 0.1c0.1 0.3 0.3 0.8 0.3 0.8 0 0-0.4-0.5-0.7-0.6q0 0-0.1 0-0.1 0.1-0.2 0.2 0 0 0 0c0.3 0.5 0.3 1.2 0.3 1.2-0.2-0.5-0.5-0.9-0.7-1q-0.1 0-0.3 0 0 0 0 0c-0.2 0.7-0.3 3.1-0.3 3.1-0.2-1.3-0.1-2.7 0-3.1zm0.3-0.3c0.7 0 0.8-0.7 0.9-0.8v-0.2l0.2 0.1c0 0 0.9 0.4 1.3-0.3 0.4-0.7-0.2-1.4-0.2-1.4l-0.2-0.2 0.2-0.1c0 0 0.4-0.2 0.5-0.6q0.1-0.3-0.1-0.7-0.2-0.3-0.4-0.4c-0.4-0.1-0.9 0.2-0.9 0.2l-0.3 0.2v-0.4c0 0 0.1-0.5-0.2-0.8q-0.3-0.3-0.8-0.2-0.5 0-0.7 0.2c-0.2 0.3-0.1 0.8-0.1 0.8v0.4l-0.3-0.2c0 0-0.9-0.6-1.4 0.1-0.5 0.7 0.2 1.3 0.3 1.3l0.1 0.2-0.2 0.1c0 0-0.7 0.6-0.2 1.4 0.4 0.7 1.3 0.3 1.3 0.3l0.2-0.1 0.1 0.2c0 0 0.1 0.9 0.9 0.9z"/>
				<path id="&lt;Compound Path&gt;" fill-rule="evenodd" class="s3" d="m21.9 81c0.1 0.1 0.2 0.5 0 0.8-0.3 0.4-0.7 0.5-1 0.8-0.2 0.2-1 1.6-1.1 1.7 0 0-0.2 0.2-0.2 0 0 0 0.9-1.4 1.1-1.9 0.1-0.6 0-0.9 0.4-1.3 0.3-0.3 0.6-0.2 0.8-0.1zm-0.6 0.3c-0.2 0.3-0.1 0.7 0.1 0.7 0.3 0 0.7-0.6 0.4-0.9 0 0-0.3-0.1-0.5 0.2z"/>
				<path id="&lt;Compound Path&gt;" fill-rule="evenodd" class="s3" d="m12.4 81.2c-0.1-0.4 0.1-0.7 0.2-0.8 0.2 0 0.6 0 0.8 0.4 0.2 0.4 0.1 0.9 0.2 1.2 0.1 0.4 0.9 1.7 1 1.9 0 0 0 0.2-0.1 0.1 0 0-0.8-1.5-1.2-1.9-0.4-0.4-0.8-0.5-0.9-0.9zm0.3-0.2c0.1 0.3 0.5 0.5 0.6 0.4 0.2-0.3-0.2-1-0.6-0.8 0 0-0.2 0.1 0 0.4z"/>
				<path id="&lt;Compound Path&gt;" fill-rule="evenodd" class="s3" d="m9.3 88.4c-0.6 0.2-0.9 0.5-1.3 0.4-0.5-0.1-0.6-0.5-0.6-0.6 0.1-0.1 0.3-0.5 0.8-0.5 0.4 0.1 0.7 0.4 1.1 0.4 0.3 0.1 1.9 0 2.1 0.1 0 0 0.3 0.1 0.1 0.2 0 0-1.7-0.1-2.2 0zm-0.7-0.4c-0.2-0.2-0.9-0.2-1 0.2 0 0 0.1 0.2 0.4 0.3 0.3 0 0.7-0.3 0.6-0.5z"/>
				<path id="&lt;Compound Path&gt;" fill-rule="evenodd" class="s3" d="m25.6 88.7c0.5 0.1 0.6 0.5 0.6 0.6-0.1 0.2-0.4 0.5-0.8 0.5-0.5-0.1-0.8-0.5-1.1-0.5-0.3-0.1-1.9-0.2-2.1-0.3 0 0-0.2 0 0-0.1 0 0 1.6 0.2 2.2 0.1 0.5-0.2 0.8-0.4 1.2-0.3zm0 0.3c-0.3 0-0.7 0.2-0.6 0.4 0.1 0.2 0.9 0.3 1-0.1 0 0 0-0.2-0.4-0.3z"/>
				<path id="&lt;Compound Path&gt;" fill-rule="evenodd" class="s3" d="m21.5 95.9c0.2 0.4 0 0.8-0.2 0.9-0.1 0.1-0.4 0.1-0.7-0.2-0.3-0.4-0.2-0.8-0.3-1.3 0-0.6-0.8-2.1-0.8-2.1 0-0.2 0.2 0 0.2 0 0.1 0.2 0.7 1.6 0.9 1.9 0.2 0.3 0.6 0.4 0.9 0.8zm-0.5-0.2c-0.2 0-0.3 0.4-0.1 0.7 0.1 0.3 0.4 0.2 0.4 0.2 0.3-0.2 0-0.9-0.3-0.9z"/>
				<path id="&lt;Compound Path&gt;" fill-rule="evenodd" class="s3" d="m14.2 93.2c0 0-1 1.3-1.1 1.8-0.2 0.6-0.1 1-0.5 1.3-0.3 0.3-0.6 0.2-0.8 0.1-0.1-0.1-0.2-0.5 0.1-0.9 0.2-0.3 0.7-0.4 0.9-0.7 0.3-0.2 1.1-1.5 1.3-1.7 0 0 0.2-0.2 0.1 0.1zm-1.8 2.2c-0.3-0.1-0.8 0.6-0.5 0.8 0 0 0.3 0.1 0.5-0.1 0.2-0.3 0.2-0.7 0-0.7z"/>
			</g>
			<path id="&lt;Path&gt;" class="s1" d="m67.4 89.3h-1.3-1.6-1.3l-1.3-0.1-1.3-0.2h-0.6l-0.5 0.2 0.3 0.7 0.3 0.5-0.6 0.2-0.9-0.2-0.5 0.3 0.1 0.6 0.5 0.9 1.7 1 3 0.7 2 0.2 3 0.2 3.5-0.4 1.5-0.4h0.6v1.1 1.6l0.8 0.7 0.7 0.2 1.8-0.5 0.9 0.2 1.1 2.3 1.3 6.6-0.9 3.5 0.9 9.8-0.8 6.5 0.3 8.9 0.1 2.9-1.3 1.4-0.1 2 0.4 2 1.4 0.6 1.8 0.8h2.2l1.2-0.2 1.7-0.9 1.8 0.1 2.3-0.6 2-1.3 1.4-1.5 0.8-0.1 1.7-0.4 1.6-1.1 1.6-2.5v-1.1l-0.7-0.7-0.9-0.7-0.6-1.5 0.1-4.4v-1.7l3.9-9.8h1.9l-0.2 1.9-0.1 3.2 0.8 5.3v6.7l-0.5 1.7-0.2 1.8v1.5l0.1 1.4 2.2 0.9 1.9 0.1 1.9-0.2 1.3-1.1 1.1-1 0.8-1.7-0.1-1.9-0.6-2.4-0.4-1.2 0.2-3.3v-2.9l2.5-8.5 1.9-3.2 0.4 1.4 0.5 2.3 0.9 3.7 0.8 2.9 1.3 1.4 0.9 0.1h0.8l1.2 0.1 0.3-0.2-0.6-0.6-1.2-1.1-0.6-1.4-0.6-0.8-1-0.7h-0.8l-0.6-1.3-0.8-4.4-0.1-3.5 0.7-2.2 0.2-5.4-1.2-5.5-1.5-3-3.1-3.1-3-2.3-3-3-2.9-1.1-1.1-0.1-1.3-1.4-1.5-4-2-1.8-2.2-0.5-1.6 0.1-1-0.6-3.2-1.4-0.9-0.2-0.6-0.4-0.7 0.1-2.2 0.3h-1.3l-0.8-0.1-1.1-0.1h-0.7l-1.4 0.3-1 0.4-0.5 0.3-0.9 0.6-0.8 0.4-1 1-0.8 0.7-0.4 0.2-0.6 0.3-0.8 0.9-1.1 0.4-0.7-0.4h-0.6l-0.8-0.1h-0.7l-0.4-0.8-0.4-0.5-0.8-0.5-0.6-0.4v-1.2l-0.2-1.4v-1.2l0.2-0.8 1.2-1 1.6-1 1.6-0.3h1.9 2l2.8 0.5 2.1 0.4 2.8 0.4 0.6 0.1 0.8 0.1h0.9 1.3l-0.1 1 0.5 0.8 0.7 0.3 0.6-0.1 0.8-0.6v-0.7l-0.4-0.7 0.3-0.5 1.3-0.4 1-0.6 0.5-0.9 0.8-0.8 0.7-1.4 0.3-2.6-0.3-1.9-0.6-1.4-1.5-1.4-0.9-0.5-0.3-0.3 0.2-1.3h-4.9l0.3 2.1-0.8-0.2-1.3 0.2-1.7 2.9 0.3 1 0.4 1.3 1.2 0.9 0.6 0.6-5.2-0.6-6.1-0.9-4.1 0.3-3.1 1-3.2 2.8-1.6 3.5-0.3 3.9 0.3 2.4 0.8 2.4 1.4 2.2 1.9 2.8 1.3 1.5z"/>
			<path id="&lt;Path&gt;" class="s1" d="m90.5 57.1l-4.5 0.2-0.3-1.6h4.9z"/>
			<path id="&lt;Path&gt;" class="s1" d="m85.8 54.5h4.9l0.2-1.4 0.7-1.3 0.5-0.8 0.3-1.1 0.1-1.4v-1l-1.1 0.3-0.4-1-0.4-1-0.4-0.9-1.2 0.7-0.3-0.8v-1.1l0.2-0.7-0.5-0.7-0.3-0.4-0.6 1.3-1 0.7-0.4 0.4-0.3 0.9v1.2l-0.2 1-0.5-0.9-0.9-0.7-0.5 3.1 0.1 1.9 1.2 1.4 0.8 0.7-0.1 0.7z"/>
			<path id="&lt;Path&gt;" class="s1" d="m80.3 51.9l0.9 1.5 0.4 0.8-28.7 17.9-7.9-1.5 3.6-6.8z"/>
			<path id="&lt;Path&gt;" class="s1" d="m79.8 49.2l-14.6 1.1-3.6-3.3 3.8-2.3 14.3 2.2z"/>
			<path id="&lt;Path&gt;" class="s1" d="m81.1 43.9l0.7-1.5-6.8-5.7h-3.1l0.6 3.2z"/>
			<path id="&lt;Path&gt;" class="s1" d="m84.7 40.6l1.5-0.8-0.7-5.4-1.9-1.3-1.3 1.8z"/>
			<path id="&lt;Path&gt;" class="s1" d="m91.1 39.9l1.6 0.7 2.4-4.9-1.1-2.3-2 0.9z"/>
			<path id="&lt;Path&gt;" class="s1" d="m94.8 42.5l1 1.5 7.9-3.7 0.9-3.3h-3.2z"/>
			<path id="&lt;Path&gt;" class="s1" d="m96.7 46.9v2.1l13.8 1.1 4.6-2.9-4-2.4z"/>
			<path id="&lt;Path&gt;" class="s1" d="m96.2 51.9l-1.4 1.9 29 17.8 7.5-1.1-3.5-6.6z"/>
			<g id="&lt;Group&gt;">
				<path id="&lt;Path&gt;" class="s4" d="m86.1 123.1c-0.2 0.1-0.3 0.4-0.2 0.6 0 0.2 0.2 0.4 0.1 0.5 0 0.2-0.6 0.5-0.5 0.6 0.1 0.1 0.3 0 0.3 0.2 0 0.3-0.1 0.4-0.1 0.5 0 0.2 0.2 0.5 0.2 0.5 0 0-0.2-0.3 0-0.6 0.1-0.3 0.1-0.6 0.1-0.7 0-0.1 0.2-0.4 0.2-0.7 0 0-0.1-0.1 0-0.3 0.2-0.2 0.1-0.7-0.1-0.6z"/>
				<path id="&lt;Path&gt;" class="s4" d="m85.8 127c-0.1-0.3-0.3-0.4-0.3-0.6 0-0.3-0.1-0.7-0.1-0.7 0 0 0 0.8 0.1 1.1 0.1 0.2 0.1 0.4 0.1 0.9 0 0.4 0.2 0.8 0.3 0.6 0 0-0.1-0.3-0.1-0.7 0-0.4 0-0.4 0-0.6z"/>
				<path id="&lt;Path&gt;" class="s4" d="m90.3 92.5c0 0 0.6-0.1 0.8-0.3 0.2-0.3 0-0.7 0-0.7-0.1 0.6-0.8 1-0.8 1z"/>
				<path id="&lt;Path&gt;" class="s4" d="m90.5 91.8q0 0 0.1-0.1 0 0-0.1 0.1z"/>
				<path id="&lt;Path&gt;" class="s4" d="m94.1 92.9c0 0 0.3 0.4 0.1 0.8 0 0 0.2-0.1 0.4 0.3 0 0 0.1-0.9-0.5-1.1z"/>
				<path id="&lt;Path&gt;" class="s4" d="m82.7 99c-0.2-0.9-0.7-1-0.7-1 0.3 0.2 0.4 1 0.6 1.7 0.1 0.8 0.6 2.3 0.9 2.7 0.2 0.4 0.9 0.8 0.9 0.8 0 0-0.2-0.3-0.6-0.9-0.3-0.5-0.8-2.5-1.1-3.3z"/>
				<path id="&lt;Path&gt;" class="s4" d="m90 89.2c1 0.1 1.4 1.7 1.4 1.7 0 0 0-1.7-1.2-2.1-1.2-0.4-1.5 1-1.5 1.1 0 0 0.3-0.8 1.3-0.7z"/>
				<path id="&lt;Path&gt;" class="s4" d="m90.7 87c0.1-0.8 0-1.5 0.2-2 0.3-0.4 0.6-0.7 0.6-1.4 0 0-0.5 0.7-0.8 1.2-0.4 0.6-0.5 0.9-0.5 1.5 0 0.6 0.1 1.5 0 1.7 0 0.3 0.5-0.2 0.5-1z"/>
				<path id="&lt;Path&gt;" class="s4" d="m95.5 82c0 0-0.7-0.5-0.5-1.3 0.3-0.8 1.5-0.6 1.9-0.1 0 0 0.6-0.1 1.2 0.6 0.5 0.6 0.9 1.4 1.1 2.2 0.1 0.7 0.9 2.4 1.3 2.8 0.3 0.3 1.1 0.3 0.7-0.1-0.4-0.5-0.7-0.2-1.2-1.5-0.4-1.2-0.4-2.6-1.3-3.8-0.9-1.2-1.2-1-1.2-1 0 0-0.9-1-2.3-0.8-1.5 0.2-1.5 1.4-1.2 2.1 0.3 0.7 1.1 0.9 1.5 0.9z"/>
				<path id="&lt;Path&gt;" class="s4" d="m92.3 88.1c-0.1 1-0.1 2.1 0.5 2.4 0 0-0.1-0.3-0.1-1 0.1-0.7 0-1.6 0.1-2 0.2-0.4 0.2-0.9 0.2-1.2 0-0.4-0.1-0.7 0.1-0.6 0.3 0.1 0.4 0.3 0.4 0.3 0 0 0.2-0.4 0.3-0.7 0-0.3 0.1 0.1 0.4 0 0.2-0.1 0-0.8 0-0.8 0 0 0.7-0.6 1.1-0.6 0.3 0 1 0.5 0.7 1.5-0.4 1.1-0.9 2-0.7 2.9 0.1 0.9 0.7 1.2 1.1 1.3 0.4 0 0.5-0.5 0.2-0.7 0 0-0.2 0.3-0.5 0-0.4-0.2-0.5-1-0.2-1.7 0.2-0.7 0.7-1.9 0.7-2.7-0.1-0.9-1.3-1.5-1.7-1.2-0.5 0.2-1.2 1.4-1.8 1.2-0.5-0.2 0-1.8 0.3-1.9 0.4-0.1 0.9 0 0.9-0.4 0-0.3-0.8-0.4-1.4 0.5-0.5 0.9-0.5 1.6-0.7 2.1-0.1 0.5-0.4 0.8-0.3 1.6 0.2 0.7 0.5 0.8 0.4 1.7z"/>
				<path id="&lt;Path&gt;" class="s4" d="m81.9 82.3c-1.2 0.1-3 1.1-2.8 1.9 0 0 1.6-1.5 3-1.4 1.3 0.1 1.7 1.7 3.1 1.3 0 0-0.3-0.1-0.8-0.6-0.6-0.5-1.5-1.2-2.5-1.2z"/>
				<path id="&lt;Compound Path&gt;" fill-rule="evenodd" class="s4" d="m84.9 85.1c0 0-1.1 0.8-2.5 1-1.4 0.2-2.2 0.2-2.6-0.1-0.4-0.4-0.6-0.8-0.8-0.9 0 0 0.3 0.2 0.7 0 0.3-0.2 0.9-0.9 1.7-0.7 1.1 0.1 2 0.9 3.5 0.7zm-3.7 0.2c0-0.5-0.4-0.6-0.4-0.6 0 0-0.2 0-0.5 0.1-0.2 0.2-0.5 0.5-0.5 0.5 0.1 0.7 0.9 0.7 0.9 0.7 0 0 0.5-0.2 0.5-0.7zm1.8-0.1c-0.3-0.2-0.8-0.3-0.8 0 0 0.4 0.6 0.7 0.6 0.7 0.1 0.1 0.3-0.2 0.3-0.2 0.4-0.2 0.2-0.3-0.1-0.5z"/>
				<path id="&lt;Compound Path&gt;" fill-rule="evenodd" class="s4" d="m90.9 57.6h-5.3l-0.2-2.1h5.7zm-0.4-1.7h-4.5l0.1 1.1h4.2z"/>
				<path id="&lt;Compound Path&gt;" fill-rule="evenodd" class="s4" d="m87.1 42.9c0.3-0.2 0.4-0.7 0.3-1.1 0-0.4 0.5-1.3 0.7-1.7 0.2-0.5 0.1-1.9 0.1-1.9 0 0 0.5 1.6 0.3 2.3-0.2 0.7-0.1 1.3 0.3 1.9 0.5 0.6 0.2 1.3 0.1 1.9-0.1 0.5 0.3 0.9 0.3 0.9 0.1-0.3 0.7-0.6 0.8-0.9 0.2-0.5 0.3-0.6 0.6-0.9 0.3-0.4 0.3-0.6 0.3-0.6 0.2 0.2 0 0.7-0.2 1.4-0.1 0.7 0.1 1.5 0.5 2 0.4 0.5 0.4 1.3 0.4 1.3 0.1-0.2 0.9-0.4 1-0.6 0.2-0.3 0.2-0.4 0.3-0.6 0.2-0.3 0.3-0.7 0.3-0.7 0 0 0.1 0.8 0 1.1-0.1 0.4 0 1-0.3 2.4-0.3 1.4-0.5 1.8-0.5 2 0 0.2 0.4 0.3 0.7 0.6 0.3 0.2 0.6 0.7 0.6 0.7-0.2-0.2-0.9 0-1.3 0-0.3 0-0.5 0.2-0.8 0.4-0.4 0.3-0.5 0.7-0.5 0.7v1.4h-5.7v-1.6c-0.3-1.2-1.6-1.1-2.1-2.3-0.5-1.5-0.1-2.6 0-3.1 0.2-0.4 0.3-1 0.3-1.4 0-0.5 0-1.1 0.3-1.7 0.4-0.6 0.1-1.6 0.1-1.6 0.4 0.2 0.4 1.2 0.4 1.7 0 0.5 0.2 0.8 0.4 1 0.2 0.2 0.6 0.6 0.6 0.6 0 0-0.2-1.1 0.1-1.9 0.4-0.8 1.3-1.4 1.6-1.7zm3.4 10.7h-4.5v0.8h4.5zm-4.2-8.3c-0.1 1 0.4 1.5 0 1.9-0.3 0.4-0.9 0.9-0.6 1.5 0.3 0.6 0.1 1.1 0.1 1.1 0 0-0.1-0.6-0.3-0.8-0.2-0.2-0.5-0.6-0.5-1.1 0-0.5-0.4-1.2-0.6-1.3-0.2-0.1 0 0.6-0.2 1.1-0.2 0.6-0.4 2.3 0 3.1 0.4 0.8 1.1 1.1 1.4 1.5 0.2 0.4 0.4 0.8 0.4 0.8h4.5c0 0 0-0.3 0.2-0.6 0.2-0.2 0.6-0.7 0.6-0.7 0 0-0.4-0.1-0.6-0.1-0.3 0-0.6 0-0.6 0 0 0 0.4-0.2 0.6-0.3 0.2 0 0.8-0.1 1.2-0.7 0.3-0.7 0.3-2.4 0.4-2.7 0.1-0.3-0.2-0.1-0.5 0.1-0.2 0.2-0.5 0.7-0.7 1-0.2 0.3-1 0.7-1.1 0.8 0 0 0.2-0.5 0.3-0.6 0.2-0.1 0.6-0.6 0.7-1.4 0.1-0.7-0.5-1-0.8-1.7-0.3-0.7-0.2-1.2-0.2-1.2 0 0-0.6 0.4-0.7 1.1 0 0.7 0.1 1.3-0.1 1.6-0.2 0.4-0.4 0.5-0.4 0.5 0 0 0.2-0.8 0-1.4-0.3-0.6-0.8-1.5-0.6-2.2 0.1-0.7 0.6-1.4 0-2.3 0 0-0.1 1-0.6 1.4-0.5 0.4-1.2 0.7-1.3 1.6z"/>
				<path id="&lt;Path&gt;" class="s4" d="m86.9 52.6c0 0 0.6-0.7 0.4-1.5-0.2-0.7-0.8-1.6-0.2-2.9 0 0-0.7 0.4-0.7 1.5 0 1.1 1.1 1.8 0.5 2.9z"/>
				<path id="&lt;Path&gt;" class="s4" d="m87.4 47.9c-0.1 0.7-0.2 1.7 0.1 2.3 0.3 0.6 0.9 1.4 0.5 2.5 0 0 0.6-0.8 0.3-1.9-0.2-1-0.6-1-0.6-1.8 0.1-0.9 0.5-1.8-0.5-2.7 0 0 0.4 0.9 0.2 1.6z"/>
				<path id="&lt;Path&gt;" class="s4" d="m88.9 52.6c0 0 0.4-0.6 0.3-1.6-0.1-0.4-0.8-1.4-0.6-2.2 0 0-0.3 0.2-0.2 1.2 0.2 1 0.8 1.4 0.5 2.6z"/>
				<path id="&lt;Compound Path&gt;" fill-rule="evenodd" class="s4" d="m124.1 124.3c0.4 0.2 0.5 0.2 0.5 0.2 0 0-0.4 0.4-0.8 0.5-0.4 0-1 0.4-2 0.3-1-0.2-1.5-0.9-2.1-1.5-0.6-0.5-1.1-1.7-1.1-2.7-0.1-1.1 0-1.5-0.3-2.2-0.3-0.6-1.3-3.9-1.4-5.4 0 0-0.7 1.4-1.4 3-0.6 1.5-1.5 4.3-1.9 5.4-0.4 1.1-0.6 2.4-0.5 3.2 0 0.7-0.4 3.1-0.4 4.7 0.1 1.7 0.7 3.4 1 4.6 0.3 1.2-0.2 2.8-0.5 3.4-0.3 0.6-1.6 2.5-4.2 2.8-2.7 0.2-4.8-0.3-5.3-1.3-0.5-1-0.1-1.5 0.1-1.8 0.1-0.3 0.1-0.5 0-1-0.1-0.6 0.4-0.6 0.3-1.3-0.1-0.6 0.1-1.2 0.2-1.6 0.2-0.3 0.3-1.7 0.1-3.5-0.2-1.8 0-3 0-3.5-0.1-0.5-0.3-0.8-0.3-1.9 0-1.1 0.1-1.9-0.2-2.7-0.2-0.9-0.7-2.3-0.9-3.1-0.3-0.8-0.3-1.6-0.3-1.6 0 0-0.6 0.3-0.8 1-0.2 0.7-0.8 2.3-1.4 3.3-0.7 1-1 2.8-1 3.8-0.1 1.1-0.6 3.1-0.7 4 0 1 0.2 2.2 0.6 2.7 0.4 0.4 0.2 1.1 0.2 1.3 0 0.2 0.6 0.2 1.3 0.7 0.7 0.6 0.1 1.9-0.1 2.2-0.3 0.3-0.3 0.7-0.5 1.2-0.2 0.5-1.3 1.4-1.8 1.6-0.5 0.3-0.9 0.6-1.6 0.8-0.8 0.3-1.6 0.2-1.6 0.2 0 0-0.4 0.4-0.7 0.9-0.3 0.6-1.2 1.4-2.9 2.1-1.8 0.7-4.3 0.6-4.3 0.6-0.3 0-0.5 0.4-1.2 0.6-0.6 0.2-1.7 0.5-4.1 0-2.3-0.4-2.6-1.1-3.2-1.6-0.6-0.5-0.7-1.4-0.5-2.7 0.1-1.3 1-2.5 1.3-2.9 0.2-0.3-0.5-5.5-0.6-9.7 0-4.2 0.7-7.8 0.8-8.8 0.1-0.9-0.8-2.7-0.7-6.9 0.1-4.2 0.7-5.5 0.8-5.7 0.1-0.2-0.2-0.6-0.4-1.3-0.3-0.7-0.5-2.2-0.6-2.7-0.1-0.7 0-1.7-0.1-2-0.1-0.3-0.3-1.5-0.4-2.1-0.2-0.6-1.2-0.6-1.7-0.5-0.4 0.1-0.8 0.3-1.9 0.2-1.1-0.2-1.2-0.6-1.4-0.7-0.3-0.1-0.6 0.2-0.9 0.5-0.2 0.3-0.3 0.3-0.4 0 0-0.4 0.9-1.4 1.1-1.5 0.3-0.2 0.4-0.4 0.4-0.8 0-0.3 0.1-0.9 0.1-0.9 0 0-3 0.7-5.7 0.7-2.7-0.1-6.2-0.4-8.4-1.6-2.1-1.3-2.1-2.2-1.8-2.7 0.2-0.5 1.9-0.2 1.9-0.2-0.5-0.5-0.6-1.4-0.2-1.7 0.4-0.3 2.4 0.3 4.3 0.4 2 0 2.7-0.3 2.7-0.3 0 0-1.3-1.3-3.4-4.4-2-3.1-4.3-10.1-0.3-15 4.1-5 10.2-4.1 13.6-3.6 3.5 0.5 7.1 0.9 7.1 0.9-1.4-0.9-2.3-3.2-1.3-5.1 1-2 3.4-2.3 3.4-2.3l-0.1-1h5.3l-0.2 1.1c0 0 2.4 0.8 3.3 3.2 1 2.3 0.1 5.1 0 5.6-0.2 0.5-0.5 0.8-0.5 0.9 0 0.1-0.1 0.7-0.2 0.8-0.1 0.2-0.4 0.2-0.5 0.3-0.1 0-0.4 0.2-0.4 0.2 0 0 0 0.5-0.6 1-0.7 0.5-2 0.7-2.1 0.8-0.1 0.2-0.2 0.2-0.2 0.2 0 0 0.4 0.9 0.8 1.2 0 0-1 0.8-1.4 1.2 0.7 0.1 1.4 0.3 1.8 0.5 0.8 0.3 2.3 1.4 3.7 1.8q0.6-0.3 1.2-0.3c2.1-0.1 4 1 5.2 4 1.2 2.9 1.5 3 2 3.3 0.5 0.3 1.6 0.8 1.9 0.9 0.3 0.2 1.8 0.5 2.8 1.5 0.9 0.9 2.6 2.5 3.8 3.3 1.3 0.8 3.8 2.5 5.4 5.4 1.7 2.9 2.6 5.5 2.4 9.8-0.1 4.4-0.8 4.4-0.8 7.8-0.1 3.4 0.6 6.4 0.8 6.7 0.3 0.3 0.3 0.1 0.8 0.3 0.6 0.1 1.1 0.1 1.6 1 0.5 0.9 1 2.2 1.6 2.6 0.6 0.4 0.7 0.7 1 0.9zm-6-16.8c0.7-2.9 0-6.4-0.3-7.5-0.3-1-0.7-2.4-1.9-4.9-1.2-2.4-4.8-4.3-5.6-4.9-0.8-0.5-2-1.5-2.6-2.3-0.6-0.8-1.8-1.5-2.2-1.8-0.3-0.2-1.5-0.8-1.7-0.5-0.2 0.3 0 0.5 0.2 0.8 0.2 0.3 0.3 0.4 0.8 0.6 0.5 0.1 0.6 0.3 0.6 0.3 0 0-0.9-0.2-1.5 0.1-0.7 0.3-1 0.8-1.7 0.7-0.8 0-1.5-0.2-1.8-0.1-0.3 0.2-0.3 0.8-0.6 1.3-0.2 0.5-0.6 0.9-1.1 1.2-0.5 0.3-0.9 0.6-1.4 1.8-0.5 1.1-0.4 1.7-0.9 2.2-0.6 0.5-1.1 0.7-1.2 1.2-0.2 0.6-0.3 1.3-0.4 1.8-0.2 0.5-0.2 1.4 0 2.4 0.1 1-0.2 1.5-0.1 2.3 0.1 0.8 0.3 1.5 0.3 1.6 0-0.1-0.4-1.4-0.9-1.8-0.5-0.4-0.7-1.1-0.9-1.5-0.2-0.3-0.4-0.3-0.9-0.4-0.5 0-1.1-0.1-1.5-0.6-0.4-0.5-0.9-0.5-1.4-0.9-0.4-0.4-0.7-0.9-1.3-1-0.5 0-2.3-0.2-2.9 0.2-0.6 0.4-1.1 0.8-1.4 1.6 0 0 0-0.7 0.4-1.1 0.4-0.4 1-1 1.1-1.1 0.2-0.1 1 0 2.1-0.2 1-0.3 1.5-0.6 1.6-1.3 0 0 0.4 0.4 0.8 0.4 0 0-0.3 0-0.4 0.6-0.2 0.6 0.1 1 0.4 1.1 0.3 0.1 1-0.3 1-1.1 0-0.9-0.5-1.2-1-1.8-0.5-0.6-0.8-1-0.8-1.7 0-0.6 0.3-1.3-0.2-1.7 0 0 0-0.7 0.3-0.7 0.3 0 0.6-0.1 0.7-0.3 0.2-0.1 0.5-0.2 0.5 0.2-0.1 0.4-0.2 0.7-0.1 0.9 0.1 0.1 0.2 0.2 0.3 0.2-0.2 0-0.4 0.1-0.6 0.5-0.3 0.6-0.5 0.8-0.4 1.4 0.2 0.6 0.4 0.2 0.4 0.2 0 0 0 0.3 0.2 0.7 0.3 0.4 1.1 0.9 1.1 1.8 0.1 1 0 1.4 0.2 1.7 0.1 0.2 0.1 0.8 0.4 1 0.3 0.2 1 0.5 1.3 0.4 0.3 0 0.9 0.2 0.9 0.2 0 0 0-0.6 0-1.3 0-0.7 0.5-1.4 0.6-2.1 0-0.6-0.1-2.1 0-2.1 0.2 0 1 0.4 1.7-0.3 0.4-0.4 0.4-1 0.5-1.6-0.1-0.2-0.3-0.4-0.6-0.5-0.4-0.1-0.5 0.4-0.5 0.4 0 0 0.1-0.5 0.4-0.8 0.3-0.3 0.1-0.7 0.1-0.7 0.4 0.4 0.1 0.5 0.2 0.8 0.1 0.2 0.3 0.2 0.5 0.2 0.1-0.3 0.2-0.5 0.4-0.8 0.7-0.9 2.1-1.1 2.1-2.3 0-1.2 0.3-2.4-0.6-3.1 0 0 0.7 0.2 1 0.9 0.4 0.7 0.5 1 1 1 0.5 0.1 1.3-0.2 1.8-0.1 0.4 0 1.3 0 1.2-0.6-0.1-0.5-0.5-0.4-1.1-0.5-0.6-0.1-1.3-0.6-1.6-1.8-0.3-1.2-1.1-4.4-2.4-5.5-1.3-1.1-3.2-1.4-4.6-0.7-1.3 0.6-1.8 1.8-2.4 2-0.7 0.2-1.9 0-2.2 0.1 0 0 0.5-0.2 1-0.3 0.4-0.1 1-0.4 1.3-0.8 0.1-0.2 0.8-1 1.7-1.7-0.4-0.2-1-0.5-1.6-0.9-1.1-0.6-2.9-1.5-4.9-1.3-2 0.2-3.9 0.9-5.5 2.2-1.5 1.3-2.7 2.8-2.7 2.8 0 0 1.3-2.8 3.6-4.2 0-0.2-0.1-0.5-0.6-0.5-0.7-0.1-2.3 0.4-4.1 1.6-1.8 1.3-2.2 2.1-2.2 2.1 0 0-0.3-0.3-0.8 0.1-0.5 0.4-1.5 1.5-1.5 1.5 0 0-0.3-0.1-0.7 0.3-0.3 0.3-1.6 1.6-1.8 1.7-0.2 0.2 0.2-0.2 0.5-0.7 0.4-0.4 0.9-1 0.7-1.4-0.2-0.4-3.4-0.7-5.6 0.8 0 0 1-0.9 1.6-1.2 0.7-0.2 1.2-0.4 1-0.7-0.2-0.3-1.5-1.8-4.3-1.7 0 0 0.5-0.2 1.3-0.2 0.7 0 1.5 0.1 1.4-0.3 0-0.5 0-1.5-0.8-2-0.7-0.5-2.2-1.3-2.2-1.3 0 0 0.7 0.1 1.1 0.3 0.4 0.2 1.1 0.4 1.2 0.2 0.2-0.2 0.1-0.7 0.2-0.9 0.2-0.1 0.3-0.6-0.1-1.1-0.3-0.5-0.7-0.8-0.7-0.8 0 0 0.1-0.3 0.3-0.1 0.3 0.1 0.2 0.3 0.4 0.5 0.2 0.3 0.3 0.5 0.6 0.6 0.3 0 1.1-0.4 1.1-0.7 0-0.4 0-1.1-0.1-1.3-0.1-0.2-0.3-0.5-0.2-0.6q0.3-0.2 0.4 0.4c0.1 0.4 0.1 0.9 0.4 0.9 0.4 0.1 1.4-0.4 1.5-0.7 0.1-0.3 0-0.6 0-0.9-0.1-0.2-0.2-0.9-0.1-1 0.2 0 0.3 0.3 0.3 0.5 0 0.3 0.1 1.2 0.3 1.3 0.2 0 1-0.2 1.3-0.2 0.4 0 0.6 0 0.7-0.2 0.1-0.3 0-1.1-0.1-1.3-0.1-0.2 0-0.3 0.2-0.3 0.1 0 0.2 0.3 0.2 0.5 0 0.3-0.1 1.2 0 1.3 0.1 0.1 0.6 0 0.8 0 0.3 0 0.9 0.1 1.1 0.1 0.2 0 0.4-0.4 0.4-0.7 0-0.2-0.2-0.9 0-1 0.2-0.2 0.4 0.2 0.3 0.5 0 0.3-0.1 0.7 0 0.9 0.2 0.2 0.2 0.5 0.4 0.5 0.3 0.1 0.9 0.2 1.1 0.1 0.2-0.1 0.4-0.4 0.4-0.7 0-0.2-0.2-0.9 0.1-0.9 0.2 0.1 0.2 0.4 0.2 0.6-0.1 0.2-0.1 0.3-0.1 0.6 0 0.2 0.1 0.6 0.3 0.6 0.2 0 0.6 0 0.8 0.1 0.2 0 0.6 0.1 0.7-0.2 0.1-0.3 0-1.2 0-1.2 0 0 0.2-0.1 0.2 0.2 0.1 0.4 0 0.7 0.1 0.8 0 0.2 0 0.5 0.2 0.6 0.2 0.1 0.2 0 0.7 0.1 0.4 0.1 0.8 0.1 0.9-0.2 0-0.2 0-1.2 0-1.2 0 0 0.1-0.1 0.2 0.2 0 0.3 0 0.6 0 0.8 0.1 0.2 0.2 0.6 0.2 0.6 0.1 0.1 0.4 0 0.7 0 0.2 0.1 0.7 0.3 0.8 0.1 0-0.2 0.2-1.3 0.1-1.4-0.1-0.2 0.2 0.1 0.2 0.2 0 0.2-0.1 0.8-0.1 0.9 0.1 0.2 0 0.5 0.2 0.5 0.1 0 1.1 0 1.3 0.1 0.3 0 0.7 0 0.8-0.1 0-0.1 0-1.4-0.2-1.6-0.1-0.1 0.2 0 0.3 0.3 0 0.2 0.1 0.5 0.1 0.7 0 0.2 0.1 0.7 0.3 0.7 0.2 0.1 1.5 0 1.5-0.2 0.1-0.2 0-0.8-0.1-1.1-0.1-0.3-0.1-0.5 0-0.4 0.1 0.1 0.3 0.3 0.3 0.6 0.1 0.3 0.2 0.8 0.3 0.9 0.2 0 1.3-0.2 1.5-0.4 0.2-0.2 0.1-0.9 0-1.1-0.1-0.2-0.4-0.6-0.3-0.6 0.2 0 0.4 0.3 0.4 0.4 0.1 0.2 0.1 0.7 0.3 0.8 0.2 0.1 0.4 0.1 0.6 0 0.2-0.1 0.8-0.7 0-1.8 0 0 0.2 0 0.4 0.2 0.2 0.1 0.3 0.3 0.5 0.3 0.2-0.1 0.7-0.7 0.8-1.2 0-0.5-0.2-0.7-0.4-0.8-0.2-0.1-0.3-0.3-0.1-0.3 0.2 0 0.5 0.3 0.6 0.3 0.1 0 0.4 0 0.5-0.2 0.1-0.2 0.6-2.1 0-4.1-0.9-2.8-3.1-3.1-3.1-3.1l-0.1 2.4c0 0 0.6 0.8 0.1 3.1-0.4 1.5-0.9 2.1-2.2 2.1-1.3 0-5.2-0.5-5.2-0.5-1.8-0.3-6.2-0.8-8.8-1.2-2.7-0.3-5.2 0-7.3 0.8-2 0.8-3.5 2.7-4.1 3.8-0.7 1-1.3 2.9-1.3 4.5-0.1 1.5 0.3 4.5 0.6 5.2 0.4 0.7 1.5 2.8 1.7 3 0.2 0.2 0.4 0.7 0.5 0.9 0 0.2 0.7 1 1 1.4 0.2 0.3 0.4 0.7 1 1.3 0.6 0.5 1.5 1.6 1.5 1.6 0 0-0.4-0.1-0.1 0.5 0.3 0.5 1.4 0.7 2.2 1 0.9 0.4 1.4 0.9 2.3 1.5 0.9 0.6 2.1 1 3.7 1 1.5 0.1 2.6-0.5 2.7-0.5 0.2-0.1 0.4-0.3 0.4-0.6 0-0.2-0.5-0.5-0.3-0.5 0.2-0.1 0.4 0.2 0.7 0.6 0.2 0.5 1.1 0.6 1.4 0.7 0.3 0.1 0.1 0.4 0.1 0.4 0 0-0.3-0.1-0.6-0.1-0.3 0-0.9-0.3-1.1-0.3-0.2 0-0.8 0.4-1.6 0.8-0.9 0.4-0.9 1.3-1.1 1.6-0.1 0.3-1 1-1.3 1.2-0.3 0.1-0.4 0.4-0.3 0.7 0.1 0.3 1.1 0 1.8-0.2 0.6-0.2 1.8-0.2 2.5-0.2 0.8 0 1.1 0 1.5-0.2 0.5-0.2 1.1-0.7 1.4-0.6 0.2 0-0.2 0.7-0.5 0.9q-0.3 0.4 0.3 0.5c0.4 0 1.6 0.1 2.5-0.5 0.9-0.6 1.5-2.2 1.5-2.2 0 0 0 2-1.4 2.6-1.4 0.7-2.5 0.5-3.2 0.5-0.8-0.1-1.1 0-1.1 0-0.1-0.2-0.4-0.6-0.8-0.5-0.4 0.1-0.4 0.6-0.3 1 0.2 0.3 0.5 0.1 0.5 0.1-0.1 1 0.8 1.6 0.8 1.6 0 0-0.2 0.8-0.2 1.9 0 1.1 0.4 1.3 0.4 2.2 0.1 0.9 0.3 1.8 1 2.9 0.6 1.1 1.1 1.1 2.3 2.3 1.2 1.1 0.9 1.8 0.9 1.8 0 0-0.1-0.7-0.7-1.2-0.6-0.5-1.4-1-1.9-1.4-0.5-0.4-1.4-1-1.5-0.8-0.1 0.1-0.1 1.3-0.2 2.3-0.1 1-0.3 2.5-0.2 3.9 0.1 1.4 0.2 0.9 0.2 1.3 0 0.4-0.1 1.5 0.1 2.3 0.2 0.9 0.5 1.5 0.5 2 0 0.6 0.4 0.8 0.5 1.2 0.1 0.4 0.3 0.8 0.4 1 0.2 0.3 1.2 0.5 1.2 2 0 0 0-0.6-0.4-1-0.3-0.4-1-0.9-1.3-1.2-0.3-0.4-0.5-0.7-0.8-0.6-0.2 0.2-0.2 1-0.2 1.5 0 0.6-0.2 2.1-0.3 3.1 0 1.1 0 2.6 0.3 3.3 0.2 0.6 0.2 1 0.6 1.6 0.4 0.6 0.9 1.4 0.9 1.6 0 0.3-0.2-0.5-0.5-0.7-0.3-0.3-0.7-0.9-0.9-1-0.1-0.2-0.4-0.2-0.4 0.3 0.1 0.5 0.3 1.6 0.3 2.1 0 0.4 0.1 1.7 0.3 2.2 0.2 0.5 1 1.2 1.1 1.5 0.1 0.3 0.2 0.7 0.6 0.8 0.3 0.1 0.9 0.3 0.8 0.5-0.2 0.1-0.4-0.2-0.7-0.3-0.4-0.1-0.8-0.4-1-0.7-0.2-0.2-0.8-1-1-0.9-0.2 0.1-0.2 0.7-0.2 0.9 0 0.3 0 0.8 0.2 0.8 0.3 0.1 1.2-0.1 1.5 0.1 0 0-0.8 0-1.1 0.1-0.3 0.1-0.5 0.2-0.6 0.2-0.2 0.1-0.4 0.2-0.3 0.4 0.1 0.2 0.3 0.5 0.3 0.7-0.1 0.2-0.2-0.3-0.5-0.3-0.3 0-0.4 0.5-0.3 0.7 0 0-0.1 0.2 0 0.4 0 0.1 0.4 0.6 0.8 0.7 0.4 0.2 0.5 0.1 0.6 0.1 0.1 0.1 0 0.3 0.1 0.5 0 0.2 0.3 0.6 0.3 0.6 0 0 0.2-0.4 0.6-0.4 0.3-0.1 0.3 0.2 0.7 0.2 0.4 0 0.8-0.1 1 0.1 0.1 0.2 0.2 0.3 0.2 0.3 0 0 0.9-0.4 1.4-0.2 0.6 0.1 0.9 0.6 1 1l0.1 0.4c0 0 0.2 0.4 0.4 0.4 0.1 0 0.4-0.4 0.2-0.8-0.2-0.4-0.7-1.2-0.7-1.6 0-0.4 0.2-1.9 0.1-2.5-0.1-0.5-0.9-1.3-0.9-1.3 0 0 0.5-0.1 0.3-0.6-0.1-0.4-0.2-1-0.1-1.2 0-0.2 0.1-0.4-0.1-0.7-0.2-0.2-0.4-1.1-0.7-2.4-0.3-1.2-0.2-2.6-0.2-3.1-0.1-0.5-0.3-1.2-0.3-2.4 0.1-1.2 0.4-2.1 0.6-2.6 0.1-0.6 0.1-1.4 0.3-1.8 0.1-0.4 0.2-0.8 0.3-1.2 0.1-0.5 0.4-1 0.5-1.5 0.1-0.5 0.3-1.4 0.3-1.8 0-0.4 0.2-1.1 0.3-2 0-0.8 0.3-3-0.2-5.3-0.4-2.2-1.8-3.9-2.1-6.5 0 0 0.3 1 0.7 2 0.5 1 1.1 2 1.3 2.5 0.3 0.5 0.6 1.5 1.6 1.5 1 0 1.4-2 1.4-3-0.1-1.1-0.2-3.2-0.1-4.2 0.3-1.4 1.6-2.1 1.6-2.1 0 0-1 1-1.1 1.8-0.1 0.9 0.1 1.8 0.1 1.8 0 0 0.7-0.7 1-1.2 0.4-0.6 1-1.5 1.6-1.8 0 0-0.8 0.7-1 1.2-0.1 0.5-0.6 1.1-0.8 1.5-0.1 0.4-0.6 1.6-0.6 2.8-0.1 1.3-0.1 2.2-0.9 4-0.8 1.7-1.4 2.9-1.9 5.2-0.5 2.3-0.3 3.5-0.2 4.8 0.1 1.2 0.3 3.1 0.1 4 0 0-0.1-2.1-0.2-2.8-0.2-0.8-0.3-1.7-0.6-1.5-0.3 0.2-0.5 0.8-0.4 1.9 0 0-0.3 0-0.5 1.1-0.2 1.1-0.4 1.6-0.6 2.4-0.1 0.8-0.2 1.8 0.1 2.6 0.3 0.8 0.9 0.4 0.9 0.4 0 0 0.5 0.6 0.5 1-0.1 0.5-0.2 1.1 0 1.7 0 0-0.4-0.6-0.4-1.1 0.1-0.5-0.2-1.1-0.3-1.2-0.2-0.1-0.4 0.1-0.4 0.7-0.1 0.6-0.1 1.2-0.1 1.6 0.1 0.5 0.5 1.1 1.2 0.8 0 0-0.1 0.2-0.4 0.4-0.2 0.2-0.5 0.5-0.4 0.8 0.2 0.3 0.8 0.3 1 0.2l0.1 0.2c0 0-0.6 0.3-0.5 0.5 0 0.3 0 0.8 0.1 0.8 0.2 0 0.1-0.2 0.6 0 0.5 0.2 0.9 1.1 0.9 1.1 0 0-0.4-0.5-0.7-0.5-0.2 0-0.3 0.2-0.5 0.3-0.1 0.1-0.2 0.4-0.1 0.8 0 0.3 0.1 0.3 0.3 0.2 0.1 0 0-0.1 0-0.1 0 0 0.2-0.2 0.5 0.3 0.3 0.4 0.3 1.1 0.5 1.3 0 0-0.3-0.2-0.4-0.4-0.1-0.1-0.4-0.2-0.5 0-0.1 0.2-0.1 0.8 0.3 0.9 0 0-0.4 0.2-0.4 0.6 0 0.4 0.1 0.7 0.1 0.7 0 0 0.3-0.4 0.9-0.5 0.6-0.1 1.5 0.4 1.5 0.4 0 0 0-0.8 0.9-1 0.8-0.1 1.7 0.6 1.7 0.6 0 0-0.3-1.7 0.9-2.2 1.2-0.5 2.2 0.5 2.2 0.5 0 0 0.7-1.2 0.5-1.8-0.2-0.6-0.9-0.6-1.5-0.3-0.6 0.3-1 0.9-1.1 0.8 0-0.2 0.5-0.8 0.8-1.1 0.2-0.3 0.4-0.4 0.4-0.7 0.1-0.3-0.2-0.9-0.2-1.2-0.1-0.2-0.2-0.5-0.5-0.3-0.3 0.2-1.1 1.3-1.3 1.4-0.1 0 0-0.3 0.1-0.5 0.1-0.2 0.7-0.9 0.8-1.6 0-0.8-0.2-1.2-0.3-1.7 0-0.5-0.2-1-0.7-1.1-0.6 0-1.3 0.2-1.5-0.5 0 0 0.2 0.3 0.8 0.2 0.5-0.1 0.7-0.5 1-1.3 0.2-0.7 0.4-1.9 0.8-3 0.3-1.1 1.2-3.1 1.3-3.6 0.2-0.5 0.6-1.3 1-1.8 0.5-0.5 1.4-1.2 1.6-1.9 0.2-0.6 0.2-0.6 0.4-0.7 0.2-0.2 0.3-0.1 0.4-0.4 0.1-0.2 0.8-1.2 1-1.8 0.2-0.7 0.8-2 1-2.4 0.3-0.4 1.2-1.2 1.3-2.5 0.1-1.2-0.1-1.9-0.1-2.5 0-0.6 0-1.2-0.4-1.4 0 0 0.6 0 0.7 0.7 0.1 0.8-0.1 1.2 0.1 1.8 0.1 0.6 0.1 0.9 0.3 0.9 0.1-0.1 0.3-0.5 0.4-0.7 0.1-0.2 0.4-0.2 0.5-0.6 0.2-0.3 0.3-0.6 0.3-0.6 0 0 0 0.4-0.1 0.8-0.1 0.4-0.2 0.8-0.1 0.9 0.1 0 0.4 0.5 0.6 0.3q-0.1 0.3-0.1 0.3c0 0 0.2-0.1 0.5-0.1 0.3 0.1 0.5 0.1 0.5 0.1 0 0-0.2 0.1-0.3 0.1-0.1 0-0.7 0.1-0.8 0.3-0.1 0.1 0 0.6-0.3 1-0.3 0.4-0.7 0.5-0.7 0.7-0.1 0.2-0.1 0.4-0.1 0.4 0 0-0.1-0.4 0-0.7 0.2-0.3 0.3-0.8 0-0.8-0.2 0-0.5 0.3-0.5 0.5 0 0.3 0.2 0.9-0.1 1.3-0.3 0.3-0.1 0.1 0-0.2q0-0.5-0.1-0.7c-0.1-0.2-0.1 0-0.3 0.1-0.2 0.1-0.4 0.4-0.3 0.6 0.1 0.2 0.3 0.6 0.5 0.9 0.1 0.2 0.8 0.5 1.1 0.5 0.2-0.1 0 0.2-0.3 0.2-0.2 0-0.7-0.2-1-0.4-0.3-0.2-0.8-0.3-0.9 0-0.1 0.3-0.2 0.7-0.2 0.7 0 0 0.4-0.5 0.5-0.4 0.1 0.1-0.2 0.5 0 0.5 0.2 0 1.1-0.2 1-0.1-0.1 0.1-0.2 0.4 0 0.4 0.2 0 0.8 0 1.5-0.3 0.6-0.2 1 0.1 2-0.1 1-0.1 2.3-0.4 2.7-0.8 0.4-0.4 1.6-1.5 1.8-1.6 0.3 0 0.6-0.3 1.1-0.9 0.6-0.6 2.1-3.8 2.4-6.1 0.4-2.4-0.3-4.8-0.8-5.8 0 0 0.6 0.7 0.7 1.2 0.1 0.4 0.5 0.9 0.4 1.5 0 0.6-0.1 2.5 0.1 2.3 0.2-0.3 0.5-1 0.7-1.5 0.1-0.6 0.2-1 0.2-1 0 0-0.2 1.4-0.4 2-0.3 0.5-0.5 1.3-0.7 2-0.2 0.7-0.8 2.5-1.3 3.6-0.5 1.2-0.8 1.7-1.2 2.2-0.5 0.4-1.3 1.4-2.1 2.1-0.7 0.8-2.4 2.1-3.1 3.2-0.7 1.1-1.3 2.8-0.6 4 0 0-0.4 0.2 0.3 0.9 0 0-0.7 0.2 0.2 0.9 0 0-0.7 0.2 0.6 1.1 0 0-0.4 0.3-0.3 0.5 0.1 0.3 0.3 0.1 0.3 0.1 0 0-0.2 0.3-0.2 0.4 0 0.2 0.4 0.4 0.7 0.7 0.3 0.4 0.7 0.9 0.7 0.9 0 0-0.5-0.4-0.4-0.1 0.2 0.3 1 1.5 0.9 2.3 0 0 0-0.5-0.4-1-0.5-0.5-0.8-1.2-1-1.3-0.3-0.3-0.9-0.3-0.8 0.1 0 0.3 0 1.1-0.1 1.9-0.2 0.8-0.3 2.1-0.2 3.1 0 1.1 0.5 1.7 0.9 2 0.5 0.3 1.2 1 1.2 1.1 0.1 0.1 0.2-0.3 0.4-0.1 0.2 0.2 0.3 0.5 0.3 0.5 0 0-0.4-0.4-0.5-0.3 0 0.1 0 0.3 0 0.3 0 0-0.4-0.6-1.2-1-0.6-0.3-0.6 0.4-0.6 0.4 0-0.6-0.3-0.9-0.4-0.7-0.1 0.2-0.2 0.3-0.4 0.6-0.3 0.3 0 0.2 0 0.4 0 0.2 0 0.4 0.1 0.5 0.2 0 0.3 0 0.7 0.2 0.4 0.2 0.7 0.7 0.7 0.7 0 0-0.3-0.2-0.6-0.3-0.2 0 0 0.2 0 0.2 0 0-0.8-0.4-1.1-0.3-0.3 0.1-0.1 0.5-0.1 0.9 0.1 0.3 0 0.7 0 0.7 0 0 0.2-0.3 0.6-0.3 0.4-0.1 0.8 0.2 1.2 0.2 0.4 0 0.7 0.3 0.7 0.3 0 0 0.1-0.2 0.7-0.3 0.7-0.1 1.5 0.1 1.5 0.1 0 0 0.2-0.7 1.6-0.6 1.4 0 1.4 1.1 1.4 1.1 0.5-0.3 1-1.2 1.1-1.9 0.1-0.8-0.2-1.2-0.2-1.3-0.1-0.2-0.2-0.2-0.4 0-0.2 0.2-0.2 0.6-0.2 1.3 0 0.8-0.4 0.9-0.4 0.9 0.3-0.3 0.2-1.1 0.2-1.6 0.1-0.5 0.3-0.8 0.4-1 0.1-0.2 0-0.3 0-0.3 0 0 0.2 0 0.1-0.3 0-0.3-0.6-0.5-0.6-0.5 0 0 0.2-0.1 0.3-0.3 0.1-0.3-0.3-1-0.4-1.6 0-0.7 0-3.3 0-4.1 0.1-0.8 0.1-2 0.1-2 0 0-0.3 0.1-0.5 0.4-0.2 0.2-0.5 1-0.6 1.5-0.1 0.4-0.4 1-0.4 1 0.2-0.4 0.4-1.5 0.4-2 0.1-0.5 0.5-0.8 0.8-1.4 0.3-0.6 0.4-1.2 1.1-3.3 0.6-2.1 1.6-4.7 2.5-6.9 1-2.2 2-4 2.6-7zm-14.8 2.4q0-0.1 0.1-0.1 0-0.1 0-0.1 0 0.2-0.1 0.2zm0.3-2.3c0 0 0.1 0.7 0 1.2-0.1 0.5 0-0.4-0.2-0.1q0.2-0.5 0.2-1.1zm-8.6-3.8q0 0 0 0 0 0 0 0zm-5.1-43.9c0 0 0.5-0.6 0.5-1.2l-1-0.1c0 0-0.1 0.7 0.5 1.3zm-0.6-0.1c-0.2 0.5-0.9 1-0.9 1-0.7-0.5-1-1.1-1-1.1 0 0-0.6 0.7-0.8 0.6-0.1 0-0.4-0.3-0.4-0.3 0 0 0.4 2.2 0.4 2.6 0.1 0.2 0.3 0.6 0.8 0.9q-0.1 0-0.2-0.1c-0.8-0.4-1-0.6-1-0.6l-0.3-1.9c-1.6-0.2-2.9 1.1-3 2.4-0.1 1.2 0.5 2.1 0.6 2.3 0 0.1 0.4-0.2 0.6-0.3 0.3-0.1-0.1 0.5-0.1 0.6-0.1 0 0.1 0.3 0.4 0.4 0.2 0.2 0-0.2 0.1-0.4 0.2-0.1 0.2 0.5 0.2 0.6-0.1 0.2 0.1 0 0.3-0.1 0.2 0 0.4 0.6 0.9 0.7 0.5 0 0.8-0.1 1-0.2 0.2-0.1 0.6 0.2 1 0.2 0.4 0 1.4-0.1 1.7-1.3 0.3-1.2 0.3-2.2 0.3-2.2-0.4 0.5-1.3 0.3-2.1 0q0.2 0.1 0.4 0.1c1.1 0 1.6-1 1.6-1l0.1-2.3c-0.3-0.3-0.6-0.6-0.6-0.6zm-0.9 0.5c0 0 0.6-0.3 0.7-1.7h-1.4c0 0-0.2 0.8 0.7 1.7zm-1.8-0.5c0 0 0.6-0.2 0.8-1.2h-1.3c0 0-0.1 0.8 0.5 1.2zm1.2 3.8q-0.2 0-0.4-0.1 0.2 0.1 0.4 0.1zm-26.9 27c0.6 0.2 2.8 0.7 4.9 0.5 2-0.1 2.3-0.5 2.5-0.8 0 0-0.4-0.2-0.9-0.5-0.8-0.4-1.5-0.1-2.5-0.1-1.1-0.1-2.5-0.2-3.5-0.4-0.8-0.2-1.5-0.4-1.6 0.1-0.1 0.5 0.5 0.9 1.1 1.2zm12.2 2.4c-0.1-0.5-2.4-1.6-2.9-2.1 0 0-0.5-0.1-1.4 0.2-0.8 0.3-2.9 0.7-4.9 0.6-2-0.1-4.8-1.2-5.2-1-0.4 0.2-0.4 0.7 0.1 1.3 0.6 0.6 2.5 1.4 5.4 1.9 2.9 0.5 4.9-0.2 6-0.4 1-0.2 3-0.1 2.9-0.5zm1.3 3c0.1 0 0.7-0.4 1.1-0.9 0.4-0.6 1.1-1 1-1.8 0 0-0.8 0.1-1.4 0 0 0-0.4 0.2-0.6 1-0.2 0.8-0.1 0.9-0.1 1.2-0.1 0.3-0.2 0.5 0 0.5zm6.4 45.4c0 0-0.2-0.5-0.4-0.7-0.2-0.2-0.8-0.5-0.9-0.3-0.2 0.1-0.6 0.6-0.5 1.2 0.2 0.5 1.1 1.4 1.3 1.4 0.1-0.1 0.5-0.3 0.5-0.7 0.1-0.3 0.1-0.7 0-0.9zm2.6 1.2c0-0.2-0.1-0.7-0.3-0.9-0.2-0.2-0.9-0.3-1.5-0.1-0.5 0.2-0.5 0.7-0.5 1-0.1 0.2-0.1 0.5 0.1 0.6 0.1 0.2 0.9 0.6 1.4 0.6 0.5-0.1 0.8-0.2 0.8-0.5 0-0.3 0-0.7 0-0.7zm2.7 0c0-0.1-0.2-0.7-0.6-0.8-0.4-0.1-0.9-0.1-1.1-0.1-0.2 0.1-0.5 0.2-0.5 0.5-0.1 0.3-0.3 1.4-0.1 1.6 0.2 0.1 0.5-0.1 0.8-0.1 0.3 0 1.1 0 1.4-0.2 0.3-0.1 0.2-0.6 0.1-0.9zm8.6-3.8c0-0.4-0.7-0.9-1.4-0.8-0.7 0.1-1.3 0.8-0.9 2.3 0 0-0.1 0-0.2-0.1q-0.1 0-0.1 0 0 0 0.1 0c-0.3-0.1-0.7-0.2-0.9-0.3-0.4 0-0.7-0.3-1.1-0.1-0.3 0.2-0.6 0.5-0.7 1.1 0 0-0.7-0.6-1.4-0.6-0.7-0.1-1 0.7-0.8 1.3 0.2 0.6 1.5 1.3 2 1.1 0.4-0.2 0.3-1 0.1-1.4 0 0 0.2 0 0.3 0.3 0.2 0.3 0.2 0.7 0.4 0.7 0.2 0 1-0.5 1.2-0.6 0.1 0 1.1-0.3 1.1-0.6 0.1-0.3-0.1-0.7-0.2-0.9q0 0 0 0c0.1 0.2 0.5 0.5 0.6 0.5 0.2-0.2 0.8-0.8 1.1-1.1 0.3-0.1 0.9-0.3 0.8-0.8zm4.8-2.4c-0.4-0.3-1.5-0.3-1.8 0.1-0.4 0.4-0.4 1.4-0.4 1.4 0 0-0.6-0.8-1.1-0.7-0.5 0.1-0.7 0.6-0.8 1.3 0 0.7 0.5 0.6 0.9 0.5 0.5-0.1 1-0.2 1.2-0.2 0.1 0-0.1-0.8-0.1-0.8 0 0 0.3 0.2 0.4 0.4 0.1 0.1 0.3-0.1 0.4-0.3 0.2-0.2 0.7-0.7 0.9-0.8 0.3-0.1 0.4 0 0.6-0.2q0.3-0.3-0.2-0.7zm0.7-20.5c-0.4 0-1.2 0.3-1.4 0.6-0.1 0.4-0.6 1.1-0.6 1.3-0.1 0.2-1.1 1.1-1.5 1.7-0.4 0.5-1.1 1-1.4 1.4-0.3 0.3-0.3 0.6-0.4 1.1-0.1 0.6-0.7 2.2-1.1 3.2-0.3 1.1-0.6 1.5-0.7 2.2-0.1 0.7 0 2.3 0.3 2.9 0.2 0.6 0.1 1.6 0.2 2.2 0.2 0.7 0.7 0.5 1.1 1.1 0.4 0.5 0.1 1.2 0.2 1.5 0.1 0.2 0.5 0.3 0.8 0.4 0.3 0 0.2 0.1 0.1 0.1 0 0-0.2 0.1 0 0.4 0.2 0.2 0.3 0.7 0.3 0.7 0.2-0.1 0.7 0.1 0.7 0.1 0 0 0.5-0.9 1.4-1 0.8-0.2 1.6 0.3 1.6 0.3 0 0 0.7-0.6 0.4-1.4-0.2-0.9-1.2-0.8-1.7-0.6-0.6 0.1-0.9 0.7-1.1 1-0.1 0.1-0.2 0.2-0.3 0.2 0.1-0.1 0.1-0.3 0.2-0.7 0.2-0.4 0.8-0.8 0.9-0.9 0.2-0.1 0.1-0.2 0-0.6-0.1-0.3 0.1-0.6 0-1.2 0-0.5 0-1.1 0-2 0-0.8 0.1-1.3 0.1-1.6 0.1-0.3 0.1-0.8-0.1-0.8-0.2-0.1-0.4 0-0.5 0.2-0.1 0.2-0.5 0.4-0.5 0.4 0 0 0.3-0.3 0.3-0.7 0-0.3-0.4-0.5-0.5-0.4-0.1 0.1-0.2 0.5-0.3 0.6-0.2 0.2-0.3 0.5-0.3 0.5 0 0-0.3-0.3-0.7-0.3-0.4 0.1-0.8 0.3-0.8 0.3 0 0 0.3-0.3 0.6-0.4 0.3-0.1 0.9-0.2 1.1-0.5 0.1-0.3 0.3-0.5 0.8-1 0.5-0.5 0.9-1.6 1.4-3.1 0.4-1.5 1.3-3.2 1.6-4.2 0.3-0.9 0-1.3-0.4-1.4-0.4-0.1-0.9 0.5-0.9 0.5 0 0 0.2-0.7 0.8-0.8 0.6 0 0.9 0.2 0.9 0.2 0.1-1.1-0.2-1.5-0.6-1.5zm10.4 21.4c-0.8 0-1.2 0.3-1.2 0.7 0 0.4 0 0.8 0 0.8 0 0-0.2-0.8-1-0.9-0.8-0.1-1.2 0.3-1.2 0.6-0.1 0.3-0.2 0.8-0.4 0.8 0 0 0.1-0.5 0-0.8-0.2-0.3 0-0.6-0.5-0.8-0.4-0.2-1.3-0.3-1.7 0.2-0.3 0.5-0.1 1.5 1.1 1.9 1.2 0.3 1.6 0.1 1.8 0 0.3-0.1 1.1-0.1 1.4-0.2 0.3-0.1 0.6-0.5 0.7-0.6 0-0.2 0.1 0.3 0.4 0.4 0.2 0 1.7-0.5 1.8-1.1 0.1-0.6-0.4-1-1.2-1zm-21.7-64.6c0 0-0.2-0.2-0.4-0.2-0.2 0-0.7 0.4-0.8 0.6-0.1 0.2-0.1 0.5 0.1 0.8 0.2 0.2 0.4 0.4 0.8 0.4 0.3-0.1 0.7-0.6 0.8-0.8 0.1-0.2-0.2-0.7-0.5-0.8zm-20.9 5.3c0 0 0.5 0.2 1 0.5 0.6 0.4 0.9 1.4 0.9 1.4 0 0 0.7-0.2 1.4-0.2 0.7 0.1 1.6 0.5 1.9 0.5 0.2-0.1 0.5-0.5 0.9-1 0.4-0.4 0.9-0.5 1.1-0.6 0.3-0.1 1.4-1.8 3.4-2.9 2.1-1.1 3.9-1.2 5.2-0.9q0.7 0.2 1.3 0.3 1.1-0.3 2.1-0.3c-0.2-0.2-0.6-0.8-1.2-1.2 0 0 1.1-1 0.7-1-2.2 0.3-7.9-0.7-11-1.1-3.1-0.4-5.4 0.4-6.1 0.7-0.6 0.3-1.3 1.1-1.6 1.4-0.4 0.4-0.6 0.5-0.6 1.1 0 0.5 0.3 1.1 0.5 1.6 0.1 0.6 0.1 1.7 0.1 1.7zm55.7 46.3c-0.1-0.1-0.7-0.7-1.2-1-0.4-0.4-0.8-1.2-1-1.7-0.1-0.5-0.2-0.7-0.8-1.1-0.7-0.3-1-0.3-1-0.3 0 0.1 0.4 0.4 0.6 1 0.3 0.6 1.4 1.5 1.4 1.5 0 0-0.8-0.6-1.2-0.9-0.5-0.4-0.6-0.7-0.7-1-0.1-0.2-0.2-0.1-0.2 0.2 0 0.3 0 0.5 0.3 0.8 0.2 0.3 0.2 1 0.5 1.4 0.4 0.3 1.4 0.9 2.1 1 0.7 0.1 1.2 0.2 1.2 0.1z"/>
				<path id="&lt;Compound Path&gt;" fill-rule="evenodd" class="s4" d="m95.8 51.2l32.3 11.8c0 0 2.7 5.5 5.7 8.3 0 0-3.5-0.3-9.9 1.7l-29.8-18.7c1.1-0.9 1.7-3.1 1.7-3.1zm0.4 1.6c-0.2 0.8-0.5 1.1-0.5 1.1l28.2 17.5c0 0 4.7-1.4 6.7-1.4 0 0-2.7-3.9-3.3-5.7z"/>
				<path id="&lt;Compound Path&gt;" fill-rule="evenodd" class="s4" d="m95.9 46.5l15.3-2.4c2.4 2.2 5.9 2.9 5.9 2.9-2.1 1-5.4 4.2-5.4 4.2l-15.7-1.3c0.5-1.6-0.1-3.4-0.1-3.4zm1.2 2.3l13.8 0.9c0 0 2.6-2.1 3.3-2.3 0 0-2.5-1.1-3.1-1.8l-14 1.8c0 0 0.1 0.8 0 1.4z"/>
				<path id="&lt;Compound Path&gt;" fill-rule="evenodd" class="s4" d="m94 42.6l7.5-6.2c1.6 0.3 4.1 0.2 4.1 0.2-0.7 1-1.2 4-1.2 4l-8.9 4.5c-0.2-0.8-1.5-2.5-1.5-2.5zm1.3 0.1c0 0 0.5 0.4 0.5 1l7.5-3.7c0 0 0.3-1.6 0.7-2.3 0 0-1.3 0.1-2.3-0.1z"/>
				<path id="&lt;Compound Path&gt;" fill-rule="evenodd" class="s4" d="m90.4 40.5l0.9-6.5c2-0.3 2.9-1.4 2.9-1.4-0.1 0.9 1.4 2.7 1.4 2.7l-2.9 6.2c-0.5-0.7-2.3-1-2.3-1zm2-0.3l2.2-4.7c0 0-0.7-0.9-0.8-1.6 0 0-0.7 0.6-1.6 0.8l-0.8 5c0 0 0.7 0.3 1 0.5z"/>
				<path id="&lt;Compound Path&gt;" fill-rule="evenodd" class="s4" d="m42.7 71.4c3-2.8 5.7-8.4 5.7-8.4l32.3-11.7c0 0 0.6 2.2 1.7 3l-29.8 18.8c-6.4-2.1-9.9-1.7-9.9-1.7zm3.2-1.3c2 0 6.7 1.4 6.7 1.4l28.2-17.5c0 0-0.3-0.3-0.5-1.1l-31.1 11.5c-0.6 1.8-3.3 5.7-3.3 5.7z"/>
				<path id="&lt;Compound Path&gt;" fill-rule="evenodd" class="s4" d="m64.8 51.2c0 0-3.4-3.1-5.4-4.1 0 0 3.5-0.7 5.9-2.9l15.3 2.4c0 0-0.6 1.8-0.1 3.4zm-2.5-3.8c0.7 0.2 3.2 2.3 3.2 2.3l13.9-1c-0.2-0.5 0-1.3 0-1.3l-14-1.8c-0.6 0.7-3.1 1.8-3.1 1.8z"/>
				<path id="&lt;Compound Path&gt;" fill-rule="evenodd" class="s4" d="m72.3 40.5c0 0-0.5-3-1.2-4 0 0 2.5 0.1 4-0.2l7.6 6.3c0 0-1.3 1.6-1.5 2.4zm0.3-2.9c0.4 0.7 0.8 2.3 0.8 2.3l7.4 3.7c0.1-0.6 0.5-1 0.5-1l-6.3-5.1c-1.1 0.2-2.4 0.1-2.4 0.1z"/>
				<path id="&lt;Compound Path&gt;" fill-rule="evenodd" class="s4" d="m84.2 41.4l-2.5-6.4c0 0 1.7-1.7 1.7-2.6 0 0 0.8 1.1 2.7 1.6l0.5 6.5c0 0-1.8 0.2-2.4 0.9zm-1.4-6.1l1.8 4.8c0.3-0.2 1-0.4 1-0.4l-0.4-5.1c-0.9-0.3-1.5-0.9-1.5-0.9-0.2 0.8-0.9 1.6-0.9 1.6z"/>
			</g>
			<path id="&lt;Path&gt;" class="s1" d="m86 60.9l0.5 4.5 1.2 0.7 1.9 0.1 0.5-5.5"/>
			<path id="&lt;Path&gt;" class="s2" d="m86.1 72.7l0.8-0.3h1.8 0.8 1.9l0.5 1.3-1.2 1-1.5 0.5-2.4-0.4-0.7-0.5-0.6-1.1z"/>
			<g id="&lt;Group&gt;">
				<path id="&lt;Path&gt;" class="s1" d="m90.6 59.2l-0.1 0.7c0 0-0.1 5.2-0.7 6.6-0.2 0.5-0.8 0.6-0.8 0.6l0.9 0.8-2.3 2.2-0.8 2.2 0.6 0.2v1.2l0.2 0.2 0.6 0.1 0.5-0.1 0.1-1.4 0.6-0.6 0.9-0.2 1.3-0.9 1.1-1.2 0.8-1.5 0.4-1.6 0.1-2.2-0.1-1.4-0.8-1.4-1.2-1z"/>
				<path id="&lt;Path&gt;" class="s1" d="m74.3 65.9l-0.8 5.4 9.8 0.8 2.1 0.4 0.7 0.9 0.4-0.1 1.1-2.5 2.5-2.9-1.4-0.9c0 0-0.1 0.4-1.1 0-1.1-0.4-1.2-1.5-1.2-1.5l-0.4-5.6-1.9 0.7-2 1.6-0.2 3.2v1.2z"/>
				<path id="&lt;Path&gt;" class="s4" d="m74 65.6l0.2 0.7c0 0 7.3 0.3 7.8 1 0.6 1.6 2.9 2.9 3 3.7 0.1 2.8 1.5 2.5 1.5 2.5 0 0-1.1-1-0.8-2.6-0.4-0.9-2.3-2.9-2.3-3 0-0.1 0.6-0.4 0.5-0.6-0.1-0.1-0.6 0.3-0.7 0.3-0.2 0-0.8-1.2-0.7-1.3 0-0.1 0.6-0.3 0.7-0.4 0.1-0.2-0.7 0.1-0.9 0-0.2-0.1-0.2-1.3-0.1-1.4 0-0.1 1.1 0.2 1.1 0.1-0.1-0.1-1-0.3-1.1-0.5-0.1-0.2 0.1-1.4 0.1-1.4 0 0 1 0.6 1 0.4 0-0.3-0.5-0.5-0.6-0.8-0.2-0.3 0.6-1 0.8-1 0.2 0 0.5 0.9 0.8 0.9 0.3 0-0.4-1.3-0.2-1.4 0.1-0.2 2.1-0.6 2.1-0.6l0.1 0.3-0.2-1.2c0 0-3.8 1.1-4.4 2.8-0.4 1.2-0.1 4.3-0.2 4.4-1.2-0.4-7.5-0.9-7.5-0.9z"/>
				<path id="&lt;Path&gt;" class="s4" d="m86.5 73.5c0 0 0-2.9 0.4-3.7 0.4-0.8 2.9-1.9 2.9-1.9 0 0-0.7-0.5-1.3-0.5-0.6 0-1.3-0.2-1.8-0.6-0.5-0.5-0.5-1.1-0.5-1.1l-0.3-5.5h0.4l0.4 5.4c0 0-0.2 0.5 0.3 1 0.5 0.5 1.3 0.2 1.7 0.4 0.4 0.2 1.3 0.5 1.4 0.9 0.2 0.3-1.7 2-2 2.4-0.3 0.5-1.4 2.7-1.4 2.7 0 0 0.5-2 1-2.6 0.5-0.6 1.7-2 1.7-2 0 0-2.1 1.2-2.2 1.6-0.1 0.3-0.7 3.5-0.7 3.5z"/>
				<path id="&lt;Path&gt;" class="s4" d="m73.4 70.6c0 0 0 0.4 0 0.8 2.3 0.1 11.9 1 12.2 1.2 0.3 0.2-0.3-0.5-0.3-0.5 0 0-1.2 0.2-1.3 0-0.1-0.3 0-1.8-0.4-1.8-0.4 0.1 0.1 1-0.1 1.4-0.1 0.4-1.6-0.2-1.6-0.2 0 0-0.2-1.6-0.3-1.5-0.4 0.1-0.4 1.4-0.4 1.4 0 0-1.1 0.3-1.3-0.1-0.2-0.3-0.2-1.5-0.6-1.5-0.1 0.3 0 1.2 0 1.2 0 0-1.4 0.2-1.6-0.1-0.3-0.2-0.2-1.5-0.4-1.4-0.3 0.1-0.2 1.4-0.2 1.4 0 0-1.5 0-1.7-0.3-0.2-0.3 0-1.1-0.3-1.5-0.4 0-0.2 1.1-0.2 1.4 0 0.3-1.5 0.1-1.5 0.1z"/>
				<path id="&lt;Path&gt;" class="s4" d="m87.5 72.5c0 0 1.5 0.1 2.8-0.4 1.2-0.5 2.5-1 3.3-3 0.9-2 0.9-3.5 0.7-5.4-0.3-2.4-3.7-4.5-3.7-4.5l-0.2 0.8c0 0 1.9 1.2 1.9 1.5 0.1 0.2-0.5 0.5-0.2 0.7 0.3-0.1 0.4-0.5 0.5-0.5 0.2-0.1 0.8 0.9 0.8 1.2 0 0.2-0.8 0-0.8 0.3 0.1 0.3 0.9-0.2 1 0 0.1 0.2 0 1.3 0 1.3 0 0-0.8-0.2-0.8 0.2 0 0.4 0.8-0.2 0.9 0.1 0.1 0.3 0.1 1.4-0.1 1.4-0.3-0.1-0.9-0.3-0.9 0 0 0.2 0.6 0.2 0.8 0.3 0.1 0.2 0 1.3-0.4 1.3-0.5 0-1.1-0.3-1 0 0 0.4 0.8 0.4 0.8 0.8 0 0.3-0.4 1.3-0.4 1.3 0 0-0.9 0.3-1.1-0.5-0.6 0.2 0.3 1.2 0.3 1.2 0 0-1 0.6-1.1 0.5-0.2-0.2-0.4-1-0.7-1-0.4 0 0.4 1.3 0 1.4-0.3 0-1.2 0.2-1.3 0.2-0.2-0.1-0.5-1.1-0.7-1.1-0.3 0 0.5 1.1 0.2 1.2-0.3 0.1-0.7 0.2-0.7 0.2l-0.2 0.5z"/>
				<path id="&lt;Path&gt;" class="s4" d="m87.5 72.5l1-0.2-0.1-0.3-1.2 0.1-0.1 1.4c0 0 0.5 0.8 1 0.8 0.6 0 0.8-0.6 0.8-0.6l0.1-1.7-0.9 0.1v0.4h0.4l-0.1 1.1c0 0 0 0.3-0.3 0.3-0.4 0-0.5-0.5-0.5-0.5z"/>
			</g>
			<g id="&lt;Group&gt;">
				<path id="&lt;Compound Path&gt;" fill-rule="evenodd" class="s2" d="m16.3 113.8l0.7-2.4c0 0-1.2 0.3-1.9-1.1-0.3-0.8-0.2-1.8 0.5-2.3 0.8-0.6 1.8-0.6 2.4 0.1 0.6 0.5 0.7 1.3 0.7 1.3l0.8-0.2c-0.4-0.6-0.6-2.1 0.9-2.6 1.1-0.3 2 0.2 2.3 1.3 0.4 1.3-0.3 2.1-1.4 2.4l-2.6 0.8-0.8 2.6 6-1.8 0.4 1.5-7.5 2.3zm5.4-5.7c-0.3-0.8-1.5-0.4-1.3 0.4 0.3 0.9 1.5 0.5 1.3-0.4zm-4.2 1.1c-0.2-0.8-1.5-0.4-1.2 0.4 0.2 0.8 1.5 0.4 1.2-0.4z"/>
				<path id="&lt;Compound Path&gt;" fill-rule="evenodd" class="s2" d="m24.4 119.7c0 0 0.3-0.6 1.1-0.6 0.9-0.1 1.5 0.3 1.9 1.1 0.4 0.9 0.2 1.9-0.7 2.4-0.9 0.4-1.6 0-1.6 0 0 0-0.1 0.3-0.3 0.4-0.3 0.3-0.4 0.3-0.7 0.4l-3.3 1.5-0.7-1.4 3.5-1.6c0.3-0.2 0.5-0.3 0.4-0.7-0.1-0.3-0.3-0.3-0.5-0.3l-4.5 0.2-0.8-1.9 4-1.8c-0.4-0.6-0.8-2 0.6-2.7 1-0.5 2 0 2.5 1 0.5 1.2-0.1 2.1-1.1 2.5l-2.9 1.3h2.5c0.1 0 0.2 0 0.3 0 0.2 0.1 0.3 0.2 0.3 0.2zm1.9 0.9c-0.3-0.8-1.5-0.2-1.1 0.6 0.3 0.8 1.5 0.2 1.1-0.6zm-2.1-4.5c-0.4-0.8-1.5-0.3-1.2 0.5 0.4 0.8 1.6 0.3 1.2-0.5z"/>
				<path id="&lt;Compound Path&gt;" class="s2" d="m28.5 125.3c-0.6-0.9-1.3-0.8-2-0.4l-0.2 0.2-0.8-1.4 0.3-0.2c1.4-0.8 2.8-0.7 4 1.2 1.1 1.9 0.4 3-0.8 3.7l-4.6 2.7-0.8-1.4 4.6-2.7c0.6-0.4 0.8-0.9 0.3-1.7z"/>
				<path id="&lt;Compound Path&gt;" fill-rule="evenodd" class="s2" d="m32 132.7c0.7-0.5 0.7-1.3 0.1-2.1-0.9-1-1.8-0.7-2.4-0.2l-0.9-1.2c0.3-0.3 2.3-2 4.4 0.7 1.4 1.9 1 3.1-0.2 4.1l-2.7 1.9c-0.9 0.7-1.9 0.8-2.7-0.3-0.7-0.9-0.6-1.9 0.3-2.6 1.3-0.8 2.3 0.2 2.6 0.8zm-3.6 2.2c0.6 0.7 1.6-0.1 1.1-0.8-0.5-0.7-1.6 0.1-1.1 0.8z"/>
				<path id="&lt;Compound Path&gt;" fill-rule="evenodd" class="s2" d="m32.4 124.7c0 0 0.6 0.3 1.5 0.7 1.4 0.5 2 1.3 2.2 2.7 0.2 1.3 0.5 1.9 0.5 1.9l-1 0.8-4.2-5.3zm2.2 2.3c-0.5-0.6-1.3-0.6-1.3-0.6l1.8 2.2c0 0-0.1-1-0.5-1.6z"/>
				<path id="&lt;Compound Path&gt;" fill-rule="evenodd" class="s2" d="m30.7 139.3l3.3-3c-0.6-0.4-1.4-1.6-0.3-2.7 0.9-0.8 1.9-0.7 2.7 0.2 0.9 1 0.6 2-0.3 2.7l-1.6 1.5-0.7 0.5 4.9-2 1 1c0.4 0.4 0.6 0.8 0.5 1.3-0.2 0.5-0.5 0.8-0.8 1.1l-4.5 4-1.1-1.2 4.4-3.9c0.1-0.1 0.1-0.1 0.2-0.3 0.1-0.2-0.1-0.3-0.1-0.3l-6.2 2.6zm4.8-4.8c-0.6-0.6-1.5 0.3-1 0.9 0.6 0.7 1.6-0.2 1-0.9z"/>
				<path id="&lt;Compound Path&gt;" fill-rule="evenodd" class="s2" d="m41 144c0.4 0.4 0.6 0.5 0.7 0.6l-0.9 0.9c0 0-0.6-0.4-1.1-0.3-0.4 0-0.7 0.1-1.1 0.4l2.2 1.9 4.2-5 1.3 1.1-5.1 5.9-4.9-4.1c0.1 0 0.9-1.2 2-1.5 0.6-0.1 1.1-0.1 1.1-0.1 0 0-1-1.4 0.1-2.9 0.7-1 2.1-1.3 3.2-0.4 1 0.7 1.3 2 0.1 3-1 0.8-2.3-0.2-2.3-0.3 0 0.1 0.1 0.4 0.5 0.8zm-0.5-0.8q0 0 0 0zm1.6-1.7c-0.7-0.6-1.5 0.4-0.8 0.9 0.6 0.6 1.5-0.4 0.8-0.9z"/>
				<path id="&lt;Compound Path&gt;" class="s2" d="m48.1 146.5c-0.8-0.6-1.4-0.1-1.9 0.5l-0.1 0.3-1.3-0.9 0.1-0.3c1-1.3 2.4-1.8 4.2-0.6 1.8 1.2 1.6 2.5 0.8 3.7l-3 4.3-1.4-0.9 3.1-4.4c0.4-0.6 0.4-1.1-0.5-1.7z"/>
				<path id="&lt;Compound Path&gt;" fill-rule="evenodd" class="s2" d="m56 152.7c0.1-0.6 0-1.4-1.2-2.1-1.8-1-2.7-0.1-2.7-0.1l-1.5-0.8c0 0 0.8-1.1 2.4-1 1.4 0 3 0.9 3.8 1.7 1.3 1.5 0.8 2.9 0.4 3.6-0.6 1.1-1.1 1.5-1.8 2.6-0.5 0.7-0.8 1.3-0.8 1.3l-1.7-0.9c0-0.1 0.3-0.8 0.6-1.8 0.4-1.1 0.4-2.4-0.2-2.8-0.6-0.4-1.3 0.2-1.3 0.2 0.1 0.1 1.3 0.5 1.2 1.8-0.1 0.9-1 1.9-2.2 1.6-1.6-0.5-1.8-1.8-1.2-3 0.6-1.2 1.7-2.1 2.9-2.2 1.2-0.1 2.4 0.8 2.5 1.9 0.1 0.7 0 1.5-0.1 1.5 0.1 0 0.7-0.8 0.9-1.5zm-0.9 1.5q0 0 0 0.1 0-0.1 0-0.1zm-3.5-0.5c-0.7-0.4-1.3 0.7-0.6 1.1 0.8 0.5 1.4-0.7 0.6-1.1z"/>
				<path id="&lt;Compound Path&gt;" fill-rule="evenodd" class="s2" d="m60.5 148.9c0.9 0 1.4-0.2 1.5-0.2l0.1 1.2c0 0-1.2 0.4-2.8 0.1-1.2-0.2-2.9-0.7-2.9-2 0.1-0.8 1-1.8 2.3-1.1 1.2 0.7 0.5 1.9 0.5 1.9 0 0 0.6 0.1 1.3 0.1zm-2.3-1.2c-0.6-0.4-1.1 0.5-0.5 0.9 0.6 0.3 1.1-0.6 0.5-0.9z"/>
				<path id="&lt;Compound Path&gt;" fill-rule="evenodd" class="s2" d="m60.9 156.4c0.4 0.2 0.7 0.3 0.7 0.3l-0.4 1.1c0 0-0.7-0.2-1.2 0.1-0.4 0.2-0.7 0.3-0.9 0.7l2.7 1.1 2.4-6 1.5 0.6-2.9 7.3-5.9-2.4c0-0.1 0.4-1.4 1.3-2 0.5-0.4 1.1-0.5 1.1-0.5 0 0-1.4-1-0.9-2.8 0.4-1.2 1.6-1.9 3-1.4 1.1 0.4 1.8 1.5 1 2.7-0.7 1.2-2.3 0.6-2.3 0.6 0 0 0.3 0.3 0.8 0.6zm0.2-2.8c-0.8-0.3-1.3 0.9-0.5 1.2 0.8 0.3 1.3-0.9 0.5-1.2z"/>
				<path id="&lt;Compound Path&gt;" fill-rule="evenodd" class="s2" d="m68.3 155l-1.3 4.2c0.7 0 2 0.7 1.6 2.2-0.3 1.1-1.3 1.5-2.4 1.2-1.2-0.4-1.5-1.4-1.2-2.5l1.7-5.6zm-1.6 6.5c0.8 0.3 1.2-1 0.3-1.2-0.8-0.2-1.1 1-0.3 1.2z"/>
				<path id="&lt;Compound Path&gt;" fill-rule="evenodd" class="s2" d="m76.2 159.2l-1 5.1-5.8-1.2 0.4-2c0.1-0.5 0.2-0.8 0.5-1.1 0.3-0.4 0.7-0.6 1.3-0.7 0.8-0.2 0.6-0.4 0.6-0.4 0 0-0.5 0.4-1.6-0.1-0.6-0.2-1.1-0.9-0.9-1.8 0.2-1 1.1-1.6 2.2-1.4 1.9 0.3 2.4 1.9 2.1 3-0.5 1.7-2.3 1.6-2.6 2.6l-0.1 0.9 2.5 0.6 0.8-3.8c0.1-0.3 0.1-0.4 0.1-0.7-0.1-0.5-0.6-0.8-0.7-0.8l1.6-1.4 1.8 0.4-1.4 1.2c0 0 0.3 0.4 0.3 0.7 0 0.4 0 0.6-0.1 0.9zm-4-0.3q0 0 0 0 0 0 0 0zm-0.6-2.2c-0.8-0.2-1.1 1.1-0.2 1.3 0.8 0.1 1.1-1.1 0.2-1.3z"/>
				<path id="&lt;Compound Path&gt;" fill-rule="evenodd" class="s2" d="m75.8 153l0.3-1.2 1.6 0.4-0.7 3.2-6.6-1.5 0.3-1.3c0 0 1-0.3 2.3-0.6 1.7-0.3 2.8 1 2.8 1zm-2 0c-0.7-0.1-1.3 0.4-1.3 0.4l2.7 0.6c0-0.1-0.7-0.8-1.4-1z"/>
				<path id="&lt;Compound Path&gt;" fill-rule="evenodd" class="s2" d="m79.8 160.9c0.5 0.1 0.8 0.1 0.8 0.1l-0.1 1.2c-0.1 0-0.8 0-1.2 0.4-0.3 0.3-0.5 0.5-0.6 0.9l2.9 0.3 0.6-6.4 1.6 0.1-0.8 7.8-6.3-0.6c0-0.1 0-1.4 0.8-2.3 0.3-0.5 0.8-0.7 0.9-0.8-0.1 0-1.7-0.6-1.6-2.4 0-1.2 0.9-2.3 2.3-2.2 1.2 0.1 2.2 0.9 1.8 2.4-0.3 1.3-2 1.2-2 1.2 0 0 0.3 0.2 0.9 0.3zm-0.6-2.7c-0.9-0.1-1 1.2-0.1 1.3 0.8 0 0.9-1.3 0.1-1.3z"/>
				<path id="&lt;Compound Path&gt;" fill-rule="evenodd" class="s2" d="m86.2 165.2c0 0-0.2-1.8-0.8-3.6-0.6-1.9-1.1-2.3-1.1-2.4l1.3-1.3c0 0 0.6 1 1.2 3.3 0.4 1.3 0.7 2.6 0.7 2.7h1.5v-3.1c-0.7 0.2-2.1 0-2.2-1.6 0-1.1 0.8-1.9 1.9-1.9 1.4 0.1 1.9 0.9 1.9 2.1v5.8zm2.5-6.7c-0.9 0-0.9 1.3 0 1.2 0.8 0 0.8-1.2 0-1.2z"/>
				<path id="&lt;Compound Path&gt;" fill-rule="evenodd" class="s2" d="m92.2 153.6c-0.4-0.1-0.6 0-0.6 0 0 0 1 0.5 0.5 1.8-0.2 0.6-1.3 0.8-1.8 0.6-0.9-0.4-1.1-1.6-0.7-2.4 0.6-1.2 2.4-1.4 3.3-1.1 1.1 0.4 1.4 1.1 1.5 2.1l0.7 6.7c0.6-0.2 2.1-0.1 2.3 1.4 0.1 1.2-0.6 1.9-1.7 2.1-1.4 0.1-2-0.7-2.1-1.9l-0.9-8.6q0-0.5-0.5-0.7zm3.4 10c0.9-0.1 0.7-1.4-0.1-1.3-0.9 0.1-0.7 1.4 0.1 1.3zm-4.8-9.3c-0.6 0.1-0.5 1 0.1 1 0.7-0.1 0.6-1.1-0.1-1z"/>
				<path id="&lt;Compound Path&gt;" fill-rule="evenodd" class="s2" d="m102.2 158.1c0 0-0.5-0.4-0.4-1.3 0.1-0.8 0.7-1.3 1.5-1.5 1-0.3 2 0.1 2.2 1.1 0.3 1-0.2 1.6-0.3 1.6 0.1 0 0.3 0.1 0.4 0.4 0.2 0.3 0.2 0.4 0.3 0.8l0.7 3.5-1.5 0.3-0.9-3.8c0-0.2-0.1-0.5-0.5-0.4-0.3 0-0.4 0.2-0.4 0.4l-0.8 4.4-2.1 0.4-0.9-4.3c-0.6 0.3-2.1 0.4-2.5-1.1-0.2-1.1 0.4-2 1.5-2.2 1.3-0.3 2 0.5 2.3 1.6l0.7 3.1 0.4-2.5c0-0.1 0.1-0.2 0.1-0.3 0.1-0.1 0.2-0.2 0.2-0.2zm1.4-1.7c-0.9 0.2-0.6 1.4 0.3 1.2 0.8-0.2 0.5-1.4-0.3-1.2zm-4.9 1.1c-0.9 0.2-0.6 1.5 0.3 1.3 0.8-0.2 0.5-1.5-0.3-1.3z"/>
				<path id="&lt;Compound Path&gt;" fill-rule="evenodd" class="s2" d="m114.2 160l-2.4-0.6c0 0 0.3 1.2-1 2-0.8 0.4-1.7 0.4-2.3-0.3-0.7-0.7-0.7-1.8-0.1-2.5 0.5-0.5 1.3-0.6 1.3-0.6l-0.3-0.8c-0.6 0.3-2 0.6-2.6-0.8-0.4-1.1 0.1-2 1.2-2.4 1.2-0.5 2 0.2 2.4 1.2l1 2.6 2.6 0.6-2.2-5.8 1.6-0.6 2.7 7.4zm-6-5c-0.8 0.3-0.3 1.5 0.5 1.2 0.8-0.3 0.3-1.5-0.5-1.2zm1.3 4.1c-0.8 0.3-0.3 1.5 0.5 1.2 0.8-0.3 0.3-1.5-0.5-1.2z"/>
				<path id="&lt;Compound Path&gt;" class="s2" d="m110.4 151.6l-1.1-2.4 1.5-0.7 1.1 2.5z"/>
				<path id="&lt;Compound Path&gt;" fill-rule="evenodd" class="s2" d="m126.5 153.8l-2.9-2.5 0.8 3.8-1.8 1-2.2-3.7c-0.5 0.4-1.9 1-2.7-0.4-0.6-0.9-0.3-1.9 0.7-2.5 1.2-0.7 2.1-0.2 2.6 0.8l0.9 1.4 0.5 1-1-5 4 3.2-0.7-0.9-1.8-3.1 1.4-0.9 4 6.8zm-7.6-3.3c-0.8 0.4-0.1 1.5 0.6 1.1 0.8-0.5 0.1-1.6-0.6-1.1z"/>
				<path id="&lt;Compound Path&gt;" class="s2" d="m130.9 150.8c-1 0.7-2-0.8-1.1-1.5 1-0.7 2 0.8 1.1 1.5z"/>
				<path id="&lt;Compound Path&gt;" fill-rule="evenodd" class="s2" d="m131.4 140.3l-0.1-0.9 1.7-1.4v1.7c0 0 0.4-0.1 0.9 0.1 0.4 0.2 0.6 0.3 0.9 0.6l3.6 4.2-1.2 1-3.4-3.8c-0.6-0.7-1.4-0.9-2.5 0.1-1 0.9-0.8 2-0.1 2.6 0.8 0.8 1.4 1.2 1.4 1.2-0.1-0.1-0.7-0.9-0.9-1.6-0.4-1.2 0.5-1.9 1.2-2 0.8-0.2 1.8 0.8 1.5 1.8-0.2 0.6-0.9 0.9-0.9 0.9 0 0 0.3 0.6 0.8 1.3 0.5 0.7 0.8 1.3 0.9 1.3l-1.6 1.4c0-0.1 0-0.4-1.2-1.3-1.2-0.9-2.1-1.3-2.8-2.5-0.8-1.2-0.6-2.6 0.8-3.9 0.6-0.6 1-0.7 1-0.8zm1.2 2.7c-0.6 0.5 0.2 1.4 0.8 0.9 0.6-0.5-0.2-1.4-0.8-0.9z"/>
				<path id="&lt;Compound Path&gt;" class="s2" d="m140.6 142.3c-0.9 0.8-2.1-0.4-1.3-1.3 0.8-0.8 2.1 0.4 1.3 1.3z"/>
				<path id="&lt;Compound Path&gt;" fill-rule="evenodd" class="s2" d="m142.5 133l-0.1 0.7-0.8 0.3c0 0-0.1 0.1 0 0.3 0 0 0.1 0.2 0.2 0.2 0 0 0.7-1.1 1.7-0.6 0.8 0.5 1 1.4 0.4 2.2-0.6 0.8-1.7 1-2.9-0.1-1.3-1.3-0.3-2.7-0.3-2.7l1-0.2v-1c0-0.1 0.5-0.6 0.9-0.7 0.6-0.2 1.1 0 1.5 0.3l1.7 1.4c0.4 0.3 0.7 0.7 0.8 1.2 0.1 0.5 0 0.9-0.3 1.3l-2.5 3.1c-0.3 0.4-0.7 0.7-1.2 0.7-0.5 0.1-1-0.1-1.4-0.5l-3-2.3c-0.2-0.2-0.5-0.4-0.8-0.4-0.3-0.1-0.6 0-0.6 0l0.2-1.6c0 0 0.3-0.2 0.8-0.1 0.4 0 0.7 0.2 0.9 0.4l3.1 2.5c0.3 0.2 0.4 0.4 0.7 0.4 0.4 0 0.7-0.1 0.9-0.4l1.4-1.7c0.2-0.2 0.3-0.4 0.3-0.8q0-0.4-0.4-0.6l-1.6-1.3q-0.1-0.1-0.3-0.1c-0.2-0.1-0.2 0-0.3 0.1zm0 1.9c-0.4 0.5 0.3 1.1 0.7 0.6 0.4-0.5-0.3-1-0.7-0.6z"/>
				<path id="&lt;Compound Path&gt;" fill-rule="evenodd" class="s2" d="m146.3 123.2c-0.4-0.6-0.8-0.8-0.8-0.9l1.5-0.5c0.1 0 0.8 0.6 0.9 1.6 0.1 0.9 0 1.1-0.3 1.9-0.5 1.3-1.8 2.5-1.1 3.2 0.5 0.6 1.8 1.4 2.4 0.8 0.4-0.3 0.6-0.9 0.6-0.9 0 0-1.1 0.6-1.9-0.4-0.5-0.7-0.4-1.4 0-2 0.6-0.7 1.4-0.8 2.1-0.4 0.7 0.4 0.7 0.9 0.7 0.9 0 0 0.2-0.1 0.4-0.3 0.3-0.2 0.5-0.5 0.5-0.5l0.8 1c0 0-0.2 0.4-0.6 0.8-0.3 0.2-0.7 0.4-0.7 0.4 0 0 0.3 1.2-1.3 2.9-0.7 0.7-1.7 0.5-2.9-0.2-0.9-0.5-1.8-1.1-1.8-2.2 0-1 0.5-1.6 0.5-1.6 0 0-0.7 0-1.2-0.8-0.4-0.7 0.1-1.7 0.6-2 1-0.8 1.7-0.1 1.7 0 0 0 0-0.5-0.1-0.8zm2.1 3.5c-0.4 0.6 0.6 1.2 0.9 0.5 0.4-0.6-0.5-1.2-0.9-0.5zm-3.3-1.7c-0.3 0.6 0.6 1.1 0.9 0.5 0.3-0.6-0.6-1.1-0.9-0.5z"/>
				<path id="&lt;Compound Path&gt;" fill-rule="evenodd" class="s2" d="m149.9 118.1c0.8-2.1 2.4-2.8 4.1-2.1 1.6 0.7 2.2 2.3 1.3 4.4-0.9 2.1-2.5 2.7-4.1 2-1.7-0.7-2.2-2.3-1.3-4.3zm2 2.8c0.9 0.4 1.9 0.2 2.4-0.9 0.5-1.2-0.1-2-1-2.4-0.9-0.4-1.9-0.3-2.4 0.9-0.5 1.2 0.1 2 1 2.4z"/>
				<path id="&lt;Compound Path&gt;" fill-rule="evenodd" class="s2" d="m157.6 108q0 0 0 0 0 0 0 0zm-1-0.9c-1.4-0.5-2.8-0.4-3.8-1-0.7-0.3-1-0.8-1-0.8l1.3-1.1c0 0 0.1 0.4 0.6 0.6 1.5 0.6 2.6 0.4 3.9 1.1 1 0.6 1.5 1.5 1.4 2.5 0 0.8-0.4 1.9-0.4 2 0 0-0.5-0.7-2-1.3-1.4-0.6-2-0.2-2-0.2l0.7 1.4-1.4 1c0 0 0.1 0.3 0.4 0.5 0.5 0.3 0.9 0.2 1 0.2 0 0-0.2-1.5 1.1-1.7 0.9-0.2 2 0.4 1.8 1.8-0.2 1.1-0.9 1.8-2 1.9-1 0-2.5-0.4-3.2-1.1-1-1-0.5-2.1-0.5-2.1l1.2-0.9-0.6-1.4c0 0 0.4-1.2 1.7-1.3 1.3-0.2 2.7 0.8 2.8 0.8 0 0-0.1-0.5-1-0.9zm-0.3 4.6c-0.2 0.6 0.8 0.8 0.9 0.2 0.2-0.6-0.7-0.9-0.9-0.2z"/>
			</g>
		</g>
	</g>
</svg>