<svg class="main-svg" xmlns="http://www.w3.org/2000/svg" xmlns:xlink="http://www.w3.org/1999/xlink" width="1164" height="600" style="" viewBox="0 0 1164 600"><rect x="0" y="0" width="1164" height="600" style="fill: rgb(255, 255, 255); fill-opacity: 1;"/><defs id="defs-952afa"><g class="clips"><clipPath id="clip952afaxyplot" class="plotclip"><rect width="931" height="420"/></clipPath><clipPath class="axesclip" id="clip952afax"><rect x="80" y="0" width="931" height="600"/></clipPath><clipPath class="axesclip" id="clip952afay"><rect x="0" y="100" width="1164" height="420"/></clipPath><clipPath class="axesclip" id="clip952afaxy"><rect x="80" y="100" width="931" height="420"/></clipPath></g><g class="gradients"/><g class="patterns"/></defs><g class="bglayer"><rect class="bg" x="80" y="100" width="931" height="420" style="fill: rgb(229, 236, 246); fill-opacity: 1; stroke-width: 0;"/></g><g class="layer-below"><g class="imagelayer"/><g class="shapelayer"/></g><g class="cartesianlayer"><g class="subplot xy"><g class="layer-subplot"><g class="shapelayer"/><g class="imagelayer"/></g><g class="minor-gridlayer"><g class="x"/><g class="y"/></g><g class="gridlayer"><g class="x"><path class="xgrid crisp" transform="translate(126.27000000000001,0)" d="M0,100v420" style="stroke: rgb(255, 255, 255); stroke-opacity: 1; stroke-width: 1px;"/><path class="xgrid crisp" transform="translate(215.12,0)" d="M0,100v420" style="stroke: rgb(255, 255, 255); stroke-opacity: 1; stroke-width: 1px;"/><path class="xgrid crisp" transform="translate(303.96000000000004,0)" d="M0,100v420" style="stroke: rgb(255, 255, 255); stroke-opacity: 1; stroke-width: 1px;"/><path class="xgrid crisp" transform="translate(392.8,0)" d="M0,100v420" style="stroke: rgb(255, 255, 255); stroke-opacity: 1; stroke-width: 1px;"/><path class="xgrid crisp" transform="translate(481.64,0)" d="M0,100v420" style="stroke: rgb(255, 255, 255); stroke-opacity: 1; stroke-width: 1px;"/><path class="xgrid crisp" transform="translate(570.49,0)" d="M0,100v420" style="stroke: rgb(255, 255, 255); stroke-opacity: 1; stroke-width: 1px;"/><path class="xgrid crisp" transform="translate(659.33,0)" d="M0,100v420" style="stroke: rgb(255, 255, 255); stroke-opacity: 1; stroke-width: 1px;"/><path class="xgrid crisp" transform="translate(748.17,0)" d="M0,100v420" style="stroke: rgb(255, 255, 255); stroke-opacity: 1; stroke-width: 1px;"/><path class="xgrid crisp" transform="translate(837.02,0)" d="M0,100v420" style="stroke: rgb(255, 255, 255); stroke-opacity: 1; stroke-width: 1px;"/><path class="xgrid crisp" transform="translate(925.86,0)" d="M0,100v420" style="stroke: rgb(255, 255, 255); stroke-opacity: 1; stroke-width: 1px;"/></g><g class="y"><path class="ygrid crisp" transform="translate(0,477.15)" d="M80,0h931" style="stroke: rgb(255, 255, 255); stroke-opacity: 1; stroke-width: 1px;"/><path class="ygrid crisp" transform="translate(0,406.19)" d="M80,0h931" style="stroke: rgb(255, 255, 255); stroke-opacity: 1; stroke-width: 1px;"/><path class="ygrid crisp" transform="translate(0,335.22)" d="M80,0h931" style="stroke: rgb(255, 255, 255); stroke-opacity: 1; stroke-width: 1px;"/><path class="ygrid crisp" transform="translate(0,264.25)" d="M80,0h931" style="stroke: rgb(255, 255, 255); stroke-opacity: 1; stroke-width: 1px;"/><path class="ygrid crisp" transform="translate(0,193.29000000000002)" d="M80,0h931" style="stroke: rgb(255, 255, 255); stroke-opacity: 1; stroke-width: 1px;"/><path class="ygrid crisp" transform="translate(0,122.32)" d="M80,0h931" style="stroke: rgb(255, 255, 255); stroke-opacity: 1; stroke-width: 1px;"/></g></g><g class="zerolinelayer"/><path class="xlines-below"/><path class="ylines-below"/><g class="overlines-below"/><g class="xaxislayer-below"/><g class="yaxislayer-below"/><g class="overaxes-below"/><g class="plot" transform="translate(80,100)" clip-path="url(#clip952afaxyplot)"><g class="scatterlayer mlayer"><g class="trace scatter trace5acdd5" style="stroke-miterlimit: 2; opacity: 1;"><g class="fills"/><g class="errorbars"/><g class="lines"><path class="js-line" d="M0,377.15L1.06,378.1L1.32,378.05L1.59,378.97L2.12,378.28L2.38,378.14L4.76,375.29L5.02,375.51L5.29,375.89L6.35,379.02L6.61,378.33L6.87,378.11L7.14,378.38L7.4,377.35L7.67,365.27L8.2,367.52L8.46,366.01L8.73,366.17L8.99,364.89L9.52,367.23L9.78,365.47L10.31,363.28L10.58,363.73L10.84,363.71L11.11,365.14L11.37,363.78L11.63,362.95L12.96,375.97L13.22,373.09L13.75,378.1L14.28,376.9L14.54,377.19L15.6,374.96L15.86,375.98L16.13,375.13L16.39,376.19L16.66,375.61L16.92,376.52L17.19,376.04L17.45,377.53L17.72,377.93L17.98,376.73L18.51,379.58L18.77,379.03L19.04,378.32L19.57,380.19L19.83,378.56L20.1,378.83L20.62,378.44L20.89,381.73L21.68,380.68L21.95,381.79L23.27,378.2L23.53,379.51L23.8,379.2L24.06,378.91L24.33,381.1L24.85,381.73L25.12,380.24L25.38,380.14L25.65,379.02L26.18,379L26.44,378.36L27.23,376.98L27.5,377.92L29.09,379.97L29.35,379.44L29.88,378.59L30.14,379.3L30.41,379.82L30.67,377.26L30.94,377.37L31.2,382.54L31.47,383.73L31.99,383.2L32.26,383.26L33.05,383.52L33.32,384.25L34.37,381.82L34.64,382.17L34.9,382.55L35.17,382.34L35.43,380.18L36.22,380.28L36.49,379.49L36.75,384.8L37.02,381.67L37.28,380.27L38.08,376.33L38.34,376.88L38.6,376.58L38.87,376.5L39.13,375.26L40.19,377.13L40.46,377.61L41.51,377.67L41.78,377.77L42.04,376.55L42.57,377.6L42.83,377.87L43.63,377.61L43.89,377.89L44.95,379.61L45.21,379.01L45.48,378.67L47.07,377.19L47.33,378.93L48.65,380.3L48.92,382.09L49.45,381.63L49.71,379.42L50.5,379.23L50.77,379.48L51.56,378.73L51.83,379.21L52.09,379.54L52.35,379.28L52.62,380.64L53.41,378.86L53.68,378.9L54.73,382.25L55,386.55L55.26,386.55L55.53,388.03L55.79,388.43L56.06,387.03L56.58,388.73L56.85,391.36L57.64,388.75L57.91,389.96L58.17,388.71L58.7,389.13L58.96,389.46L59.23,388.95L59.49,386.72L60.02,388.31L60.29,387.22L60.55,386.58L61.34,384.87L61.61,387.01L62.14,390.02L62.67,389.7L62.93,390.14L63.99,389.43L64.25,390.46L65.31,388.91L65.57,389.5L66.1,394.41L66.37,392.87L66.63,393.37L67.16,393.88L67.43,392.73L67.95,389.68L68.22,390.57L68.48,391.02L69.01,391.81L69.28,395.47L69.81,396.75L70.07,395.72L70.33,394.71L71.13,394.28L71.39,393.48L71.92,395.57L72.18,393.79L72.45,394.59L72.71,394.9L72.98,394.04L73.77,395.69L74.04,398.2L74.56,395.39L75.09,395.95L75.36,396.95L75.89,399L76.42,398.6L76.68,398.11L78.53,396.27L78.8,397.31L79.59,397.21L79.85,395.15L80.38,397.07L80.65,396.62L80.91,396.15L81.17,394.39L81.44,395.33L81.7,396.95L81.97,397.33L82.23,395.77L82.76,396.95L83.03,396.48L83.29,393.23L83.55,393.04L83.82,395.59L85.14,394.3L85.41,394.45L86.46,395.63L86.73,395.47L88.05,395.17L88.31,393.9L89.9,394.83L90.17,394.57L90.69,394.65L90.96,393.56L92.28,394.1L92.54,393.93L93.34,393.71L93.6,394.23L93.87,394.76L94.13,393.41L94.66,392.68L94.92,392.16L95.98,389.66L96.25,390.4L96.51,391.44L98.1,389.14L98.36,382.12L98.63,383.6L99.16,383.26L99.42,383.07L99.95,383.47L100.21,382.09L100.48,382.31L100.74,380.14L101.01,382.32L101.53,380.93L101.8,377.64L102.33,378.69L102.59,378.23L102.86,376.28L103.39,379.25L103.65,378.26L103.91,377.93L104.71,380.51L104.97,380.41L105.24,378.72L106.82,383.01L107.09,381.91L107.62,380.01L107.88,382.01L108.15,384.1L108.41,381.8L108.67,382.85L108.94,382.54L110,382.41L110.26,381.49L111.05,378.96L111.32,379.39L111.58,380.62L111.85,379.36L112.11,382.26L112.38,380.11L112.9,380.91L113.17,381.9L113.43,383.04L113.7,382.65L113.96,381.84L115.28,384.41L115.55,383.2L115.81,383.82L116.08,382.81L116.34,386.01L116.61,386.78L116.87,386L117.14,385.49L117.93,384.8L118.19,385.29L118.46,385.04L118.72,383.57L119.51,383.4L119.78,381.54L120.57,382.55L120.84,381.98L121.1,380.97L121.63,382.39L121.89,381.95L122.16,380.83L122.42,381.65L122.69,381.43L122.95,377.32L123.48,375.21L123.75,375.73L124.01,375.23L124.27,375.84L124.54,369.47L124.8,367.97L125.33,369.13L125.6,371.81L125.86,370.82L126.13,371.52L126.39,372.09L126.65,372.71L127.18,372.43L127.45,371.86L127.71,372.29L127.98,371.66L128.24,371.33L129.3,374L129.56,372.86L129.83,373.17L130.62,371.23L130.88,371.61L131.15,370.17L131.94,371.03L132.21,370.06L133.53,364.45L133.79,364.88L134.85,367.3L135.12,366.25L135.64,368.02L135.91,367.24L136.17,366.04L136.44,363.94L136.7,364.07L136.97,367.61L137.23,367.89L137.5,367.36L137.76,366.91L138.02,367.53L138.29,367.01L138.55,366.13L139.08,368.01L139.35,366.99L139.61,365.84L140.67,367.15L140.93,361.01L141.2,361.56L141.46,359.84L142.25,352.15L142.78,352.26L143.05,354.8L143.58,354.45L143.84,357.34L144.11,356.7L144.37,355.45L144.63,355.52L144.9,357.09L147.01,344.4L147.28,325.86L147.54,329.76L147.81,324.05L148.07,320.84L148.34,311.38L148.86,316.54L149.13,321.16L149.66,321.78L149.92,319.4L150.98,312.96L151.24,315.96L151.51,316.97L151.77,328.56L152.04,326.23L152.57,326.73L152.83,326.76L153.1,328.62L153.36,324.31L153.62,322.73L153.89,325.8L154.42,321.24L154.68,322.73L154.95,323.83L155.21,321.89L155.48,324.59L155.74,323.56L156,327.67L157.59,322.15L157.85,318.78L158.12,317.8L158.38,323.87L158.65,321.95L159.18,322.41L159.44,323.38L159.97,323.26L160.23,324.64L161.29,318.12L161.56,319.39L161.82,322.66L162.35,315.7L162.61,316.14L162.88,318.36L164.47,328.42L164.73,331.71L165.79,324.68L166.05,324.98L166.32,323.23L166.58,324.36L166.84,326.21L167.11,330.14L167.37,326.48L167.64,325.63L168.43,323.23L168.7,327.71L170.02,322.23L170.28,321.28L171.34,330.73L171.6,330.68L172.4,326.8L172.66,328L172.93,327.15L174.25,323.05L174.51,323.75L174.78,324.32L175.04,323.56L175.31,323.6L176.1,323.24L176.36,325.55L177.16,322.84L177.42,323.63L178.21,325.34L178.48,324.73L178.74,323.82L179.8,326.73L180.07,326.11L180.33,326.92L180.59,326.2L180.86,325.79L181.92,323.32L182.18,324.31L183.24,320.89L183.5,321.56L183.77,322.52L184.03,320.8L184.3,319.78L185.09,321.28L185.35,318.29L186.68,323.88L186.94,323.23L187.2,324.03L187.73,323.67L188,318.74L188.79,317.69L189.06,318.46L189.85,316.92L190.11,318.73L190.38,321.63L190.91,319.75L191.17,319.94L191.44,318.05L191.96,319.02L192.23,318.29L192.49,318.53L192.76,320.58L193.02,322.64L193.55,321.27L193.82,322.37L194.08,323.7L194.34,320.52L194.87,320.27L195.14,318.86L196.19,323.94L196.46,321.26L196.72,321.89L196.99,320.5L197.52,319.04L197.78,320.95L198.31,318.86L198.57,319.15L198.84,319.93L199.9,322.68L200.16,321.9L200.43,321.82L200.95,321.32L201.22,323.51L201.75,318.38L202.01,321.42L202.28,325.9L202.81,322.82L203.07,321.2L203.86,310.02L204.13,311.29L204.39,312.48L205.45,305.91L205.71,307.39L205.98,309.41L206.24,312.99L206.77,311.36L207.04,311.04L208.09,309.5L208.36,312.92L208.89,317.6L209.15,317.36L209.42,315.57L209.94,313.09L210.21,314.92L210.47,314.69L210.74,316.77L211,314.7L211.27,319.85L212.06,317.59L212.32,320.47L212.59,318.13L213.12,318.83L213.38,319.9L213.91,322.1L214.17,322.03L214.44,320.48L215.23,316.25L215.5,316.74L215.76,319.46L217.08,314.83L217.35,314.3L217.61,315.19L217.88,313.52L218.14,314.16L218.67,314.62L220.26,310.27L220.52,311.1L220.79,310.33L221.31,310.93L221.58,311.39L221.84,311.15L222.11,309.13L222.37,309L222.64,310.04L223.17,308.99L223.43,304.86L223.96,306.27L224.22,304.24L224.49,304.49L224.75,298.35L225.54,300.49L225.81,298.17L226.07,301.04L226.34,299.14L226.6,298.45L227.13,298.56L227.4,304.33L228.45,298.82L228.72,299.01L228.98,299.43L229.25,299.37L229.51,303.97L230.3,297.4L230.57,300.05L231.1,299.45L231.36,301.68L231.63,301.82L231.89,300.88L233.21,296.09L233.48,294.57L233.74,294.66L234.01,289.25L234.53,294.16L235.06,293.95L235.33,291.44L235.59,292.03L235.86,291.89L236.12,290.02L236.39,290.43L236.65,293.88L236.91,293.99L237.18,296.73L238.24,293.24L238.5,294.47L238.77,295.05L239.03,298.01L239.29,300.65L239.82,298.57L240.09,299.62L240.35,299.09L240.62,302.31L240.88,303.67L241.15,300.72L241.94,291.55L242.2,293.93L242.47,296.92L243,295.41L243.26,295.23L244.32,297.47L244.58,296.65L244.85,297.73L245.11,297.29L245.38,296.21L246.43,295.12L246.7,296.51L246.96,296.54L247.23,293.59L247.49,295.48L247.76,292.97L248.02,292.89L248.55,294.74L248.81,293.05L249.08,294L249.34,291.49L249.61,290.92L249.87,285.83L250.4,282.55L250.66,284.95L250.93,282.22L251.19,286.08L251.46,283.7L251.72,282.68L252.51,283.97L252.78,281.45L253.04,269.7L253.57,279.47L253.84,276.76L254.1,282.28L254.37,280.18L254.63,277.43L256.22,260.77L256.48,262.78L256.75,260.92L257.01,261.94L257.27,266.03L257.54,268.54L258.07,266.57L258.33,266.83L258.6,264.6L258.86,265.58L259.13,269.11L259.65,267.25L259.92,264.56L260.71,266.14L260.98,265.64L261.24,264.87L262.03,266.71L262.3,271.77L262.56,271.06L262.83,272.2L263.09,272.33L263.62,270.68L263.88,271.26L264.15,272.13L265.21,269.69L265.47,268.81L266.26,264.25L266.53,266.62L267.06,265.4L267.32,268.67L267.85,271.19L268.12,268.99L268.38,274.95L268.91,273.63L269.17,271.79L269.44,272.12L269.7,270.74L270.23,269.21L270.5,269.79L270.76,271.03L271.29,271.44L271.55,272.39L272.08,270.19L272.35,270.58L272.61,271.57L272.87,271.73L273.14,270.95L273.4,271.83L273.67,271.14L273.93,270.1L274.2,270.18L274.46,272.75L274.99,269.25L275.25,269.89L275.52,275.21L275.78,275.46L276.05,274.98L276.31,274.9L277.37,272.49L277.63,275.56L278.69,269L278.96,271.24L279.22,273.58L279.75,270.08L280.01,272.26L280.28,278.29L280.81,279.29L281.07,283.4L282.39,275.83L282.66,276.27L283.19,273.65L283.45,277.15L283.72,275.92L283.98,279.97L284.24,279.99L284.51,277.47L284.77,275.18L285.04,280.23L285.3,278.25L285.57,282.44L285.83,295.66L286.36,293.14L286.62,289.58L286.89,288.58L287.42,288.85L287.68,289.88L288.21,290.39L288.74,286.67L289,286.8L289.27,287.1L290.85,276.46L291.12,278.27L292.44,266.22L292.71,267.24L292.97,267.07L293.76,261.97L294.03,265.54L294.82,266.33L295.09,265.46L295.35,264.21L295.61,265.19L295.88,268.64L296.14,268.41L296.41,269.5L296.67,266.94L296.94,269.91L297.2,274.14L297.47,274.65L297.73,280.94L297.99,278.31L298.26,281.69L298.52,284.41L299.32,290.39L299.58,286.65L299.84,287.58L300.11,283.79L300.37,281.66L300.9,282.77L301.17,283.39L301.7,282.92L301.96,285.3L302.22,283.16L302.49,283.9L302.75,285.42L303.28,284.5L303.55,287.15L304.08,294.37L304.34,293.93L304.6,286.38L304.87,286.33L305.13,288.28L306.19,283.84L306.46,286.32L306.98,286.66L307.25,289.04L307.51,289.09L307.78,290.56L308.04,292.2L308.31,288.98L309.1,286.97L309.36,288.46L309.89,288.8L310.16,287.22L310.42,284.59L311.21,282.86L311.48,283.1L311.74,284.09L312.27,285.18L312.54,284L313.33,286.79L313.59,285.22L315.18,283.88L315.45,285.74L316.24,286.55L316.5,286.52L317.83,279.64L318.09,280.11L318.35,279.6L318.62,280.43L318.88,274.66L319.15,275.52L319.41,275.09L319.68,274.36L320.47,277.33L320.73,275.88L321.79,271.83L322.06,273.96L322.58,275.85L322.85,271.29L323.11,270.34L323.38,273.9L323.64,260.15L324.17,264.17L324.44,264.91L324.7,269.08L325.23,268.95L325.49,264.18L325.76,258.86L326.02,264.33L326.29,262.79L326.55,263.51L327.34,268.5L327.61,265.21L328.14,264.89L328.4,268.17L328.67,266.97L329.19,273.79L329.46,266.73L329.72,267.84L329.99,282.25L330.25,285.34L330.52,282.98L330.78,281.45L331.05,284.97L331.31,299.73L331.57,303.54L331.84,296.69L332.1,297.15L332.9,287.59L333.16,289.91L333.43,287.73L333.69,289.81L333.95,286.21L334.22,284.75L334.48,284.19L334.75,287.21L335.28,285.52L335.54,288.36L336.33,285.82L336.6,278.66L337.39,273.44L337.66,276.34L338.18,278.16L338.45,275.38L339.77,278.53L340.04,277.4L340.56,273.57L340.83,276.84L341.09,279.23L342.15,284.4L342.42,282.42L342.68,281.1L343.74,278.77L344,278.57L344.27,279L344.53,278.55L344.8,277.01L345.06,277.1L345.32,278.08L346.38,275.25L346.65,276.71L346.91,271.96L347.44,272.79L347.7,272.54L347.97,272.7L348.23,271.87L348.5,268.7L348.76,274.31L349.03,272.76L349.29,275.28L349.82,274.2L350.08,275.12L350.35,276.7L350.88,275.65L351.14,273.42L351.41,273.25L351.67,273.95L351.93,274.17L352.46,273.83L352.73,273.03L353.79,276.87L354.05,275.37L354.31,275.61L354.58,276.49L355.11,275.81L355.37,275.54L356.43,274.83L356.69,275.19L356.96,274.29L357.22,275.23L357.49,276.88L358.81,273.9L359.07,274.08L360.13,275.35L360.4,274.86L360.66,276.53L361.45,283.28L361.72,282.25L361.98,282.6L363.04,276.81L363.3,279.57L363.57,278.43L363.83,279.75L364.1,282.27L365.16,283.8L365.42,283.76L365.95,283.37L366.21,287.55L367.53,294.02L367.8,288.15L368.86,293.7L369.12,289.46L369.91,285.49L370.18,287.2L370.44,287.17L370.71,287.5L370.97,289.59L371.24,292.58L371.5,289.2L371.77,289.21L372.03,290.92L372.29,287.75L372.56,287.37L374.41,275.01L374.67,278.32L375.2,276.06L375.47,278.82L376,280.2L376.26,279.22L376.52,279.14L376.79,279.56L377.05,279.26L377.32,278.8L377.58,278.66L377.85,276.63L378.11,277.81L378.38,274.53L378.64,275.59L378.9,279.92L379.43,278.44L379.7,279.17L379.96,282.62L380.23,282.84L380.49,284.17L381.28,282.07L381.55,284.42L382.34,283.16L382.61,283.96L382.87,284.66L383.4,280.13L383.66,281.02L383.93,282.22L384.19,282.01L384.46,282.63L384.72,284.43L385.25,283.69L385.51,280.54L385.78,280.64L386.04,282.94L386.57,284.43L386.84,283.76L387.1,282.79L388.42,282.77L388.69,281.69L388.95,282.29L389.22,276.78L389.75,275.63L390.01,274.22L390.27,275.23L390.8,274.79L391.07,274.44L391.33,270.64L391.86,272.87L392.13,275.22L392.65,275.96L392.92,275.22L393.18,270.89L393.71,272.88L394.24,272.24L394.5,272.17L394.77,273.31L395.3,272.57L395.56,272.24L396.88,270.8L397.15,272.37L397.68,271.18L397.94,271.97L398.21,272.69L398.74,271.57L399,272.5L399.26,271.76L399.53,272.44L399.79,271.06L400.85,260.6L401.12,263.54L401.64,259.98L401.91,261.07L402.17,262.34L402.7,264.39L403.23,263.84L403.5,262.61L403.76,263.58L404.02,261.94L404.29,261.52L404.82,264.83L405.35,264.21L405.61,262.28L405.87,262.65L406.14,264.46L407.2,260.44L407.46,255.83L407.73,257.64L407.99,254.12L410.11,240.07L410.37,241.35L410.63,237.14L410.9,244.29L411.16,241L411.96,248.11L412.22,244.17L412.49,245.17L412.75,243.74L413.01,240.98L413.28,243.14L413.81,241.78L414.07,239.22L414.34,238.24L414.6,241.02L414.86,243.04L415.39,242.39L415.66,241.09L416.19,247.99L416.72,246.32L416.98,248.01L418.57,237.07L418.83,228.3L419.1,228.14L419.36,228.67L419.62,229.85L420.68,223.02L420.95,226.3L421.21,226.11L421.48,227.92L422,230.25L422.27,229.43L422.53,228.53L423.33,226.2L423.59,230.85L423.85,228.58L424.38,230L424.65,231.35L425.44,228.23L425.71,228.81L425.97,231.53L426.23,230.86L426.5,233.07L426.76,233.51L427.03,231.6L428.35,226.8L428.61,228.24L428.88,228.39L429.14,232.65L429.67,236.57L429.94,235.72L430.2,232.32L430.47,233.96L430.73,231.01L430.99,224.39L431.26,221.34L431.52,224.18L431.79,225.45L432.05,226.9L432.32,225.75L432.58,221.78L432.84,225.06L433.11,223.58L433.37,221.88L433.64,222.04L433.9,219.85L434.7,219.25L434.96,220.23L435.22,224.13L435.75,224.05L436.02,221.62L436.55,219.17L436.81,221.9L437.08,217.09L437.6,218.55L437.87,219.51L438.4,216.8L438.66,212.82L438.93,211.41L439.19,213.96L439.46,214.47L441.04,209.61L441.31,209.51L441.57,209.07L441.83,214.65L442.1,215.14L442.36,214.19L442.63,214.23L443.16,213.34L443.42,215.29L443.69,213.61L443.95,214.83L444.21,217.44L444.48,215.09L445.01,215.77L445.27,215.56L445.54,216.21L445.8,219.2L446.86,215.69L447.12,214.93L447.92,214.82L448.18,217.14L448.45,221.8L448.97,218.85L449.24,216.17L449.5,216.84L449.77,216.4L450.03,215.72L450.56,217.37L450.83,215.89L451.09,215.96L451.35,212.85L451.62,215.96L451.88,215.75L452.41,218.2L452.68,221.07L452.94,241.82L453.47,239.07L453.73,238.1L454.26,239.64L454.53,237.92L455.58,232.32L455.85,232.52L456.11,236.58L456.64,233.46L456.91,239.68L457.44,246.02L457.7,242.85L457.96,239.45L459.29,227.59L459.55,228.54L459.82,232.34L460.87,228.91L461.14,230.78L461.4,230.77L461.67,233.33L462.19,228.69L462.46,230.97L462.72,233.31L462.99,233.37L463.25,241.01L463.52,233.6L464.05,233.71L464.31,235.54L464.84,231.33L465.1,233.11L465.37,239.57L465.63,239.58L465.9,243.44L466.16,243.09L466.43,241.31L466.69,244.58L466.95,240.34L467.22,237.1L467.75,237.24L468.01,239.94L470.66,218.84L470.92,219.56L471.18,221.02L471.45,220.89L471.71,223.43L472.51,224.89L472.77,222.84L473.83,218.17L474.09,218.25L474.36,214.88L474.62,215.93L474.89,221.18L475.15,220.71L475.42,222.44L475.94,215.38L476.21,218.82L477.27,214.21L477.53,214.7L477.8,217.8L478.06,217.37L478.32,218.71L479.38,223.78L479.65,222.93L479.91,220.9L480.17,221.24L480.44,220.36L480.7,221.96L482.29,232.7L482.55,228.98L482.82,230.21L483.08,228.4L483.35,228.71L483.88,233.92L484.14,233.31L484.41,230.44L484.93,227.16L485.2,227.97L485.46,228.41L486.26,229.68L486.52,229.08L487.05,227.68L487.31,227.07L487.84,228.67L488.11,226.39L488.37,226.57L488.64,227.81L490.49,233.32L490.75,234.21L491.81,236.89L492.07,236.63L492.34,238.16L492.6,237.34L492.87,236.17L493.66,236.39L493.92,237.79L494.19,239.28L494.45,236.34L495.25,232.87L495.51,233.38L495.78,231.71L496.04,233.83L496.3,237.73L497.36,249.81L497.63,247.24L497.89,246.81L498.16,249.24L498.42,245.44L498.95,246.59L499.21,250.15L500.01,254.06L500.27,247.7L500.53,244.24L500.8,248.18L501.06,245.28L501.33,246.37L503.44,223.96L503.71,226.06L503.97,226.32L504.24,226.45L504.5,225.61L504.77,227.03L505.03,225.84L505.29,225.53L505.56,226.17L505.82,222.85L506.09,222.49L506.35,223.21L506.62,223.73L507.67,236.71L507.94,231.26L508.47,231.37L508.73,227.43L509,230.73L509.26,230.49L509.52,228.3L509.79,231.17L510.32,229.49L510.58,224.1L511.11,223.95L511.38,221.5L511.64,222.77L511.9,222.24L512.17,221.45L512.43,222.8L512.7,221.01L512.96,212.99L513.23,213.89L513.49,211.97L513.76,215.68L514.02,211.21L514.28,211.73L514.81,221.33L515.34,218.07L515.61,216.26L516.4,220.1L516.66,217.68L517.19,219.89L517.46,214.57L517.99,213.73L518.25,209.06L519.31,201.41L519.57,207.16L519.84,205.38L520.1,206.36L520.37,208.88L521.16,205.2L521.42,203.27L522.22,204.87L522.48,202.04L522.75,204.81L523.01,203.08L523.27,200.77L523.54,198.85L523.8,202.69L524.07,207.48L524.33,203.37L524.6,200.39L524.86,200.86L525.13,199.87L525.39,204.2L525.92,198.35L526.18,198.88L526.45,201.17L526.98,196.99L527.24,200.91L528.3,197.24L528.56,200.76L529.36,207.09L529.62,205.99L529.88,203.69L530.41,205.93L530.68,204.06L531.47,204.6L531.74,202.78L533.32,199.86L533.59,201.89L535.44,198.39L535.7,199.34L536.23,205.01L536.5,204.16L536.76,202.65L537.55,204.68L537.82,203.92L538.08,202.74L538.35,201.7L538.61,202.94L538.87,202.47L539.14,202.63L540.46,206.7L540.73,212.8L542.84,207.61L543.11,208.9L543.37,211.29L543.9,209.92L544.16,209.51L544.96,203.85L545.22,204.93L545.49,207.63L546.01,207.42L546.28,207.53L546.54,208.64L546.81,207.29L547.07,204.54L547.6,208.58L548.13,207.37L548.39,204.68L548.66,205.63L548.92,214.71L549.19,215.01L549.45,209.29L549.72,206.82L549.98,213.04L551.04,190.69L551.3,192.15L552.1,203.66L552.36,200.02L552.62,200.43L553.68,195.33L553.95,198.86L554.21,199.36L554.48,204.87L556.33,193.51L556.59,184.07L557.65,176.89L557.91,174.39L558.18,174.03L558.44,174.48L558.71,171.63L558.97,172.49L559.23,169.69L559.5,171.13L559.76,166.58L560.29,152.82L560.56,156.43L560.82,158.95L561.09,156.55L561.35,157.69L561.61,162.89L561.88,163.7L562.14,162.73L562.41,161.05L562.67,160.39L562.94,157.05L563.2,152.9L563.47,158.96L563.73,155.2L563.99,161.99L564.26,164.26L564.52,162.81L564.79,161.45L566.9,174.57L567.17,171.56L567.7,168.78L567.96,169.69L568.22,171.54L568.49,177.7L568.75,174.91L569.02,170.24L569.81,168L570.08,169.57L570.34,167.3L570.6,179.23L570.87,185.14L571.4,180.5L571.66,179.27L572.46,186.29L572.72,181.36L573.25,178.59L573.51,183.25L574.31,177.99L574.57,178.02L574.83,179.32L575.1,185.95L575.63,182.25L575.89,181.23L577.21,175.02L577.48,175.36L578.8,180.79L579.07,179.37L579.33,176.92L579.59,178.91L579.86,179.32L581.71,171.27L581.97,173.98L583.3,178.01L583.56,175.67L584.35,177.18L584.62,181.12L584.88,180.85L585.15,184.32L585.94,177.05L586.2,181.02L587,185.74L587.26,183.72L588.06,179.16L588.32,180.4L588.58,180.4L588.85,181.11L589.11,179.44L589.38,180.84L589.64,177.07L589.91,178.44L590.17,177L590.44,175.04L592.82,152.85L593.08,154.11L593.61,156.58L593.87,153.8L594.14,147.32L594.67,151.16L594.93,151.88L595.46,151.29L595.72,159.95L595.99,163.54L596.25,160.17L596.78,162.15L597.05,161.47L597.31,164.3L597.84,162.17L598.1,162.47L598.63,158.17L599.16,159.37L599.43,158.3L599.95,153.98L600.22,158.57L600.75,146.79L601.01,147.92L601.28,165.93L602.07,192.37L602.33,179.32L602.6,178.47L602.86,180.53L603.13,189.55L603.66,182.72L603.92,179.98L604.98,187.32L605.24,180.45L606.3,175.87L606.56,181.08L607.09,177.49L607.36,179.27L607.62,179.43L608.68,168.87L608.94,171.06L609.21,170.3L609.74,170.58L610.27,166.14L610.53,166.74L610.8,166.54L611.06,164.28L611.32,174.39L612.12,172.97L612.38,174.11L613.44,169.14L613.7,175.43L614.5,173.48L614.76,180.02L615.03,180.1L615.29,184.36L616.35,174.29L616.61,174.24L616.88,173.88L617.14,170.51L618.2,179.35L618.46,181.28L618.99,188.64L619.26,185.18L619.52,183.29L619.79,184.41L620.05,183.48L620.31,182.45L620.58,184.71L620.84,183.73L621.11,181.3L621.9,179.67L622.17,180.51L622.43,181.43L623.49,180.38L623.75,178.78L624.28,181.35L624.54,181L624.81,179.41L625.07,180.5L625.34,178.76L625.6,178.1L626.13,181.94L626.66,181.06L626.92,180.79L627.19,177.04L627.45,177.7L627.72,182.06L627.98,184.53L628.25,181.91L628.51,180.6L628.78,178.99L629.3,180.33L629.57,186.94L629.83,185.58L630.1,192.43L630.36,191.28L630.63,197.74L631.95,187.48L632.21,188.42L632.48,190.77L633.27,176.2L633.8,177.92L634.06,176.93L634.33,178.15L634.59,168.81L635.12,154.82L635.39,159.01L635.65,157.19L635.91,157.32L636.18,159.64L636.71,166.12L636.97,164.58L637.24,165.05L637.5,162.03L638.03,163.62L638.29,161.96L638.82,165.68L639.09,165.52L639.35,163.61L639.62,172.77L640.15,171.99L640.41,167.97L640.67,167.57L640.94,169.11L641.2,167.38L641.47,167.76L641.73,172.67L642,172.6L642.26,164.45L642.52,164.59L642.79,160.61L643.32,165.39L643.58,162.64L644.11,161.38L644.38,162.34L644.9,169L645.17,160.21L645.96,177.11L646.23,172.17L646.49,173.53L647.55,157.63L647.81,153.35L648.08,156.07L648.34,148.8L649.14,137.2L649.4,141.68L650.19,136.12L650.46,140.12L650.72,144.07L650.99,139.8L651.25,132.04L651.51,132.86L651.78,127.12L652.84,114.19L653.1,134.19L653.37,141.12L653.63,136.01L653.89,134.42L654.16,132.73L654.42,139.06L654.69,138.54L654.95,136.08L655.22,135.59L655.48,136.98L655.75,138.64L656.01,135.12L656.27,138.21L656.54,137.98L656.8,134.3L657.6,139.73L657.86,137.18L658.92,131.39L659.18,131.64L659.45,144.71L660.5,158.29L660.77,158.15L661.3,174.35L661.83,172.01L662.09,171.35L663.94,162.97L664.21,166.44L664.47,168.3L665,166.81L665.26,166.77L665.53,166.5L665.79,160.71L666.06,163.75L666.59,162.86L666.85,162.49L667.64,160.3L667.91,161.24L668.17,164.14L668.44,162.14L668.7,162.7L668.97,164.41L669.23,166L669.5,162.73L670.55,160.26L670.82,162.55L671.35,164.39L671.61,163.05L671.87,162.93L672.67,161.88L672.93,162.6L674.25,177.78L674.52,170.15L675.58,160.4L675.84,156.99L676.63,159.46L676.9,156.44L677.16,159.06L677.43,158.27L677.69,155.57L677.96,153.56L678.22,162.16L678.49,161.59L678.75,157.55L679.28,153.39L679.54,153.5L679.81,155.07L680.86,159.56L681.13,158.04L681.39,158.87L681.66,155.46L682.19,157.07L682.45,156.45L682.72,156.42L683.24,152.76L683.51,154.2L683.77,154.65L684.04,151.54L684.3,156.55L684.57,156.7L685.1,149.33L685.36,151.63L685.62,154.35L686.42,145.83L686.68,149.18L686.95,150.39L687.21,150.62L687.48,152.41L687.74,151.84L688,153.65L689.59,160.19L689.85,158.89L690.38,155.87L690.65,158.17L691.18,159.92L691.44,161.75L691.71,162.65L691.97,161.44L692.23,162.2L692.5,160.2L693.82,164.09L694.09,161.78L694.61,161.62L694.88,160.41L695.41,157.95L695.67,159.19L695.94,159.21L696.73,162.77L696.99,161.15L697.26,157.15L697.52,158.27L697.79,167.25L698.58,178.21L698.84,178.01L699.11,174.06L699.64,171.2L699.9,173.41L700.17,174.06L700.43,176.12L700.7,174.82L700.96,174.01L702.81,168.16L703.08,168.76L703.34,166.66L703.6,172.3L704.13,182.51L704.4,172.47L704.93,166.28L705.19,168.63L705.46,168.04L705.98,166.55L706.25,169.61L706.51,166.43L707.04,168.44L707.31,168.24L708.63,169.48L708.89,168.91L709.69,168.78L709.95,169.83L710.48,170.19L710.74,169.24L711.01,169.91L711.27,169.26L711.54,167.39L712.07,166.16L712.33,166.4L712.59,166.86L712.86,167.03L713.12,164.7L714.18,166.77L714.45,166.11L714.71,166.25L714.97,164.49L715.24,163.94L715.5,164.75L715.77,165.02L716.03,163.47L716.3,164.15L716.56,165.83L716.83,165.83L717.09,164.9L717.35,164.84L717.62,163.85L718.15,163.05L718.68,167.35L718.94,165.93L720,177.31L720.26,173.12L720.53,171.92L720.79,173.76L721.06,176.08L721.58,182.17L721.85,181.12L722.11,180.96L722.38,179.18L722.64,184.57L722.91,183.07L723.17,185.75L723.44,183.34L723.7,187.08L723.96,195.91L724.49,194.76L724.76,196.15L725.02,198.35L725.29,195.13L725.55,193.75L726.61,189.55L726.87,190.68L727.4,201.18L727.67,216.14L727.93,216.08L728.19,216.84L728.46,213.93L728.72,219.69L728.99,219.24L729.25,214.32L729.78,214.1L730.05,217.67L730.31,218.97L730.57,217.25L730.84,216.77L731.63,204.84L731.9,210.32L732.16,209.53L732.69,214.5L732.95,212.03L733.22,212.1L734.01,210.54L734.28,205.51L735.33,212.09L735.6,210.21L735.86,209.22L736.13,210.66L736.39,214.23L736.66,214.66L736.92,217.76L737.98,210.45L738.24,214.51L738.51,216.87L738.77,214.37L739.04,216.07L739.3,216.78L739.83,211.78L740.09,212.33L740.36,214.46L740.62,208.95L740.89,209.36L741.15,213.92L741.42,214.31L741.68,212.56L742.21,218.89L742.47,216.09L742.74,215.42L743.8,213.16L744.06,213.43L744.32,214.32L744.59,211.87L744.85,210.29L745.38,210.84L745.65,211.04L746.17,213.46L746.44,211.06L746.7,210.77L746.97,200.88L748.03,194.33L748.29,195.4L748.55,190.41L749.08,191.52L749.35,192.7L749.61,193.08L749.88,192.8L750.14,192.4L750.41,192.86L750.67,191.34L750.93,191.79L751.2,190.81L751.46,190.06L751.73,190.12L751.99,192.13L752.79,195.55L753.05,192.63L754.64,191.71L754.9,192.78L756.22,188.48L756.49,188.85L756.75,189.04L757.02,190.44L757.28,188.36L757.54,188.52L758.07,181.04L758.34,183.8L758.6,184.52L758.87,186.17L759.13,184.71L759.4,183.2L759.66,182.46L759.92,185.1L760.45,185.53L760.72,187.78L761.25,187.16L761.51,188.55L761.78,190.73L762.04,193.11L762.3,190.87L762.57,190.49L762.83,192.97L763.36,191L763.63,188.41L764.16,187.25L764.42,188.22L764.68,188.54L764.95,188.62L765.21,189.85L766.01,185.35L766.27,187.12L766.8,191.56L767.06,191.48L767.33,183.73L767.59,177.75L768.12,178.59L768.39,179.39L769.44,175.28L769.71,177.21L770.24,172.7L770.5,174.53L770.77,174.57L771.29,176.29L771.56,175.43L771.82,175.12L772.09,176.48L772.35,174.23L772.62,174.35L773.15,177.61L773.41,176.13L773.67,173.92L773.94,170.15L774.47,170.52L774.73,169.81L775.26,169.19L775.52,171.94L776.32,179.39L776.58,177.94L776.85,177.67L777.38,177.89L777.64,178.68L777.9,177.08L778.17,177.34L778.43,183.81L778.7,188.8L779.23,184.76L779.49,183.23L779.76,183.94L780.02,177.92L780.55,173.96L780.81,176.93L781.08,178.64L781.61,189.54L781.87,187.55L782.14,188.7L782.4,189.15L782.66,197.54L783.46,193.67L783.72,193.71L783.99,192.91L784.78,193.11L785.04,192.11L785.31,193.53L785.57,192.76L785.84,192.05L786.89,184.87L787.16,186.61L787.42,183.32L787.95,183.73L788.22,186.23L788.75,182.77L789.27,183.13L789.54,183.48L789.8,184.46L790.07,183.36L790.33,181.87L790.86,181.53L791.13,182.89L791.65,181.09L791.92,181.95L792.18,187.42L792.71,181.36L792.98,182.3L793.24,185.36L793.5,185.75L793.77,184.56L794.03,185.7L794.3,185.44L794.56,182.73L795.09,181.97L795.36,180.34L795.88,181.03L796.15,180.41L796.41,180.16L797.21,183.55L797.47,182.19L797.74,182.5L798.79,184.54L799.06,184.2L799.32,183.95L799.59,182.44L799.85,185.13L800.38,184.75L800.64,185.11L801.44,185.93L801.7,184.95L802.23,184.61L802.5,186.13L802.76,186.16L803.02,188.51L804.35,184.67L804.61,185.01L804.87,185.05L805.93,181.43L806.2,183.13L806.46,185.47L806.73,181.96L806.99,182.17L807.78,186.98L808.05,186.89L808.31,187.58L809.37,182.62L809.63,181.2L810.16,181.34L810.69,178.72L810.96,180.12L811.22,178.3L811.49,181.32L811.75,186.78L812.81,185.2L813.07,187.68L813.34,189.02L813.6,188.19L813.86,185.98L814.13,186.4L814.39,185.42L814.66,182.41L815.45,184.42L815.72,183.99L815.98,182.56L816.24,179.7L816.51,180.62L816.77,182.9L817.04,183.1L817.3,182.6L817.57,180.67L817.83,181L818.1,178.51L818.36,178.98L818.62,178.32L818.89,176.84L819.15,174.88L819.68,175.73L819.95,175.2L821.27,180.38L821.53,179.45L821.8,177.99L822.33,178.93L822.59,178.25L822.85,176.08L823.12,179.12L823.38,178.85L823.65,176.64L824.18,177.57L824.44,176.97L825.76,162.55L826.03,162.71L826.29,163.43L826.56,162.93L826.82,159.19L827.35,157.07L827.61,158.39L827.88,157.8L828.14,158.15L828.41,158.63L829.47,154.48L829.73,154.77L829.99,154.96L830.79,146.53L831.05,153.56L831.32,153.08L831.58,150.81L831.84,151.29L832.11,149.25L832.9,150.64L833.17,150.35L833.43,148.57L833.7,139.7L834.22,143.81L834.49,141.57L834.75,141.03L835.02,141.78L835.28,135.88L835.55,138.45L835.81,135.2L836.08,129.63L836.6,127.6L836.87,132.23L837.13,132.44L837.4,132.09L837.66,128.51L837.93,128.74L838.19,130.87L838.46,130.79L838.72,128.86L839.51,133.02L839.78,130L840.31,128.16L840.57,128.56L840.83,129.62L841.1,129.35L841.36,131.64L842.16,137.57L842.42,134.74L842.69,133.15L843.48,132.49L843.74,132.7L844.01,133.96L844.27,132.19L844.54,130.43L845.07,126.28L845.33,127.96L845.59,128.39L845.86,128.1L846.12,129.25L846.39,127.74L846.65,121.33L847.18,123.75L847.45,122.83L847.71,122.98L848.5,124.77L848.77,122.76L849.3,127.01L849.83,126.87L850.09,126.63L850.35,125.48L850.88,125.68L851.15,128.72L852.2,123.72L852.47,124.59L852.73,128.55L853.26,129.15L853.53,129.7L854.06,129.04L854.58,134.21L854.85,133.3L855.11,132.43L855.38,131.54L855.64,131.79L855.91,122.57L856.96,106.14L857.23,108.55L858.02,99.83L858.29,100.36L858.82,96.9L859.08,100.7L859.34,103.53L859.61,102.35L859.87,101.07L860.4,102.02L860.67,99.6L860.93,97.5L861.19,101.34L861.46,98.87L861.72,100.72L862.78,117.43L863.05,112.82L864.37,106.58L864.63,105.23L865.16,107.98L865.43,106.27L865.69,105.59L865.95,107.49L866.22,104.98L866.48,103.34L866.75,101.22L867.01,90.57L867.81,80.43L868.07,81.56L868.33,77.79L868.86,80.86L869.13,81.81L869.66,81.66L869.92,79.35L870.98,76.78L871.24,68.13L871.51,72.52L871.77,68.52L872.04,66.19L872.56,72.76L872.83,69.47L873.09,69.52L873.36,69.59L873.62,66.12L874.68,59.17L874.94,46.26L875.74,60.13L876,57.47L876.27,56.21L876.8,66.82L877.06,62.86L877.32,58.94L878.38,49.78L878.65,50.84L878.91,50.68L879.97,61.12L880.23,54.64L880.5,54.87L880.76,49.54L881.03,49L881.29,58.08L882.61,64.44L882.88,59.99L883.93,55.33L884.2,58.07L884.46,56.44L884.99,57.04L885.26,59.86L885.79,57.38L886.05,61.59L886.31,63.15L886.58,62.19L886.84,61.58L887.11,60.02L887.37,69.31L887.64,74.21L888.17,70.69L888.43,67L888.69,67.34L888.96,66.16L889.22,65.64L889.49,63.34L890.28,64.8L890.54,66.9L890.81,68.06L891.07,66.14L891.34,62.99L891.87,64.18L892.66,56.96L892.92,59.34L893.72,64.76L893.98,60.34L894.51,62.81L894.78,62.16L895.04,60.43L895.57,61.7L895.83,59.14L896.1,52.79L896.63,54.64L896.89,56.35L898.21,49.22L898.48,47.34L898.74,52.79L899.27,50.12L899.53,49.55L900.33,53.02L900.59,50.28L900.86,54.75L901.12,48.36L901.39,50.65L901.91,51.19L902.18,46.93L902.44,47.5L902.71,50.88L903.24,52.47L903.5,50.5L903.77,54.24L904.03,50.36L904.29,47.97L904.56,47.34L904.82,48.54L905.09,49.97L905.35,52.79L905.62,47.84L905.88,44.98L906.15,47.04L906.41,35.43L907.2,59L907.47,57.01L907.73,54L908.79,42.52L909.05,40.45L910.11,43.4L910.38,43.73L910.9,49.86L911.17,46.53L911.43,43.63L911.7,51.97L912.23,50.77L912.49,41.83L913.02,48.64L913.28,44.56L913.55,41.43L914.08,48.88L914.34,44.57L914.61,44.36L915.4,30.38L915.66,30.57L915.93,40.3L916.99,35.56L917.25,29.81L918.04,22.34L918.31,27.44L918.57,27.21L918.84,29.13L919.1,37.06L919.37,32.25L919.63,28.82L919.89,33L920.16,28.63L920.42,26.94L920.69,28.5L920.95,21L921.75,30.8L922.01,26.6L922.54,35.61L923.07,35.38L923.33,33.14L923.6,31.42L923.86,41.01L924.92,37.32L925.18,41.88L925.71,36.82L925.98,44.75L927.03,37.23L927.3,38.06L927.83,42.98L928.09,42.48L928.36,39.76L928.62,46.51L928.88,42.04L929.15,39.87L930.21,34.41L930.47,35.66L931,33.67" style="vector-effect: none; fill: none; stroke: rgb(99, 110, 250); stroke-opacity: 1; stroke-width: 2px; opacity: 1;"/></g><g class="points"/><g class="text"/></g><g class="trace scatter trace55a024" style="stroke-miterlimit: 2; opacity: 1;"><g class="fills"/><g class="errorbars"/><g class="lines"><path class="js-line" d="M0,377.15L29.88,377.55L30.14,377.55L61.87,377.98L62.14,377.98L93.34,378.73L93.6,378.74L124.8,379.18L125.07,380.54L144.37,382.28L144.63,382.39L147.01,383.53L147.28,375.24L147.81,374.38L148.07,363.4L149.13,370.22L149.39,370.71L151.51,373.18L151.77,373.19L175.31,373.33L175.57,373.32L204.92,373.25L205.18,373.77L206.24,374.81L206.51,374.87L223.69,378.87L223.96,379.08L225.28,381.29L225.54,381.31L233.74,382L234.01,382.44L248.81,381.58L249.08,380.58L249.34,379.58L249.87,379.8L250.14,379.91L252.78,381.25L253.04,388.3L253.84,385.21L254.1,385.09L256.75,384.62L257.01,384.62L306.72,384.31L306.98,384.24L323.64,379.71L323.91,378.69L325.76,371.51L326.29,371.79L326.55,371.92L332.9,374.4L333.16,374.41L371.24,375.16L371.5,375.17L397.41,375.4L397.68,375.4L400.59,374.83L400.85,374.54L406.93,372.95L407.2,372.8L408.25,369.3L408.52,368.54L409.05,367.03L409.31,359.08L411.43,355.85L411.69,355.82L418.57,354.91L418.83,351.66L419.89,349.18L420.15,348.88L422,348.55L422.27,348.56L437.87,347.91L438.13,347.88L438.66,347.8L438.93,344.38L443.42,343.55L443.69,343.55L459.02,344.42L459.29,344.65L460.34,345.2L460.61,345.24L467.48,345.54L467.75,345.54L506.88,346.29L507.15,346.32L514.02,347.6L514.28,347.66L521.42,348.8L521.69,348.78L549.72,347.21L549.98,345.09L551.57,337.9L551.83,337.89L556.59,337.63L556.85,334.1L559.76,334.62L560.03,333.05L560.82,330.12L561.09,330.09L592.29,325.8L592.55,325.68L594.67,325.47L594.93,325.48L627.45,326.23L627.72,326.24L630.1,326.34L630.36,328.56L630.63,330.79L631.16,330.68L631.42,330.63L635.65,330.35L635.91,330.37L647.28,330.59L647.55,330.46L647.81,330.34L648.08,329.25L649.66,322.79L649.93,322.66L651.78,321.76L652.04,318.32L654.42,316.79L654.69,316.58L660.24,313.06L660.5,313.06L698.58,314.83L698.84,316.12L707.31,317.69L707.57,317.7L721.06,318.81L721.32,318.88L722.38,320.48L722.64,320.59L723.7,321.02L723.96,325.77L726.08,327.78L726.34,327.87L727.4,328.27L727.67,331.73L728.72,330.96L728.99,331L741.42,332.65L741.68,332.65L760.98,333.86L761.25,333.94L771.29,336.26L771.56,336.26L826.56,338.44L826.82,338.89L828.14,339.53L828.41,339.6L830.26,340.1L830.52,340.99L831.58,342.13L831.84,342.22L832.9,343.31L833.17,343.64L835.28,345.13L835.55,345.42L837.4,346.36L837.66,346.43L854.58,345.97L854.85,345.95L855.91,345.85L856.17,339.98L856.96,343.17L857.23,342.28L857.49,341.38L859.87,342.09L860.14,341.98L863.31,340.03L863.57,339.84L867.01,337.48L867.28,335.54L867.54,336.16L867.81,335.33L868.07,334.68L869.39,332.5L869.66,332.38L870.98,331.11L871.24,330.66L874.15,330.68L874.42,330.24L874.68,330.71L874.94,328.44L897.16,329.67L897.42,329.53L897.95,328.69L898.21,327.65L904.82,326.56L905.09,326.57L910.38,325.86L910.64,325.81L911.96,324.94L912.23,324.58L915.14,320.59L915.4,319.7L915.66,317.21L916.19,317.31L916.46,317.36L919.89,317.2L920.16,317.14L921.22,316.42L921.48,315.88L931,296.65" style="vector-effect: none; fill: none; stroke: rgb(239, 85, 59); stroke-opacity: 1; stroke-width: 2px; opacity: 1;"/></g><g class="points"/><g class="text"/></g><g class="trace scatter traceb10096" style="stroke-miterlimit: 2; opacity: 1;"><g class="fills"/><g class="errorbars"/><g class="lines"><path class="js-line" d="M0,377.15L147.28,355.11L147.54,352.41L148.86,346.09L149.13,346.07L253.04,338.27L253.31,315.91L257.54,314.21L257.8,314.22L304.6,314.24L304.87,313.98L323.91,294.35L324.17,293.22L325.76,286.42L326.29,286.63L326.55,286.74L333.16,288.62L333.43,288.62L366.21,288.1L366.48,288.1L405.61,287.49L405.87,287.31L407.46,286.26L407.73,284.02L408.78,277.42L409.05,266.8L410.11,255.92L410.37,254.55L411.16,253.13L411.43,253.1L441.57,251.3L441.83,251.31L509.52,251.01L509.79,250.99L549.72,247.64L549.98,230.31L550.77,212.87L551.04,212.81L561.61,210.05L561.88,209.88L564.52,209.08L564.79,209.08L613.7,209.83L613.97,209.84L627.45,210.59L627.72,210.61L630.1,210.81L630.36,212.76L631.16,214.73L631.42,214.74L646.23,214.66L646.49,214.09L647.02,211.34L647.28,209.16L648.08,203.94L648.34,188.96L649.4,180.23L649.66,180.03L653.89,177.59L654.16,177.6L721.06,180.49L721.32,181.73L722.38,184.52L722.64,184.86L727.14,198.13L727.4,198.82L728.19,210.32L728.46,210.33L737.18,211.12L737.45,211.49L739.3,212.98L739.56,212.98L823.91,212.23L824.18,212.22L835.28,212.12L835.55,211.27L838.19,203.31L838.46,203.22L845.33,200.21L845.59,199.82L847.45,198.19L847.71,198.16L855.91,197.4L856.17,184.6L859.34,159.95L859.61,159.81L861.72,158.03L861.99,157.78L867.28,152.23L867.54,151.38L869.39,149.99L869.66,149.82L870.45,149.31L870.71,147.23L872.04,142.28L872.3,142.02L874.42,139.15L874.68,133.94L875.47,119.49L875.74,119.43L899.8,112.54L900.06,112.43L914.34,105.88L914.61,105.69L915.14,101.54L915.4,98.52L916.46,89.41L916.72,88.84L931,57.9" style="vector-effect: none; fill: none; stroke: rgb(0, 204, 150); stroke-opacity: 1; stroke-width: 2px; opacity: 1;"/></g><g class="points"/><g class="text"/></g><g class="trace scatter tracee0217e" style="stroke-miterlimit: 2; opacity: 1;"><g class="fills"/><g class="errorbars"/><g class="lines"><path class="js-line" d="M0,377.15L147.28,354.7L147.54,352L148.86,345.66L149.13,345.63L253.04,334.29L253.31,314.96L257.27,311.22L257.54,311.15L323.64,293.42L323.91,292.28L325.76,284.35L326.02,285.09L326.29,285.83L331.84,299.91L332.1,299.9L405.61,295.13L405.87,292.64L408.25,275.95L408.52,275.67L409.05,275.1L409.31,264.42L442.36,255.35L442.63,255.36L501.86,259.18L502.12,259.18L548.92,256.71L549.19,256.69L549.72,256.66L549.98,239.95L550.77,223.19L551.04,223.17L561.61,221.38L561.88,221.21L564.52,220.41L564.79,220.41L613.7,221.16L613.97,221.17L627.45,221.92L627.72,221.94L630.1,222.13L630.36,223.92L631.16,225.71L631.42,225.72L645.96,226.13L646.23,219.99L647.55,203.95L647.81,202.69L648.87,197.5L649.14,195.76L652.04,194.02L652.31,193.53L652.84,165.33L653.37,165.52L653.63,165.62L699.11,182.34L699.37,182.36L719.47,183.12L719.73,183.13L721.06,183.16L721.32,184.04L722.38,185.98L722.64,186.19L727.4,193.33L727.67,204.52L737.45,205.69L737.71,206.06L739.3,207.17L739.56,207.17L846.65,206.42L846.92,206.34L855.91,203.69L856.17,170.26L859.34,145.59L859.61,145.5L863.57,143.55L863.84,143.38L867.01,141.36L867.28,139.36L868.33,138.27L868.6,138.19L870.45,137.65L870.71,135.81L872.04,131.36L872.3,131.1L874.42,128.26L874.68,124.09L875.47,111.41L875.74,111.35L900.59,105.04L900.86,104.94L914.61,100.03L914.87,97.45L916.46,82.08L916.72,81.68L931,59.62" style="vector-effect: none; fill: none; stroke: rgb(171, 99, 250); stroke-opacity: 1; stroke-width: 2px; opacity: 1;"/></g><g class="points"/><g class="text"/></g><g class="trace scatter tracecb5dec" style="stroke-miterlimit: 2; opacity: 1;"><g class="fills"/><g class="errorbars"/><g class="lines"><path class="js-line" d="M0,377.15L147.28,355.12L147.54,352.43L148.86,346.06L149.13,346.02L175.04,341.8L175.31,341.76L201.22,337.54L201.48,337.5L235.59,331.94L235.86,331.9L253.04,329.1L253.31,316.15L257.54,314.45L257.8,314.46L304.6,314.45L304.87,314.18L323.91,294.56L324.17,293.43L325.76,286.62L326.29,286.84L326.55,286.94L333.16,288.83L333.43,288.83L366.21,288.31L366.48,288.31L399.26,287.79L399.53,287.79L406.67,286.99L406.93,286.82L407.46,286.46L407.73,284.23L408.78,277.63L409.05,266.16L410.11,255.28L410.37,254.35L411.16,253.37L411.43,253.35L431.52,252.46L431.79,252.46L433.64,251.77L433.9,251.59L447.39,250.71L447.65,250.71L484.14,251.32L484.41,251.32L510.05,250.88L510.32,250.86L549.72,247.53L549.98,230.19L550.77,212.66L551.04,212.56L565.05,207.22L565.32,207.22L597.57,207.72L597.84,207.72L630.1,208.94L630.36,211.11L631.16,213.3L631.42,213.31L645.96,213.79L646.23,212.64L648.08,206.19L648.34,189.86L649.4,180.76L649.66,180.68L652.04,179.33L652.31,178.56L653.37,177.03L653.63,177.04L721.06,179.87L721.32,180.99L722.38,183.53L722.64,183.85L725.55,194.75L725.82,195.38L727.4,199.16L727.67,208.48L728.99,209.38L729.25,209.39L737.45,210.52L737.71,210.89L739.3,212.01L739.56,212L824.44,211.25L824.71,211.24L835.28,211.15L835.55,210.29L837.93,204.15L838.19,204.03L845.07,200.16L845.33,199.57L847.45,196.56L847.71,196.53L855.91,195.77L856.17,182.8L859.61,162.93L859.87,162.8L861.72,161.12L861.99,160.84L867.01,155.6L867.28,145.52L868.33,144.32L868.6,144.23L870.45,143.63L870.71,142.43L872.04,139.26L872.3,139L874.42,136.12L874.68,130.92L875.47,116.66L875.74,116.62L897.68,112.85L897.95,111.98L914.61,104.24L914.87,103.09L916.46,87.98L916.72,87.41L931,56.77" style="vector-effect: none; fill: none; stroke: rgb(255, 161, 90); stroke-opacity: 1; stroke-width: 2px; opacity: 1;"/></g><g class="points"/><g class="text"/></g><g class="trace scatter trace27fc8f" style="stroke-miterlimit: 2; opacity: 1;"><g class="fills"/><g class="errorbars"/><g class="lines"><path class="js-line" d="M0,377.15L147.28,354.79L147.54,352.1L148.86,345.71L149.13,345.66L253.04,325.2L253.31,315.26L257.27,311.52L257.54,311.45L323.64,293.72L323.91,292.59L325.76,284.65L326.02,285.4L326.29,286.14L331.84,300.26L332.1,300.24L358.28,298.52L358.54,298.5L405.61,295.4L405.87,292.93L408.25,276.36L408.52,276.06L409.05,275.48L409.31,264.78L437.6,251.39L437.87,251.26L442.89,249.65L443.16,249.68L501.33,255.65L501.59,255.64L549.19,253.14L549.45,253.12L549.72,253.1L549.98,236.4L550.77,219.43L551.04,219.3L564.52,212.78L564.79,212.78L597.05,213.28L597.31,213.28L630.1,214.51L630.36,216.51L631.16,218.52L631.42,218.53L645.96,218.93L646.23,214.67L647.55,204.79L647.81,204.34L648.61,203.32L648.87,200.64L651.78,198.97L652.04,197.26L652.31,196.74L652.57,181.91L653.37,166.8L653.63,166.67L659.98,164.21L660.24,164.33L700.7,180.91L700.96,180.93L718.68,181.55L718.94,181.55L721.06,181.61L721.32,182.49L722.38,184.42L722.64,184.64L726.08,191.2L726.34,191.59L727.4,193.19L727.67,198.87L737.18,199.67L737.45,200.04L739.3,201.51L739.56,201.51L835.81,200.94L836.08,200.65L837.66,199.96L837.93,199.94L847.18,198.19L847.45,198.11L855.91,195.58L856.17,163.93L859.61,146.05L859.87,145.96L863.57,144.11L863.84,143.94L867.01,141.92L867.28,136.75L868.6,134.62L868.86,134.3L874.42,127.55L874.68,123.38L875.47,106.7L875.74,106.65L897.42,101.84L897.68,100.99L898.74,98.97L899.01,98.87L914.61,93.23L914.87,90.65L916.46,75.29L916.72,74.87L931,52.67" style="vector-effect: none; fill: none; stroke: rgb(25, 211, 243); stroke-opacity: 1; stroke-width: 2px; opacity: 1;"/></g><g class="points"/><g class="text"/></g></g></g><g class="overplot"/><path class="xlines-above crisp" d="M0,0" style="fill: none;"/><path class="ylines-above crisp" d="M0,0" style="fill: none;"/><g class="overlines-above"/><g class="xaxislayer-above"><g class="xtick"><text text-anchor="middle" x="0" y="537" transform="translate(126.27000000000001,0)" style="font-family: 'Open Sans', verdana, arial, sans-serif; font-size: 16px; fill: rgb(42, 63, 95); fill-opacity: 1; white-space: pre; opacity: 1;"><tspan class="line" dy="0em" x="0" y="537">Oct 8</tspan><tspan class="line" dy="1.3em" x="0" y="537">2023</tspan></text></g><g class="xtick"><text text-anchor="middle" x="0" y="537" style="font-family: 'Open Sans', verdana, arial, sans-serif; font-size: 16px; fill: rgb(42, 63, 95); fill-opacity: 1; white-space: pre; opacity: 1;" transform="translate(215.12,0)">Oct 22</text></g><g class="xtick"><text text-anchor="middle" x="0" y="537" style="font-family: 'Open Sans', verdana, arial, sans-serif; font-size: 16px; fill: rgb(42, 63, 95); fill-opacity: 1; white-space: pre; opacity: 1;" transform="translate(303.96000000000004,0)">Nov 5</text></g><g class="xtick"><text text-anchor="middle" x="0" y="537" style="font-family: 'Open Sans', verdana, arial, sans-serif; font-size: 16px; fill: rgb(42, 63, 95); fill-opacity: 1; white-space: pre; opacity: 1;" transform="translate(392.8,0)">Nov 19</text></g><g class="xtick"><text text-anchor="middle" x="0" y="537" style="font-family: 'Open Sans', verdana, arial, sans-serif; font-size: 16px; fill: rgb(42, 63, 95); fill-opacity: 1; white-space: pre; opacity: 1;" transform="translate(481.64,0)">Dec 3</text></g><g class="xtick"><text text-anchor="middle" x="0" y="537" style="font-family: 'Open Sans', verdana, arial, sans-serif; font-size: 16px; fill: rgb(42, 63, 95); fill-opacity: 1; white-space: pre; opacity: 1;" transform="translate(570.49,0)">Dec 17</text></g><g class="xtick"><text text-anchor="middle" x="0" y="537" style="font-family: 'Open Sans', verdana, arial, sans-serif; font-size: 16px; fill: rgb(42, 63, 95); fill-opacity: 1; white-space: pre; opacity: 1;" transform="translate(659.33,0)">Dec 31</text></g><g class="xtick"><text text-anchor="middle" x="0" y="537" style="font-family: 'Open Sans', verdana, arial, sans-serif; font-size: 16px; fill: rgb(42, 63, 95); fill-opacity: 1; white-space: pre; opacity: 1;" transform="translate(748.17,0)"><tspan class="line" dy="0em" x="0" y="537">Jan 14</tspan><tspan class="line" dy="1.3em" x="0" y="537">2024</tspan></text></g><g class="xtick"><text text-anchor="middle" x="0" y="537" style="font-family: 'Open Sans', verdana, arial, sans-serif; font-size: 16px; fill: rgb(42, 63, 95); fill-opacity: 1; white-space: pre; opacity: 1;" transform="translate(837.02,0)">Jan 28</text></g><g class="xtick"><text text-anchor="middle" x="0" y="537" style="font-family: 'Open Sans', verdana, arial, sans-serif; font-size: 16px; fill: rgb(42, 63, 95); fill-opacity: 1; white-space: pre; opacity: 1;" transform="translate(925.86,0)">Feb 11</text></g></g><g class="yaxislayer-above"><g class="ytick"><text text-anchor="end" x="79" y="5.6" transform="translate(0,477.15)" style="font-family: 'Open Sans', verdana, arial, sans-serif; font-size: 16px; fill: rgb(42, 63, 95); fill-opacity: 1; white-space: pre; opacity: 1;">3000</text></g><g class="ytick"><text text-anchor="end" x="79" y="5.6" style="font-family: 'Open Sans', verdana, arial, sans-serif; font-size: 16px; fill: rgb(42, 63, 95); fill-opacity: 1; white-space: pre; opacity: 1;" transform="translate(0,406.19)">3500</text></g><g class="ytick"><text text-anchor="end" x="79" y="5.6" style="font-family: 'Open Sans', verdana, arial, sans-serif; font-size: 16px; fill: rgb(42, 63, 95); fill-opacity: 1; white-space: pre; opacity: 1;" transform="translate(0,335.22)">4000</text></g><g class="ytick"><text text-anchor="end" x="79" y="5.6" style="font-family: 'Open Sans', verdana, arial, sans-serif; font-size: 16px; fill: rgb(42, 63, 95); fill-opacity: 1; white-space: pre; opacity: 1;" transform="translate(0,264.25)">4500</text></g><g class="ytick"><text text-anchor="end" x="79" y="5.6" style="font-family: 'Open Sans', verdana, arial, sans-serif; font-size: 16px; fill: rgb(42, 63, 95); fill-opacity: 1; white-space: pre; opacity: 1;" transform="translate(0,193.29000000000002)">5000</text></g><g class="ytick"><text text-anchor="end" x="79" y="5.6" style="font-family: 'Open Sans', verdana, arial, sans-serif; font-size: 16px; fill: rgb(42, 63, 95); fill-opacity: 1; white-space: pre; opacity: 1;" transform="translate(0,122.32)">5500</text></g></g><g class="overaxes-above"/></g></g><g class="polarlayer"/><g class="smithlayer"/><g class="ternarylayer"/><g class="geolayer"/><g class="funnelarealayer"/><g class="pielayer"/><g class="iciclelayer"/><g class="treemaplayer"/><g class="sunburstlayer"/><g class="glimages"/><defs id="topdefs-952afa"><g class="clips"/><clipPath id="legend952afa"><rect width="122" height="124" x="0" y="0"/></clipPath></defs><g class="layer-above"><g class="imagelayer"/><g class="shapelayer"/></g><g class="infolayer"><g class="legend" pointer-events="all" transform="translate(1029.62,100)"><rect class="bg" shape-rendering="crispEdges" width="122" height="124" x="0" y="0" style="stroke: rgb(68, 68, 68); stroke-opacity: 1; fill: rgb(255, 255, 255); fill-opacity: 1; stroke-width: 0px;"/><g class="scrollbox" transform="" clip-path="url(#legend952afa)"><g class="groups"><g class="traces" transform="translate(0,14.5)" style="opacity: 1;"><text class="legendtext" text-anchor="start" x="40" y="4.680000000000001" style="font-family: 'Open Sans', verdana, arial, sans-serif; font-size: 12px; fill: rgb(42, 63, 95); fill-opacity: 1; white-space: pre;">B&amp;H</text><g class="layers" style="opacity: 1;"><g class="legendfill"/><g class="legendlines"><path class="js-line" d="M5,0h30" style="fill: none; stroke: rgb(99, 110, 250); stroke-opacity: 1; stroke-width: 2px;"/></g><g class="legendsymbols"><g class="legendpoints"/></g></g><rect class="legendtoggle" x="0" y="-9.5" width="116.46875" height="19" style="fill: rgb(0, 0, 0); fill-opacity: 0;"/></g><g class="traces" transform="translate(0,33.5)" style="opacity: 1;"><text class="legendtext" text-anchor="start" x="40" y="4.680000000000001" style="font-family: 'Open Sans', verdana, arial, sans-serif; font-size: 12px; fill: rgb(42, 63, 95); fill-opacity: 1; white-space: pre;">Classical</text><g class="layers" style="opacity: 1;"><g class="legendfill"/><g class="legendlines"><path class="js-line" d="M5,0h30" style="fill: none; stroke: rgb(239, 85, 59); stroke-opacity: 1; stroke-width: 2px;"/></g><g class="legendsymbols"><g class="legendpoints"/></g></g><rect class="legendtoggle" x="0" y="-9.5" width="116.46875" height="19" style="fill: rgb(0, 0, 0); fill-opacity: 0;"/></g><g class="traces" transform="translate(0,52.5)" style="opacity: 1;"><text class="legendtext" text-anchor="start" x="40" y="4.680000000000001" style="font-family: 'Open Sans', verdana, arial, sans-serif; font-size: 12px; fill: rgb(42, 63, 95); fill-opacity: 1; white-space: pre;">Fuzzy</text><g class="layers" style="opacity: 1;"><g class="legendfill"/><g class="legendlines"><path class="js-line" d="M5,0h30" style="fill: none; stroke: rgb(0, 204, 150); stroke-opacity: 1; stroke-width: 2px;"/></g><g class="legendsymbols"><g class="legendpoints"/></g></g><rect class="legendtoggle" x="0" y="-9.5" width="116.46875" height="19" style="fill: rgb(0, 0, 0); fill-opacity: 0;"/></g><g class="traces" transform="translate(0,71.5)" style="opacity: 1;"><text class="legendtext" text-anchor="start" x="40" y="4.680000000000001" style="font-family: 'Open Sans', verdana, arial, sans-serif; font-size: 12px; fill: rgb(42, 63, 95); fill-opacity: 1; white-space: pre;">Fuzzy C</text><g class="layers" style="opacity: 1;"><g class="legendfill"/><g class="legendlines"><path class="js-line" d="M5,0h30" style="fill: none; stroke: rgb(171, 99, 250); stroke-opacity: 1; stroke-width: 2px;"/></g><g class="legendsymbols"><g class="legendpoints"/></g></g><rect class="legendtoggle" x="0" y="-9.5" width="116.46875" height="19" style="fill: rgb(0, 0, 0); fill-opacity: 0;"/></g><g class="traces" transform="translate(0,90.5)" style="opacity: 1;"><text class="legendtext" text-anchor="start" x="40" y="4.680000000000001" style="font-family: 'Open Sans', verdana, arial, sans-serif; font-size: 12px; fill: rgb(42, 63, 95); fill-opacity: 1; white-space: pre;">Fuzzy PSO</text><g class="layers" style="opacity: 1;"><g class="legendfill"/><g class="legendlines"><path class="js-line" d="M5,0h30" style="fill: none; stroke: rgb(255, 161, 90); stroke-opacity: 1; stroke-width: 2px;"/></g><g class="legendsymbols"><g class="legendpoints"/></g></g><rect class="legendtoggle" x="0" y="-9.5" width="116.46875" height="19" style="fill: rgb(0, 0, 0); fill-opacity: 0;"/></g><g class="traces" transform="translate(0,109.5)" style="opacity: 1;"><text class="legendtext" text-anchor="start" x="40" y="4.680000000000001" style="font-family: 'Open Sans', verdana, arial, sans-serif; font-size: 12px; fill: rgb(42, 63, 95); fill-opacity: 1; white-space: pre;">Fuzzy C PSO</text><g class="layers" style="opacity: 1;"><g class="legendfill"/><g class="legendlines"><path class="js-line" d="M5,0h30" style="fill: none; stroke: rgb(25, 211, 243); stroke-opacity: 1; stroke-width: 2px;"/></g><g class="legendsymbols"><g class="legendpoints"/></g></g><rect class="legendtoggle" x="0" y="-9.5" width="116.46875" height="19" style="fill: rgb(0, 0, 0); fill-opacity: 0;"/></g></g></g><rect class="scrollbar" rx="20" ry="3" width="0" height="0" x="0" y="0" style="fill: rgb(128, 139, 164); fill-opacity: 1;"/></g><g class="g-gtitle"/><g class="g-xtitle"><text class="xtitle" x="545.5" y="585.1125" text-anchor="middle" style="font-family: 'Open Sans', verdana, arial, sans-serif; font-size: 14px; fill: rgb(42, 63, 95); opacity: 1; font-weight: normal; white-space: pre;">Time</text></g><g class="g-ytitle"><text class="ytitle" transform="rotate(-90,14.012500000000003,310)" x="14.012500000000003" y="310" text-anchor="middle" style="font-family: 'Open Sans', verdana, arial, sans-serif; font-size: 14px; fill: rgb(42, 63, 95); opacity: 1; font-weight: normal; white-space: pre;">USD $</text></g></g></svg>