<svg class="main-svg" xmlns="http://www.w3.org/2000/svg" xmlns:xlink="http://www.w3.org/1999/xlink" width="1164" height="600" style="" viewBox="0 0 1164 600"><rect x="0" y="0" width="1164" height="600" style="fill: rgb(255, 255, 255); fill-opacity: 1;"/><defs id="defs-067645"><g class="clips"><clipPath id="clip067645xyplot" class="plotclip"><rect width="931" height="420"/></clipPath><clipPath class="axesclip" id="clip067645x"><rect x="80" y="0" width="931" height="600"/></clipPath><clipPath class="axesclip" id="clip067645y"><rect x="0" y="100" width="1164" height="420"/></clipPath><clipPath class="axesclip" id="clip067645xy"><rect x="80" y="100" width="931" height="420"/></clipPath></g><g class="gradients"/><g class="patterns"/></defs><g class="bglayer"><rect class="bg" x="80" y="100" width="931" height="420" style="fill: rgb(229, 236, 246); fill-opacity: 1; stroke-width: 0;"/></g><g class="layer-below"><g class="imagelayer"/><g class="shapelayer"/></g><g class="cartesianlayer"><g class="subplot xy"><g class="layer-subplot"><g class="shapelayer"/><g class="imagelayer"/></g><g class="minor-gridlayer"><g class="x"/><g class="y"/></g><g class="gridlayer"><g class="x"><path class="xgrid crisp" transform="translate(126.47,0)" d="M0,100v420" style="stroke: rgb(255, 255, 255); stroke-opacity: 1; stroke-width: 1px;"/><path class="xgrid crisp" transform="translate(215.69,0)" d="M0,100v420" style="stroke: rgb(255, 255, 255); stroke-opacity: 1; stroke-width: 1px;"/><path class="xgrid crisp" transform="translate(304.91999999999996,0)" d="M0,100v420" style="stroke: rgb(255, 255, 255); stroke-opacity: 1; stroke-width: 1px;"/><path class="xgrid crisp" transform="translate(394.14,0)" d="M0,100v420" style="stroke: rgb(255, 255, 255); stroke-opacity: 1; stroke-width: 1px;"/><path class="xgrid crisp" transform="translate(483.36,0)" d="M0,100v420" style="stroke: rgb(255, 255, 255); stroke-opacity: 1; stroke-width: 1px;"/><path class="xgrid crisp" transform="translate(572.5899999999999,0)" d="M0,100v420" style="stroke: rgb(255, 255, 255); stroke-opacity: 1; stroke-width: 1px;"/><path class="xgrid crisp" transform="translate(661.81,0)" d="M0,100v420" style="stroke: rgb(255, 255, 255); stroke-opacity: 1; stroke-width: 1px;"/><path class="xgrid crisp" transform="translate(751.03,0)" d="M0,100v420" style="stroke: rgb(255, 255, 255); stroke-opacity: 1; stroke-width: 1px;"/><path class="xgrid crisp" transform="translate(840.25,0)" d="M0,100v420" style="stroke: rgb(255, 255, 255); stroke-opacity: 1; stroke-width: 1px;"/><path class="xgrid crisp" transform="translate(929.48,0)" d="M0,100v420" style="stroke: rgb(255, 255, 255); stroke-opacity: 1; stroke-width: 1px;"/></g><g class="y"><path class="ygrid crisp" transform="translate(0,464.7)" d="M80,0h931" style="stroke: rgb(255, 255, 255); stroke-opacity: 1; stroke-width: 1px;"/><path class="ygrid crisp" transform="translate(0,403.48)" d="M80,0h931" style="stroke: rgb(255, 255, 255); stroke-opacity: 1; stroke-width: 1px;"/><path class="ygrid crisp" transform="translate(0,342.25)" d="M80,0h931" style="stroke: rgb(255, 255, 255); stroke-opacity: 1; stroke-width: 1px;"/><path class="ygrid crisp" transform="translate(0,281.03)" d="M80,0h931" style="stroke: rgb(255, 255, 255); stroke-opacity: 1; stroke-width: 1px;"/><path class="ygrid crisp" transform="translate(0,219.8)" d="M80,0h931" style="stroke: rgb(255, 255, 255); stroke-opacity: 1; stroke-width: 1px;"/><path class="ygrid crisp" transform="translate(0,158.57999999999998)" d="M80,0h931" style="stroke: rgb(255, 255, 255); stroke-opacity: 1; stroke-width: 1px;"/></g></g><g class="zerolinelayer"/><path class="xlines-below"/><path class="ylines-below"/><g class="overlines-below"/><g class="xaxislayer-below"/><g class="yaxislayer-below"/><g class="overaxes-below"/><g class="plot" transform="translate(80,100)" clip-path="url(#clip067645xyplot)"><g class="scatterlayer mlayer"><g class="trace scatter traceedea44" style="stroke-miterlimit: 2; opacity: 1;"><g class="fills"/><g class="errorbars"/><g class="lines"><path class="js-line" d="M0,303.48L9.83,312.26L10.09,315.1L10.36,322.58L10.89,319.33L11.15,316.81L11.95,318.61L12.22,309.32L12.75,309.56L13.01,308.69L13.28,308.9L15.67,309.69L16.2,311.57L16.46,320.64L16.73,324.91L16.99,309.35L17.26,330.83L17.79,323.07L18.06,327.59L18.59,326.95L18.85,329.05L19.12,328.84L19.38,327.72L19.65,329.75L22.04,333.94L22.84,325.11L23.1,322.69L23.9,303.12L24.16,304.78L24.43,310.58L24.96,296.99L25.49,301.4L25.76,301.5L26.02,301.33L28.41,305.7L28.94,302L29.21,297.46L30.01,310.47L30.27,309.31L30.54,306.33L31.07,292.22L31.33,295.5L31.6,297.36L32.13,296.68L32.4,297.83L34.79,299.87L35.05,297.48L35.32,294.19L35.58,297.21L35.85,317.48L37.44,268.02L37.71,272.98L37.97,269.96L38.5,270.35L38.77,270.35L54.17,290.7L54.44,289.57L54.97,290.52L55.23,284.13L55.5,293.24L56.03,286.45L56.3,271.22L56.56,268.48L57.09,270.38L57.36,272.05L57.62,270.78L57.89,271.82L60.28,264.9L60.81,266.2L61.08,271.96L61.34,270.67L61.61,257.63L62.14,246.74L62.4,253.47L62.67,262.19L63.47,263.95L63.73,263.46L64.26,260.8L66.65,260.86L67.98,254.19L68.25,249.76L69.04,261.07L69.31,255.25L69.84,250.72L70.1,251.46L70.37,251.21L70.63,251.1L73.02,248.41L73.29,246L73.82,247.5L74.09,250.91L74.35,252.15L74.62,249.31L75.15,245.35L75.41,263.72L75.68,263.51L75.95,258.97L76.21,258.31L76.48,258.49L76.74,260.08L77.01,258.2L79.4,262.54L79.66,268.15L80.19,264.52L80.46,257.5L80.73,242.41L80.99,259.94L81.26,266.48L81.52,265.39L81.79,271.46L82.05,270.63L82.32,273.98L83.38,277.49L98.52,275.02L99.05,275.4L100.11,255.76L100.38,260.21L100.64,260.75L100.91,259.21L101.17,255.15L101.7,258.53L101.97,273.85L102.23,259.14L102.5,259.9L104.89,258.5L106.22,272.81L106.48,262.71L107.01,250.59L107.28,259.48L107.55,261.04L108.08,253.96L108.34,257.58L108.61,255.83L108.87,256.11L111.26,260.16L111.79,264.9L112.06,262.05L112.33,265.27L112.59,258.73L113.39,274.5L113.65,268.76L115.25,289.84L117.64,295.63L117.9,291.34L118.17,293.12L118.43,297.4L118.7,293.73L118.96,295.41L119.23,303.45L119.76,296.52L120.03,300.28L121.09,317.63L121.35,318.78L121.62,318.35L124.01,312.96L125.07,321.07L125.34,318.89L125.6,330.73L126.13,324.54L126.4,327.32L126.93,338.33L127.46,337.39L127.73,338.67L127.99,337.64L143.13,343.69L143.39,355.5L143.93,347.99L144.19,346.87L144.46,347.25L144.72,335.47L145.25,321.3L145.52,327.62L145.78,330.44L146.05,340.97L146.58,337.73L146.85,337.21L147.11,334.63L149.5,330.62L150.3,325.46L150.56,327.32L150.83,321.59L151.36,324.63L151.63,332.45L152.95,308.97L153.22,312.13L153.48,311.94L156.14,317.04L156.41,314.29L156.94,316.49L157.2,315.59L157.47,318.5L158.8,329.82L159.06,327.27L159.86,340.87L162.25,344.19L162.51,341.37L163.04,343.12L163.31,330.37L164.37,356.74L164.64,352L164.9,339.94L165.43,354.4L165.7,352.31L165.97,347.71L166.23,344.24L168.62,340.04L168.89,339.4L169.15,345.72L169.42,351.78L169.95,350.82L170.21,352.55L170.48,349.58L170.75,360.19L171.28,371.6L171.54,367.36L171.81,366.98L172.07,368.36L172.6,368.07L187.74,354.94L188.54,353.46L188.8,356.35L189.07,342.28L189.33,357.57L189.6,355.02L189.86,363.09L190.13,351.16L190.4,352L191.46,356.06L191.72,355.95L194.11,354.9L194.38,353.68L194.64,354.33L194.91,354.86L196.24,346.39L196.5,337.71L197.03,335.98L197.3,339.65L197.57,338.48L197.83,339.87L198.1,339.44L200.49,337.76L201.28,342.28L201.55,332.76L201.81,331.93L202.08,328.32L202.61,334.91L202.88,334.62L203.14,328.13L203.94,316.07L204.2,316.22L204.47,314.74L207.66,302.11L207.92,295.98L208.19,296.52L208.45,283.35L208.72,285.86L208.98,283.73L209.25,277.69L209.78,274.86L210.05,280.7L210.31,292.05L210.84,288.25L213.23,287.51L213.5,288.2L213.76,286.37L215.36,258.73L215.62,260.35L215.89,257.24L216.42,259.57L216.68,259.38L217.22,259.34L232.35,249.45L232.62,251.24L232.88,266.28L233.94,250.44L234.21,247.36L234.74,256.09L235.01,250.38L235.27,246.38L236.33,250.81L238.72,251.14L238.99,250.93L239.26,270.06L240.32,238.03L240.58,236.19L240.85,235.06L241.11,230.39L241.38,230.91L241.65,228.35L242.44,229.95L242.71,228.88L245.36,230.31L245.63,228.99L245.89,228.68L246.16,229.54L246.43,222.87L246.69,228.19L246.96,231.5L247.22,231.45L247.49,228.56L247.75,229.37L248.02,224.27L249.08,228.23L251.47,230.02L251.74,228.42L252,229.42L252.27,230.97L252.53,231.25L252.8,235.68L254.13,257.98L254.39,253.71L254.66,254.39L254.92,250.29L255.19,256.75L255.45,257.74L257.84,257.98L258.11,258.91L258.38,259.73L258.64,251.74L259.17,241.79L259.44,248.17L260.76,225.8L261.03,227.98L261.3,228.8L261.83,228.25L276.96,227.25L277.76,227.28L278.03,229.35L278.29,238.31L278.56,231.85L278.82,226.2L279.35,231.21L279.62,230.1L279.88,229.93L280.15,229.79L280.42,228.6L280.68,227.96L280.95,224.77L283.34,221.26L283.6,222.25L283.87,239.68L284.13,222.87L284.4,191.7L285.2,195.87L285.46,190.77L285.73,194.37L285.99,187.3L286.26,189.48L286.52,186.8L286.79,186.25L287.32,182.38L289.71,180.92L290.24,174.6L290.51,175.2L290.77,180.12L291.3,159.04L291.57,168.91L291.83,166.72L292.36,164.67L292.63,168.14L292.9,168.84L293.16,171.85L293.43,167.37L293.69,168.65L296.08,169.21L296.35,167.54L296.61,168.79L296.88,172.22L297.41,160.6L297.68,171.16L297.94,171.11L298.21,167.19L298.47,173.75L298.74,171.82L299,166.51L299.27,164.98L299.53,167.6L299.8,167.91L300.07,166.98L302.46,163.26L302.72,160.56L303.25,161.66L303.52,164.95L303.78,176.36L304.31,172.54L304.58,171.01L304.85,169.41L305.11,171.12L305.38,174.07L306.17,178.45L306.44,177.87L321.57,163.76L321.84,166.71L322.11,164.26L322.37,169.85L322.64,170.82L322.9,166.74L323.17,168.49L323.43,165.74L323.7,165.89L324.23,155.76L324.76,157.51L325.03,157.13L325.56,154.57L327.95,155.62L328.21,155.18L328.48,158.73L328.74,158.7L329.01,165.44L329.28,155.73L329.81,159.89L330.07,157.44L330.34,159.2L330.6,157.2L330.87,156.92L331.67,160.14L331.93,160.05L334.32,154.77L335.38,148.44L335.65,152.82L335.91,157.07L336.45,153.68L336.71,151.1L336.98,153.75L337.51,152.67L337.77,153.99L338.3,152.39L347.07,154.32L347.33,154.71L347.6,154.07L347.86,152.6L348.13,153.77L348.39,152.32L348.66,151.67L348.93,155.47L349.46,155.04L349.72,154.04L349.99,153.49L350.25,153.73L350.52,220.8L366.45,156.01L366.72,158.32L368.31,146.86L368.58,146.87L369.37,151.02L369.64,150.94L369.9,150.26L370.17,148.9L372.56,150.49L372.82,149.94L373.09,150.24L373.36,152.24L373.89,149.06L374.15,139.15L374.42,132.16L374.95,134.74L375.21,131.75L376.54,125.99L378.93,121.86L379.2,121.41L379.46,118.57L380.26,110.09L380.53,114.07L381.85,129.48L382.12,128.32L382.38,126.3L382.65,128.67L382.92,126.93L385.31,124.98L385.57,143.14L385.84,125.75L386.1,121.76L387.7,138.36L387.96,131.53L388.23,125.85L388.49,132.51L388.76,131.04L389.02,132.4L389.29,131.54L391.68,126.97L392.74,137.65L393.01,132.13L393.27,132.06L393.54,121.1L394.6,112.75L394.87,114.1L395.66,110.4L410.8,117.98L411.06,117.96L411.33,120.15L411.59,118.25L411.86,125.32L412.13,120.18L412.39,131.2L412.92,117.9L413.45,118.26L413.72,116.11L414.78,117.2L417.17,120.96L417.44,125.49L417.97,122.77L418.23,121.29L418.76,89.33L419.3,95.47L419.56,99.64L419.83,97.7L420.09,100.13L420.36,99.49L420.62,100.53L420.89,98.37L421.15,95.29L423.54,95.63L423.81,94.75L424.08,96.98L424.87,91.86L425.14,97.32L425.4,95.59L425.67,98.43L425.93,99.55L426.2,100.93L426.46,108.5L426.73,111.06L427.26,108.95L427.53,108.69L429.92,108.27L430.18,112.77L430.71,114.18L430.98,110.47L431.24,110.51L431.51,99.24L431.78,98.73L432.04,104.42L432.57,104.26L432.84,102.82L433.1,107.08L433.63,103.49L433.9,103.29L436.29,103.58L436.56,104.93L437.35,107.62L437.62,100.98L437.88,87.56L438.41,92.18L438.68,88.6L439.21,84.76L439.48,85.21L439.74,85.89L440.27,83.95L455.41,88.93L455.67,88.42L455.94,82.78L456.21,83.34L456.47,82.48L456.74,88.09L457,87.82L457.27,92.05L458.6,83.7L458.86,84.58L459.39,82.98L461.78,80.16L462.84,85.63L463.11,84.02L464.17,78.44L464.44,77.65L465.5,71.3L465.77,72.49L468.16,74.07L468.42,76.56L469.22,71.34L469.48,74.05L470.01,83.55L470.55,81.27L470.81,60.65L471.08,60.52L471.34,61.65L471.61,61.19L471.87,58.55L472.14,54.84L474.53,54.56L475.59,48.98L475.86,56.36L476.65,45.1L476.92,54.48L477.45,49.63L477.72,50.43L477.98,50.64L478.25,49.97L478.51,50.58L480.9,40.65L481.7,43.29L481.96,48.12L482.23,49.69L482.49,39.76L482.76,38.52L483.03,39.8L483.29,45.75L484.62,42.34L484.88,42.25L500.29,43.75L500.55,44.76L501.08,40.28L501.61,41.31L501.88,41.66L502.41,37.35L502.68,38.84L502.94,41.57L504,43.54L506.39,38.19L506.66,39.19L506.92,38.16L507.19,35.98L507.46,37.71L507.72,34.73L507.99,29.82L508.25,32.42L508.78,31.69L509.05,31.25L509.31,25.88L509.85,26.28L510.11,28.53L510.38,26.25L512.77,33.27L513.3,33.89L513.83,31.58L514.09,24.51L514.89,21L515.16,22.73L515.42,45.47L515.69,55.34L516.22,51.83L516.48,49.47L516.75,49.05L519.14,42.24L519.41,43.46L519.67,42.88L519.94,41.51L520.2,37.3L520.47,44.67L520.73,45.6L521,46.14L521.26,53.4L522.06,37.2L522.33,57.42L523.12,81.71L525.51,85.38L525.78,85.43L526.04,83.13L526.31,83.29L526.58,80.09L526.84,70.33L527.37,74.61L527.64,73.37L528.7,84.57L528.97,83.26L529.23,83.6L529.5,83.14L551.01,77.25L551.27,124.05L551.54,77.88L551.8,77.59L552.33,80.6L552.6,77.44L553.4,74.57L553.66,74.82L553.93,74.83L554.46,75.9L554.72,74.6L554.99,75.74L557.38,74.33L558.71,70.62L558.97,73.62L559.77,68.96L560.03,73L561.1,68.21L561.36,68.29L564.28,63.99L564.55,64.5L564.81,64.99L565.08,66.47L565.34,62.32L565.88,62.11L566.67,69.94L566.94,69.32L567.2,68.5L567.73,65.92L570.12,66.02L570.66,65.85L570.92,66.91L571.45,67.61L571.72,76.05L572.25,83.07L572.51,77.98L572.78,76.66L574.11,81.19L595.62,78.89L597.21,104.66L597.48,97.06L598.27,111.65L598.54,102.51L599.07,102.14L599.33,104.41L602.26,113.36L602.52,112.79L602.79,118.05L603.05,115.21L603.32,122.09L603.58,126.74L603.85,125.97L604.11,120.87L604.65,121.36L604.91,129.82L605.18,129.2L605.44,131.97L605.97,130.28L608.36,132.78L608.89,135.69L609.16,133.68L609.43,140.59L609.69,131.44L609.96,126.46L611.02,132.25L611.28,140.6L612.35,138.07L614.74,148.36L615.27,150.94L615.53,147.56L615.8,147.81L616.06,137.47L616.33,129.98L616.59,137.65L616.86,143.3L617.13,140.34L617.39,147.97L618.19,144.18L618.45,144.5L618.72,145.8L633.86,150.98L634.12,149.88L634.65,142.47L635.18,144.24L635.45,142.52L636.78,118.91L637.31,121.22L637.57,120.98L637.84,120.88L640.23,123.11L641.29,129.75L641.56,139.17L641.82,140.13L642.09,131.73L642.88,136.14L643.15,133.28L644.21,133.94L646.6,129.24L646.87,128.02L647.13,131.05L647.66,132.92L647.93,135.59L649.26,117.79L649.52,119.52L650.58,117.1L652.97,112.35L653.24,113.05L653.51,112.89L653.77,115.76L654.83,139.23L655.1,132.66L655.9,119.34L656.16,120.74L656.43,121.97L656.96,125.54L659.35,126.82L659.61,131.04L659.88,129.7L660.14,122.31L660.68,115.99L660.94,121.52L661.21,129.86L661.47,124.82L661.74,121.11L662,124.49L662.53,123.78L662.8,123.99L663.07,124.45L663.33,123.75L684.84,138.27L685.11,139.86L685.37,135.05L685.64,130.79L685.9,136.7L686.17,141.15L686.43,129.66L686.7,135.76L686.96,141.98L687.5,139.65L687.76,134.23L688.03,133.1L688.56,133.39L688.82,134.82L691.48,149.37L691.74,145.86L692.01,145.29L692.28,154.22L693.07,148.02L693.34,151.94L693.6,155.55L693.87,152.27L694.13,148.45L694.4,148.39L694.67,149.78L695.2,151.98L697.59,142.11L698.38,133.32L698.65,136.39L699.71,147.79L699.98,146.45L700.51,135.4L701.04,137.71L701.3,136.45L701.57,134.73L703.96,130.24L704.49,121.71L704.76,123.55L705.02,127.23L705.82,125.29L706.08,118.36L706.88,106.2L707.15,106.98L707.41,107.79L707.68,108.25L707.94,107.85L723.08,97.99L723.61,98.88L723.88,96.94L724.14,99.99L724.41,90.34L725.2,108.27L725.47,108.26L726.26,110.6L726.53,110.9L727.06,109.31L729.45,108.76L729.72,109.6L729.98,105.62L730.25,107.12L730.51,105.09L730.78,102.12L731.04,106.68L731.58,104.15L731.84,104.41L732.37,100.54L732.64,97.28L732.9,98.12L733.17,94.89L733.43,94.58L735.82,90.39L736.09,91.85L736.62,91.6L736.89,91.58L737.15,95.92L737.42,91.76L737.68,89.72L737.95,89.58L738.21,93.06L738.75,99.96L739.01,90.6L739.28,82.78L739.81,84.19L742.2,91.28L742.73,89.65L742.99,94.35L743.26,91.3L743.53,71.71L744.06,73.34L744.32,85.77L744.59,92.81L745.12,87.91L745.38,88.41L745.65,124.12L745.92,91.41L746.18,91.93L748.84,89.51L749.1,87.81L749.63,82.08L750.16,83.72L750.43,82.29L750.96,95.77L751.23,93.22L751.49,93.24L751.76,94.98L752.29,93.55L752.55,92.36L767.69,90.81L767.96,89.72L768.49,88.45L768.75,90.65L769.02,93.45L769.28,92.89L769.55,89.3L769.81,90.27L770.08,88.56L770.35,86.31L771.41,72.33L771.67,72.05L774.06,71.75L774.33,70.15L774.59,69.71L774.86,70.78L775.13,71.58L775.39,67.87L776.19,78.66L776.45,76.92L776.72,73.33L776.98,72.57L777.25,85.68L777.52,92.11L777.78,88.33L778.05,82.63L780.44,86.48L780.7,88.47L781.23,81.3L781.5,86.96L781.76,86.05L782.83,93.39L783.09,97.23L783.36,116.76L783.89,114.06L784.15,111.5L784.42,109.73L786.81,106.64L787.61,103.37L787.87,106.82L788.14,104.22L788.4,116.13L789.73,97.42L790,96.14L790.26,103.88L790.79,100.64L793.18,103.39L793.45,105.07L793.71,102.94L793.98,103.86L794.24,116.29L795.31,101.64L795.57,93.5L795.84,88.19L796.1,97.25L796.37,98.79L796.63,97.71L796.9,98.55L797.17,99.19L812.3,102.5L812.57,99.84L812.83,99.82L813.1,97.01L813.89,127.67L814.16,118.68L814.43,111.74L814.69,113.07L814.96,111.06L815.22,116.43L815.49,116.12L815.75,116.36L816.02,117.09L816.28,116.87L818.67,118.67L818.94,119.17L819.21,121.29L819.47,122.36L819.74,117.64L820.27,103.32L820.53,106.86L820.8,105.63L821.06,104.5L821.33,104.67L821.6,98.23L821.86,98.31L822.13,100.09L822.66,98.57L825.05,95.47L825.58,95.37L825.84,94.15L826.11,88.08L826.38,96.56L826.64,91.38L826.91,89.33L827.44,80.57L827.97,81.47L828.23,81.65L828.77,86.23L829.03,85.48L831.42,83.02L831.95,87.02L832.22,85.14L832.48,82.77L833.55,88.29L833.81,83.15L834.08,83.17L834.34,81.02L834.61,80.73L834.87,82.38L837.79,78.62L838.06,77.62L838.86,72.91L839.12,68.36L839.39,68.74L839.65,70.55L840.71,62.18L840.98,62.98L841.25,61.99L841.51,63.14L841.78,63.02L856.91,62.16L857.18,60.78L857.98,65.95L858.24,62.41L858.51,61.85L858.77,59.28L859.57,70.23L860.1,69.07L860.37,69.84L860.9,71.02L863.29,77.94L863.82,79.56L864.08,81.34L864.35,99.5L864.88,96.64L865.14,95.5L865.68,99.74L865.94,109.53L866.74,97.04L867,98.55L867.27,98.44L869.66,88.36L870.19,90.06L870.46,89.03L870.72,92.94L871.52,103.19L871.78,99.04L872.05,97.21L872.31,96.87L872.58,85.63L873.38,82.8L873.64,83.44L876.03,83.04L876.3,84.17L876.56,84.88L876.83,80.6L877.09,82.2L877.36,76.17L877.63,78.3L877.89,75.76L878.16,72.44L879.75,55.9L880.02,56.91L882.41,53.6L882.67,50.99L883.47,64.23L883.73,81.59L884.26,69.15L884.8,70.02L885.06,73.65L885.33,73.52L885.59,75.16L886.12,75.09L886.39,76.32L907.9,83.85L908.16,87.18L908.96,80.37L909.23,92.17L909.76,96.09L910.02,99.89L910.82,91.63L911.08,92.72L911.35,95.28L911.62,93.61L911.88,94.89L914.27,97.76L914.54,94.91L914.8,95.77L915.07,97.9L915.33,98.36L915.6,93.89L916.66,93.87L916.93,100.82L917.99,83.33L918.25,79.53L921.17,69.55L921.44,73.01L921.71,73L921.97,70.4L922.5,75.78L922.77,69.6L923.56,59.81L923.83,61.87L924.1,63.54L924.36,60.72L924.63,64.04L927.02,63.9L927.55,61.31L927.81,59.2L928.08,57.97L928.34,50.12L929.94,64.07L930.2,65.49L930.73,66.91L931,66.54" style="vector-effect: none; fill: none; stroke: rgb(99, 110, 250); stroke-opacity: 1; stroke-width: 2px; opacity: 1;"/></g><g class="points"/><g class="text"/></g><g class="trace scatter trace1fcf2c" style="stroke-miterlimit: 2; opacity: 1;"><g class="fills"/><g class="errorbars"/><g class="lines"><path class="js-line" d="M0,303.48L12.48,304.28L12.75,304.34L19.65,305.54L22.04,305.61L32.4,308.06L34.79,308.12L38.77,309.16L53.91,309.28L57.89,311.09L60.28,311.21L61.87,312.73L62.14,313.67L70.63,315.18L73.02,315.25L74.35,315.56L74.62,317.55L77.01,329.38L79.4,330.7L81.52,337.73L81.79,337.89L83.38,338.93L98.52,339.1L102.5,342.98L104.89,343L113.12,343.46L113.39,344.66L113.65,340.92L114.18,341.45L114.45,341.72L114.72,341.98L114.98,345.52L115.25,345.7L117.64,345.89L118.43,346.45L118.7,345.53L119.23,343.7L119.5,344.16L119.76,344.62L121.09,339.8L121.35,339.64L121.62,339.49L124.01,339.33L126.13,338.69L126.4,338.85L127.73,340.23L127.99,341.19L143.13,342.14L143.39,337.3L144.46,335.45L144.99,335.78L145.25,335.94L146.58,336.03L146.85,335.83L147.11,335.64L149.5,335.44L150.83,334.47L151.09,325.14L153.48,328.69L155.87,328.98L158.53,330.91L158.8,330.97L164.9,332.31L165.17,332.62L165.43,330.74L165.97,331.56L166.23,331.97L169.15,333.2L169.42,333.61L169.95,334.43L170.21,333.81L170.48,333.2L170.75,332.59L171.01,333.53L171.28,338.81L172.6,338.49L187.74,338.43L189.33,338.05L189.6,331.99L190.66,324.69L190.93,324.28L191.72,323.04L194.11,322.63L195.18,322.34L195.44,322.38L202.35,323.69L202.61,324.28L203.41,326.05L203.67,325.28L203.94,324.52L204.47,323L206.86,322.24L207.92,325.82L208.19,324.46L209.25,329.29L209.51,325.47L210.58,327.03L210.84,326.11L213.23,325.19L214.29,331.57L214.56,330.62L214.83,329.67L215.62,330.62L215.89,330.63L217.22,330.69L232.35,330.7L233.68,321.91L234.21,322.84L234.48,322.78L240.32,321.99L240.58,320.95L241.11,322.5L241.38,321.56L241.65,320.62L242.71,319.26L245.1,318.92L246.96,317.33L247.22,317.39L253.33,318.26L253.6,319.26L254.92,324.68L255.19,324.9L255.45,325.12L257.84,325.34L261.83,328.63L276.96,328.85L279.62,330.8L279.88,330.54L280.95,329.49L283.34,323.91L284.93,329.18L285.2,328.88L285.46,328.58L285.99,327.97L286.26,326.13L286.79,324.29L287.05,320.46L287.32,319.85L289.71,319.23L290.77,318.29L291.04,318.18L293.69,317.08L296.08,316.97L300.07,314.92L302.46,314.77L306.44,311.15L321.57,310.9L325.56,301.29L327.95,300.76L329.01,300.23L329.28,300.24L348.66,299.54L348.93,299.49L350.52,299.14L366.19,299.09L368.31,298.63L368.58,299.57L376.28,301.42L376.54,299.55L378.93,295.48L379.2,292.88L379.73,288.24L380.26,288.54L380.53,290.44L382.92,291.55L385.31,291.67L388.23,292.54L388.49,295.58L389.29,296.28L391.68,296.52L394.33,292.75L394.6,292.72L395.66,292.62L410.8,292.6L412.39,291.73L412.66,290.99L413.19,289.5L413.72,290.14L413.98,289.94L414.78,289.33L417.17,289.12L421.15,285.72L423.54,285.48L426.2,284.06L426.46,284.02L440.27,282.51L455.41,282.47L455.67,282.42L455.94,278.52L458.33,271.3L458.6,270.89L459.39,269.65L461.78,269.24L469.48,267.46L469.75,268.39L470.01,268.98L470.28,267.67L471.34,265.01L471.61,264.98L474.53,264.27L474.79,263.92L475.86,262.3L476.12,262.7L476.39,263.1L478.51,262.29L480.9,262.18L484.88,258.62L500.02,258.38L502.41,257.09L502.68,257.07L510.11,255.78L510.38,255.65L514.09,254.91L514.36,254.45L515.69,253.3L515.95,253.41L516.75,253.76L519.14,253.88L522.33,255.26L522.59,273.29L523.12,273.67L525.51,273.86L526.31,273.75L526.58,273.6L529.5,271.92L551.01,271.77L554.99,269.49L557.38,269.33L559.24,268.92L559.5,269.1L560.57,268.91L560.83,268.64L561.36,268.11L563.75,267.84L564.02,267.57L564.28,264.79L565.61,261.37L566.14,261.61L566.41,261.72L567.73,262.3L570.12,262.41L571.98,263.22L572.25,264.22L574.11,264.4L595.62,264.42L596.94,264.55L597.21,262.71L598.01,258.76L598.27,259.71L598.54,260.11L599.6,261.69L601.99,262.08L603.32,264.05L603.58,262.21L605.97,263.96L608.36,264.15L609.43,265.06L609.69,266.86L610.22,265.38L610.75,265.85L611.02,266.09L611.28,266.32L611.55,265.39L612.35,262.61L614.74,261.69L616.06,259.2L616.33,258.81L618.72,260.13L633.86,260.28L635.18,260.22L635.45,260.17L643.95,258.39L644.21,258.26L648.19,257.89L648.46,258.26L649.26,259.37L649.52,259.06L649.79,258.75L650.58,257.82L652.97,257.52L654.04,255.58L654.3,251.99L655.36,248.54L655.63,248.35L656.69,247.56L656.96,245.62L659.61,243.79L659.88,241.9L660.94,239.55L661.21,239.41L663.33,238.21L684.84,238.07L685.9,225.01L686.17,225.06L686.43,225.11L692.81,225.88L693.07,224.64L694.4,221.61L694.67,221.42L695.2,221.05L697.59,220.86L699.71,218.5L699.98,217.88L701.57,216.9L703.96,219.43L705.29,213.64L705.55,213.32L706.35,212.37L706.61,210.49L707.68,207.83L707.94,208.29L723.08,208.75L725.73,204.37L726,204.38L737.42,204.65L737.68,200.07L739.81,161.66L742.2,158.05L742.99,154.28L743.26,143.79L743.79,131.95L744.06,134.05L744.32,136.16L746.18,146.83L748.57,146.9L752.55,147.89L767.69,147.95L770.61,148.68L770.88,151.53L771.67,156.14L774.06,158.87L775.66,156.98L775.92,157.7L776.19,157.71L790.79,158.23L793.18,158.26L797.17,158.69L812.3,158.72L813.63,158.86L813.89,160.14L825.58,161.19L825.84,161.75L826.11,162.31L826.64,161.81L826.91,161.56L829.03,160.14L831.42,160.04L835.4,158.47L837.79,158.36L838.59,159.29L838.86,157.47L839.12,158.47L839.39,157.5L839.65,157.04L841.78,153.81L856.91,154.78L864.88,155.58L865.14,155.52L873.64,154.02L876.03,153.95L877.36,153.64L877.63,154.49L877.89,155.35L878.16,154.42L878.42,153.49L878.95,150.69L879.22,151.36L879.48,152.5L880.02,143.89L882.41,143.86L886.39,142.61L907.9,142.52L909.49,142.02L909.76,143.94L910.55,148.96L910.82,149.05L916.13,149.93L916.4,149.94L917.99,150.12L918.25,150.43L920.64,151.36L920.91,150.26L924.63,134.87L927.02,133.77L931,117.28" style="vector-effect: none; fill: none; stroke: rgb(239, 85, 59); stroke-opacity: 1; stroke-width: 2px; opacity: 1;"/></g><g class="points"/><g class="text"/></g><g class="trace scatter trace0598ef" style="stroke-miterlimit: 2; opacity: 1;"><g class="fills"/><g class="errorbars"/><g class="lines"><path class="js-line" d="M0,303.48L18.32,304.26L18.59,304.29L36.91,305.65L37.18,305.68L38.77,305.86L53.91,305.89L70.63,307.31L73.02,307.34L83.38,308.27L98.52,308.3L112.86,309.22L113.12,311.1L113.39,315.7L113.92,314.3L114.18,314.77L114.72,315.72L114.98,322.44L115.25,323.37L117.64,324.29L119.76,322.44L120.03,322.76L120.29,323.07L121.62,324.66L124.01,324.98L127.99,329.75L143.13,330.06L144.99,332.04L145.25,331.92L147.11,331.12L149.5,331L150.83,330.43L151.09,321.19L153.48,319.3L155.87,319.33L162.78,320.5L163.04,320.81L163.84,321.75L164.11,323.74L165.17,328.85L165.43,329.58L166.23,330.74L168.62,331.12L169.95,333.05L170.21,335.99L171.01,336.96L171.28,349.65L172.6,354.41L187.74,355.37L189.86,365.22L190.4,364.93L190.66,364.79L191.72,364.22L194.11,364.08L198.1,361.95L200.49,361.81L204.47,359.68L206.86,359.54L209.25,349.31L209.51,348.71L210.84,345.68L213.23,345.07L214.56,342.04L214.83,323.94L215.89,318.06L216.15,317.94L217.22,317.48L232.35,317.36L236.33,315.62L238.72,315.5L239.52,315.15L239.79,314.19L240.05,313.22L240.32,307.63L240.58,303.9L241.11,304.18L241.38,304.32L242.71,305.03L245.1,305.17L249.08,307.31L251.47,307.45L255.45,309.64L257.84,309.79L261.83,308.92L276.96,308.86L283.6,307.31L283.87,306.7L284.13,306.08L284.4,290.3L286.79,286.57L287.05,280.41L287.32,279.48L289.71,278.55L293.69,266.86L296.08,265.98L297.41,261.63L297.94,262.09L298.21,262.32L298.47,262.56L298.74,260.72L299,258.81L299.53,259.75L299.8,260.22L300.07,260.69L302.46,260.5L306.44,258.69L321.57,258.57L323.7,245.81L323.96,242.09L325.03,237.57L325.29,237.31L325.56,237.05L327.95,236.78L331.4,232.3L331.67,231.94L331.93,231.59L334.32,231.24L335.91,229.13L336.18,225.4L337.24,214.49L337.51,214.35L338.3,213.92L347.07,213.78L350.52,211.2L366.19,210.95L368.31,208.29L368.58,207.36L370.17,206.56L372.56,206.43L374.95,204.58L375.21,204.12L376.28,203.55L376.54,203.51L378.93,203.47L379.2,202.55L380.79,199.32L381.06,199.14L382.92,197.89L385.31,197.72L387.96,195.94L388.23,196.56L388.49,197.19L389.29,194.41L391.68,193.48L395.4,184.75L395.66,184.68L413.45,183.88L413.72,183.81L418.5,183.08L418.76,174.55L427.53,172.98L429.92,172.92L440.27,170.97L455.41,170.91L455.94,170.78L456.21,169.5L457.53,166.67L457.8,166.58L463.64,165.35L463.91,165.26L464.7,164.41L464.97,163.74L465.77,161.72L468.16,161.05L469.48,157.69L469.75,158.16L470.01,158.63L471.34,148.65L471.61,148.51L472.14,148.22L474.53,148.07L476.39,147.06L476.65,145.15L478.51,143.57L480.9,143.35L482.49,140.11L482.76,139.76L484.88,136.95L500.02,136.6L503.74,132.95L504,132.74L507.46,131.7L507.72,131.49L508.25,130.25L508.52,129.23L510.38,124.58L512.77,124.21L514.09,122.36L514.36,116.83L515.16,109.37L515.42,109.47L515.69,109.56L516.75,109.96L519.14,110.06L522.33,111.24L522.59,136.8L523.12,137.75L525.51,138.22L526.58,138.76L526.84,138.63L529.5,137.35L551.01,137.22L554.99,135.29L557.38,135.16L559.24,134.81L559.5,134.96L560.3,134.79L560.57,134.33L561.36,132.94L563.75,132.48L565.08,131.41L565.34,131.36L574.11,130.15L595.62,130.1L597.74,129.71L598.01,127.87L599.07,132.96L599.33,133.72L599.6,134.49L601.99,135.26L603.58,140.99L603.85,143.8L605.44,144.34L605.71,147.91L605.97,151.48L608.36,155.05L610.22,162.85L610.49,163.01L611.55,164.43L611.82,165.37L612.35,167.27L614.74,168.22L615.53,170.99L616.06,170.49L616.33,170.24L618.72,171.95L633.86,172.11L635.18,173.2L635.45,173.25L644.21,174.5L646.6,174.55L654.57,175.98L654.83,176.92L656.69,178.77L656.96,181.94L659.35,185.12L659.61,183.85L660.68,181.38L660.94,181.4L663.33,181.64L684.84,181.66L685.11,179.82L685.64,179.94L685.9,180.01L691.74,180.62L692.01,180.56L701.57,178.9L703.96,167.43L705.29,149.52L705.55,148.73L706.35,146.34L706.61,133.19L707.41,129.09L707.68,128.97L707.94,128.84L723.08,128.72L727.06,131.14L729.45,131.23L733.43,132.63L735.82,132.72L739.01,133.84L739.28,136.69L739.81,127.68L742.2,123.17L743.53,100.65L744.06,102.91L744.32,104.42L746.18,119.58L748.57,119.61L752.55,119.96L767.69,119.98L797.17,121.83L812.3,121.85L822.66,121.91L825.05,121.9L838.06,121.33L838.32,120.87L838.86,119.94L839.12,115.85L840.45,113.8L840.71,110.12L841.78,108.61L856.91,108.23L878.42,106.24L878.69,100.43L880.02,85.92L882.41,84.88L886.39,85.59L907.9,85.64L909.23,85.88L909.49,83.66L910.82,87.94L911.08,88.07L911.88,88.45L914.27,88.57L916.13,90.22L916.4,90.73L916.93,92.16L917.19,91.24L917.46,90.32L918.25,88.48L920.64,88.29L924.36,85.45L924.63,84.99L927.28,84.06L927.55,83.59L927.81,83.13L928.08,78.46L929.94,57.77L930.2,54.96L931,46.55" style="vector-effect: none; fill: none; stroke: rgb(0, 204, 150); stroke-opacity: 1; stroke-width: 2px; opacity: 1;"/></g><g class="points"/><g class="text"/></g><g class="trace scatter tracefdcc5c" style="stroke-miterlimit: 2; opacity: 1;"><g class="fills"/><g class="errorbars"/><g class="lines"><path class="js-line" d="M0,303.48L17.79,304.25L18.06,304.29L38.77,306.03L53.91,306.06L64.26,307.07L66.65,307.1L83.38,308.62L98.52,308.65L112.86,309.57L113.12,311.45L113.39,316.05L113.92,314.92L114.18,315.66L114.72,317.14L114.98,323.1L115.25,324.04L117.64,326.84L119.76,324.99L120.03,325.72L120.29,326.45L121.62,330.12L124.01,330.85L127.99,341.85L143.13,342.59L144.19,343.63L144.46,343.73L147.11,342.58L149.5,342.47L150.83,341.89L151.09,332.65L153.48,330.8L155.87,330.85L162.78,332.28L163.04,332.6L163.84,333.54L164.11,335.52L164.64,339.56L164.9,342.68L166.23,350.91L168.62,351.58L169.95,354.92L170.21,357.86L172.07,372.41L172.34,372.87L172.6,373.34L187.74,373.8L189.33,376.59L189.6,380.98L189.86,385.36L190.4,385.08L190.66,384.93L191.72,384.37L194.11,384.22L198.1,382.09L200.49,381.95L204.47,379.82L206.86,379.68L208.98,353.64L209.25,353.04L210.84,349.4L213.23,348.79L214.56,345.76L214.83,327.03L215.89,321.1L216.15,320.96L217.22,320.4L232.35,320.26L236.33,318.17L238.72,318.03L239.79,316.65L240.05,315.69L240.58,306.36L241.11,306.45L241.38,306.49L249.08,307.44L251.47,307.48L254.66,308.56L254.92,308.88L255.45,309.5L257.84,309.82L279.62,310.14L279.88,309.83L280.95,308.59L283.34,308.27L284.13,306.54L284.4,302.7L286.79,298.96L287.05,282.83L287.32,277.2L289.71,271.58L293.69,259.15L296.08,258.3L297.41,254.04L297.94,254.5L298.21,254.73L298.47,254.97L298.74,253.13L299,248.72L299.53,249.66L299.8,250.13L300.07,250.6L302.46,250.51L306.44,249.2L321.57,249.11L324.76,239.65L325.03,239.38L325.56,238.86L327.95,238.59L331.4,234.11L331.67,233.76L331.93,233.4L334.32,233.05L335.91,230.94L336.18,227.21L337.24,215.7L337.51,215.56L338.3,215.17L347.07,215.03L350.52,213.31L366.19,213.18L368.31,211.32L368.58,210.39L370.17,208.63L372.56,208.34L376.54,204.29L378.93,204.25L379.73,203.43L379.99,202.78L381.32,201.42L381.59,201.24L382.92,200.35L385.31,200.17L387.96,198.4L388.23,199.02L388.49,199.65L389.29,196.86L391.68,195.94L394.87,188.11L395.13,188.06L395.66,187.97L410.8,187.93L413.45,186.92L413.72,186.33L414.78,183.93L417.17,183.33L418.5,180.34L418.76,176.61L427.53,175.04L429.92,174.98L438.41,173.47L438.68,173.4L440.27,173.03L455.41,172.96L455.94,172.84L456.21,171.56L457.53,168.73L457.8,168.64L463.64,167.41L463.91,167.32L464.7,166.47L464.97,165.79L465.77,163.77L468.16,163.09L469.48,159.72L469.75,160.19L470.01,160.66L471.34,150.68L471.61,150.54L472.14,150.25L474.53,150.1L476.39,149.08L476.65,142.97L478.51,141.39L480.9,141.17L482.23,137.21L482.49,137.11L484.88,136.19L500.02,136.09L501.08,135.68L501.35,127.31L504,125.22L506.39,125.01L508.78,123.38L509.05,116.84L510.38,115.35L512.77,115.05L515.69,111.91L515.95,112L522.33,113.6L522.59,139.52L523.12,140.09L525.51,140.38L526.58,140.46L526.84,140.4L529.5,139.73L551.01,139.67L558.71,138.28L558.97,138.45L560.03,139.56L560.3,138.65L561.36,135.03L563.75,134.12L565.08,132.16L565.34,132.12L574.11,130.9L595.62,130.86L597.74,130.47L598.01,128.63L599.07,133.98L599.33,134.73L599.6,135.48L601.99,136.23L603.58,141.85L603.85,144.66L605.44,145.58L605.71,149.14L605.97,152.7L608.36,156.26L609.96,163.28L610.22,163.53L611.28,164.52L611.55,166.02L612.35,170.53L614.74,172.03L615.53,173.71L615.8,173.46L616.06,173.21L616.33,172.96L616.59,173.35L616.86,173.74L618.72,175.31L633.86,175.47L634.39,176.41L634.92,175.92L635.18,175.68L637.84,173.28L640.23,173.04L644.21,169.43L646.6,169.19L650.58,165.59L652.97,165.35L654.3,164.15L654.57,165.19L655.9,167.19L656.16,167.45L656.69,167.98L656.96,171.15L659.35,174.33L659.61,173.06L660.14,170.54L660.68,170.67L660.94,170.74L663.33,171.36L684.84,171.43L685.11,169.98L685.64,170.1L685.9,170.16L691.74,170.72L692.01,170.63L703.96,166.71L704.22,160.87L705.55,145.63L705.82,143.28L706.61,132.39L707.15,132.89L707.41,133.15L707.94,133.65L723.08,133.9L727.06,137.23L729.45,137.39L733.43,139.81L735.82,139.97L739.01,141.91L739.28,139.39L739.81,131.13L742.2,126.99L743.53,106.34L743.79,110.24L744.06,113.47L744.85,132.67L745.12,140.65L746.18,156.66L748.57,156.69L752.55,157.04L767.69,157.06L797.17,158.91L812.3,158.93L818.94,158.74L819.21,158.71L835.4,157.36L837.79,157.33L838.86,157.21L839.12,155.25L840.71,133.41L840.98,133.38L841.78,133.28L856.91,133.25L878.42,131.42L878.69,124.63L879.75,110.68L880.02,109.61L883.2,108.92L883.47,109.06L886.39,110.5L907.9,110.63L909.23,111.29L909.49,107.6L910.55,115.96L910.82,116.26L911.88,117.43L914.27,117.72L915.6,119.18L915.86,118.89L916.13,118.59L916.66,117.99L916.93,119.67L918.25,115.14L920.64,113.78L922.77,109.79L923.03,109.7L927.55,108.9L927.81,107.03L929.67,94.3L929.94,92L931,82.79" style="vector-effect: none; fill: none; stroke: rgb(171, 99, 250); stroke-opacity: 1; stroke-width: 2px; opacity: 1;"/></g><g class="points"/><g class="text"/></g><g class="trace scatter trace3bd9d6" style="stroke-miterlimit: 2; opacity: 1;"><g class="fills"/><g class="errorbars"/><g class="lines"><path class="js-line" d="M0,303.48L18.32,304.26L18.59,304.29L36.91,305.65L37.18,305.68L38.77,305.86L53.91,305.89L70.63,307.31L73.02,307.34L83.38,308.27L98.52,308.3L112.86,309.22L113.12,311.1L114.18,319.05L114.45,320.17L114.72,321.29L114.98,328.01L115.25,328.94L117.64,329.86L121.62,333.47L124.01,333.71L127.99,337.33L143.13,337.57L145.52,339.75L145.78,339.77L162.78,340.96L163.04,341.27L163.84,342.21L164.11,344.19L165.17,349.31L165.43,350.04L166.23,350.47L168.62,350.61L169.95,351.33L170.21,354.27L172.34,367.69L172.6,368.65L187.74,369.61L188.01,370.57L189.86,379.45L190.4,379.27L190.66,379.17L198.1,377.28L200.49,377.19L204.47,375.77L206.86,375.68L209.51,364.27L209.78,363.55L210.84,360.67L213.23,359.95L214.56,356.34L214.83,342.84L215.89,340.57L216.15,340.44L217.22,339.9L232.35,339.76L236.33,337.75L238.72,337.61L239.52,337.21L239.79,335.37L241.38,322.91L241.65,322.74L242.71,322.06L245.1,321.89L249.08,319.2L251.47,319L253.06,316.94L253.33,316.32L254.92,321.76L255.19,321.91L255.45,322.06L257.84,322.22L261.83,321.34L276.96,321.28L283.6,319.73L283.87,319.12L284.13,318.51L284.4,302.73L286.79,298.99L287.05,292.83L287.32,291.9L289.71,290.98L293.69,279.28L296.08,278.41L297.41,274.05L297.94,274.52L298.21,274.75L298.47,274.98L298.74,273.14L299,271.24L299.53,272.18L299.8,272.65L300.07,273.12L302.46,272.79L306.44,267.89L321.57,267.57L323.17,265L323.43,264.08L325.03,252.12L325.29,251.86L325.56,251.6L327.95,251.33L331.4,246.85L331.67,246.49L331.93,246.14L334.32,245.79L335.91,243.68L336.18,239.95L337.24,229.04L337.51,228.9L338.3,228.47L347.07,228.33L350.52,225.75L366.19,225.5L368.31,222.84L368.58,221.91L370.17,221.11L372.56,220.98L374.95,219.13L375.21,218.67L376.28,218.1L376.54,218.06L379.2,217.56L379.46,217.09L379.99,216.17L380.26,212.29L382.92,210.51L385.31,210.33L387.96,208.55L388.23,209.18L388.49,209.8L389.29,207.02L391.68,206.09L393.8,203.29L394.07,202.37L395.66,201.96L410.8,201.89L418.5,200.48L418.76,191.95L421.15,190.97L423.54,190.86L425.4,190.1L425.67,188.5L427.53,186.3L429.92,185.99L433.9,181.29L436.29,180.97L440.27,176.27L455.41,175.96L455.94,175.33L456.21,172.77L456.74,167.66L457.27,167.72L457.53,167.74L470.01,168.6L470.28,167.96L472.14,164.38L474.53,163.92L478.25,157.4L478.51,157.17L480.9,156.94L481.17,156.03L482.49,153.7L482.76,153.35L484.88,150.54L500.02,150.19L503.74,146.55L504,146.34L507.46,145.29L507.72,145.08L508.25,143.85L508.52,142.83L510.38,138.18L512.77,137.81L514.09,135.95L514.36,130.43L514.63,124.81L515.16,125.83L515.42,126.33L516.75,128.87L519.14,129.38L523.12,137.89L525.51,137.77L529.5,136.05L551.01,135.93L554.99,134.2L557.38,134.09L560.03,132.09L560.3,131.8L561.36,130.66L563.75,130.38L565.34,129.62L565.61,129.57L574.11,128.41L595.62,128.36L597.74,127.97L598.01,126.13L599.33,131.03L599.6,131.8L602.26,133.34L602.52,134.11L604.65,140.43L604.91,140.52L605.44,140.7L605.71,142.3L605.97,143.9L608.36,145.5L609.69,151.14L609.96,151.3L611.55,153.03L611.82,153.98L612.35,155.87L614.74,156.82L615.53,159.59L616.06,159.09L616.33,158.84L618.72,160.55L633.86,160.71L644.21,162.21L646.6,162.26L654.57,163.64L654.83,164.59L656.69,166.44L656.96,169.61L659.35,172.78L659.61,171.52L660.14,168.99L660.68,169.33L660.94,169.5L663.33,171.01L684.84,171.18L685.11,169.34L685.64,170.23L685.9,170.67L688.82,175.55L691.21,176L692.28,177.85L692.54,179.77L701.57,177.93L703.96,166.46L705.29,148.55L705.55,147.76L706.35,145.37L706.61,132.22L707.94,125.2L723.08,123.77L726.26,125.55L726.53,125.46L733.43,123.88L735.82,124.12L739.01,127.04L739.28,129.9L739.81,120.88L742.2,116.38L743.53,93.85L744.06,96.34L744.32,97.84L746.18,112.96L748.57,112.96L770.08,113.01L770.35,113.01L813.63,113.15L813.89,115.61L835.4,113.9L837.79,113.87L839.12,113.56L839.39,112.63L841.78,106.32L856.91,105.94L878.42,103.95L878.69,98.14L880.02,83.62L882.41,82.58L886.39,83.3L907.9,83.35L909.23,83.59L909.49,81.37L910.55,85.44L910.82,85.52L915.86,86.84L916.13,87.35L916.93,88.65L917.19,87.73L918.25,84.97L920.64,84.78L924.36,81.94L924.63,81.48L927.28,80.55L927.55,80.09L927.81,79.62L928.08,74.96L930.2,49.31L930.47,46.15L931,39.83" style="vector-effect: none; fill: none; stroke: rgb(255, 161, 90); stroke-opacity: 1; stroke-width: 2px; opacity: 1;"/></g><g class="points"/><g class="text"/></g><g class="trace scatter traceb0ba41" style="stroke-miterlimit: 2; opacity: 1;"><g class="fills"/><g class="errorbars"/><g class="lines"><path class="js-line" d="M0,303.48L17.79,304.25L18.06,304.29L38.77,306.03L53.91,306.06L64.26,307.07L66.65,307.1L83.38,308.62L98.52,308.65L112.86,309.57L113.12,311.45L114.45,321.38L114.72,322.71L115.25,329.59L117.64,332.37L121.62,340.69L124.01,341.24L127.99,349.56L143.13,350.11L144.19,351L144.46,351.11L162.78,352.7L163.04,353.01L163.84,353.95L164.11,355.93L164.64,359.96L164.9,363.06L166.23,369.91L168.62,370.13L169.95,371.2L170.21,374.14L172.07,385.72L172.34,386.23L172.6,386.75L187.74,387.26L189.33,390.36L189.6,394.68L189.86,399L190.4,398.81L190.66,398.72L194.11,398.24L194.38,398.15L204.47,395.32L206.86,395.22L208.98,368.81L209.25,368.09L210.84,363.77L213.23,363.05L214.56,359.44L214.83,345.94L215.89,343.67L216.15,343.54L217.22,343L232.35,342.87L236.33,340.85L238.72,340.71L239.52,340.31L239.79,338.47L241.38,325.98L241.65,325.77L242.71,324.96L245.1,324.75L249.08,321.68L251.47,321.48L253.06,319.42L253.33,318.81L255.45,322.09L257.84,322.41L261.83,321.53L276.96,321.47L283.6,319.95L283.87,319.36L284.13,318.76L284.4,314.63L286.79,310.9L287.05,295.03L287.32,289.41L289.71,283.78L293.69,271.35L296.08,270.5L297.41,266.24L297.94,266.7L298.21,266.94L298.47,267.17L298.74,265.33L299,260.92L299.53,261.86L299.8,262.33L300.07,262.8L302.46,262.57L306.44,259.02L321.57,258.78L323.96,255.72L324.23,253.87L325.56,252.55L327.95,252.29L331.93,247.1L334.32,246.74L335.91,244.63L336.18,240.9L337.24,229.39L337.51,229.25L338.3,228.86L347.07,228.72L350.52,227L366.19,226.87L368.31,225.01L368.58,224.08L370.17,223.11L372.56,222.95L376.54,220.47L378.93,220.43L379.99,218.58L380.26,214.7L382.92,212.92L385.31,212.74L387.96,210.96L388.23,211.59L388.49,212.22L389.29,209.43L391.68,208.5L393.8,205.7L394.07,204.78L395.66,203.24L410.8,202.98L414.78,199.13L417.17,198.87L418.5,197.59L418.76,193.86L421.15,191.5L423.54,191.23L427.53,187.28L429.92,187.02L433.9,183.07L436.29,182.81L440.27,178.86L455.41,178.6L455.94,178.07L456.21,175.82L457.27,171.38L457.53,171.4L470.01,172.26L470.28,171.09L471.87,166.9L472.14,166.44L474.79,165.51L475.06,165.05L476.39,162.7L476.65,156.59L478.51,155.01L480.9,154.78L482.23,150.83L482.49,150.73L484.88,149.81L500.02,149.71L501.08,149.3L501.35,140.93L504,138.84L506.39,138.63L508.78,137L509.05,130.46L510.38,128.83L512.77,128.51L514.09,126.88L514.36,127.95L516.75,137.63L519.14,138.7L523.12,153.39L525.51,153.33L529.5,152.39L551.01,152.33L558.97,150.47L559.24,149.93L561.36,145.6L563.75,145.06L565.08,143.84L565.34,143.79L574.11,142.58L595.62,142.53L597.74,142.14L598.01,140.3L599.33,145.5L599.6,146.26L602.26,147.78L602.52,148.54L604.65,155.03L604.91,155.18L605.44,155.49L605.71,157.09L605.97,158.69L608.36,160.29L609.69,165.22L609.96,165.44L611.28,166.58L611.55,168.09L612.35,172.63L614.74,174.14L615.53,175.82L615.8,175.57L616.06,175.32L616.33,175.06L616.59,175.46L616.86,175.85L618.72,177.42L633.86,177.58L650.58,176.37L652.97,176.34L654.3,176.21L654.57,177.29L655.63,179.03L655.9,179.29L656.69,180.09L656.96,183.26L659.35,186.43L659.61,185.17L660.14,182.64L660.68,183.1L660.94,183.33L663.33,185.39L684.84,185.62L688.82,191.86L691.21,192.28L693.07,195.29L693.34,195.19L695.2,194.48L697.59,194.38L701.57,192.85L703.96,181.07L705.55,159.99L705.82,157.64L707.68,143.2L707.94,142.08L723.34,141.37L723.61,141.77L726.26,144.72L726.53,144.59L727.06,144.34L729.45,144.22L733.43,142.32L735.82,142.74L739.01,147.82L739.28,145.28L739.81,137.02L742.2,132.89L743.53,112.23L743.79,116.18L744.06,119.43L744.85,138.64L745.12,146.62L746.18,162.63L748.57,162.66L752.55,163.01L767.69,163.03L797.17,164.88L812.3,164.9L819.74,164.74L820,164.72L838.86,163.71L839.12,162.09L840.98,154.48L841.25,154.45L841.78,154.39L856.91,154.35L878.42,152.52L878.69,145.72L879.75,131.76L880.02,130.7L883.2,130.02L883.47,130.15L886.39,131.58L907.9,131.71L909.23,132.36L909.49,128.68L910.55,136.7L910.82,136.84L911.88,137.38L914.27,137.51L915.86,137.89L916.13,137.59L916.66,136.99L916.93,137.9L918.25,133.36L920.64,132L922.77,128.01L923.03,127.92L927.55,127.12L927.81,125.25L929.14,115.3L929.41,112.08L931,92.78" style="vector-effect: none; fill: none; stroke: rgb(25, 211, 243); stroke-opacity: 1; stroke-width: 2px; opacity: 1;"/></g><g class="points"/><g class="text"/></g></g></g><g class="overplot"/><path class="xlines-above crisp" d="M0,0" style="fill: none;"/><path class="ylines-above crisp" d="M0,0" style="fill: none;"/><g class="overlines-above"/><g class="xaxislayer-above"><g class="xtick"><text text-anchor="middle" x="0" y="537" transform="translate(126.47,0)" style="font-family: 'Open Sans', verdana, arial, sans-serif; font-size: 16px; fill: rgb(42, 63, 95); fill-opacity: 1; white-space: pre; opacity: 1;"><tspan class="line" dy="0em" x="0" y="537">Oct 8</tspan><tspan class="line" dy="1.3em" x="0" y="537">2023</tspan></text></g><g class="xtick"><text text-anchor="middle" x="0" y="537" style="font-family: 'Open Sans', verdana, arial, sans-serif; font-size: 16px; fill: rgb(42, 63, 95); fill-opacity: 1; white-space: pre; opacity: 1;" transform="translate(215.69,0)">Oct 22</text></g><g class="xtick"><text text-anchor="middle" x="0" y="537" style="font-family: 'Open Sans', verdana, arial, sans-serif; font-size: 16px; fill: rgb(42, 63, 95); fill-opacity: 1; white-space: pre; opacity: 1;" transform="translate(304.91999999999996,0)">Nov 5</text></g><g class="xtick"><text text-anchor="middle" x="0" y="537" style="font-family: 'Open Sans', verdana, arial, sans-serif; font-size: 16px; fill: rgb(42, 63, 95); fill-opacity: 1; white-space: pre; opacity: 1;" transform="translate(394.14,0)">Nov 19</text></g><g class="xtick"><text text-anchor="middle" x="0" y="537" style="font-family: 'Open Sans', verdana, arial, sans-serif; font-size: 16px; fill: rgb(42, 63, 95); fill-opacity: 1; white-space: pre; opacity: 1;" transform="translate(483.36,0)">Dec 3</text></g><g class="xtick"><text text-anchor="middle" x="0" y="537" style="font-family: 'Open Sans', verdana, arial, sans-serif; font-size: 16px; fill: rgb(42, 63, 95); fill-opacity: 1; white-space: pre; opacity: 1;" transform="translate(572.5899999999999,0)">Dec 17</text></g><g class="xtick"><text text-anchor="middle" x="0" y="537" style="font-family: 'Open Sans', verdana, arial, sans-serif; font-size: 16px; fill: rgb(42, 63, 95); fill-opacity: 1; white-space: pre; opacity: 1;" transform="translate(661.81,0)">Dec 31</text></g><g class="xtick"><text text-anchor="middle" x="0" y="537" style="font-family: 'Open Sans', verdana, arial, sans-serif; font-size: 16px; fill: rgb(42, 63, 95); fill-opacity: 1; white-space: pre; opacity: 1;" transform="translate(751.03,0)"><tspan class="line" dy="0em" x="0" y="537">Jan 14</tspan><tspan class="line" dy="1.3em" x="0" y="537">2024</tspan></text></g><g class="xtick"><text text-anchor="middle" x="0" y="537" style="font-family: 'Open Sans', verdana, arial, sans-serif; font-size: 16px; fill: rgb(42, 63, 95); fill-opacity: 1; white-space: pre; opacity: 1;" transform="translate(840.25,0)">Jan 28</text></g><g class="xtick"><text text-anchor="middle" x="0" y="537" style="font-family: 'Open Sans', verdana, arial, sans-serif; font-size: 16px; fill: rgb(42, 63, 95); fill-opacity: 1; white-space: pre; opacity: 1;" transform="translate(929.48,0)">Feb 11</text></g></g><g class="yaxislayer-above"><g class="ytick"><text text-anchor="end" x="79" y="5.6" transform="translate(0,464.7)" style="font-family: 'Open Sans', verdana, arial, sans-serif; font-size: 16px; fill: rgb(42, 63, 95); fill-opacity: 1; white-space: pre; opacity: 1;">2900</text></g><g class="ytick"><text text-anchor="end" x="79" y="5.6" style="font-family: 'Open Sans', verdana, arial, sans-serif; font-size: 16px; fill: rgb(42, 63, 95); fill-opacity: 1; white-space: pre; opacity: 1;" transform="translate(0,403.48)">3000</text></g><g class="ytick"><text text-anchor="end" x="79" y="5.6" style="font-family: 'Open Sans', verdana, arial, sans-serif; font-size: 16px; fill: rgb(42, 63, 95); fill-opacity: 1; white-space: pre; opacity: 1;" transform="translate(0,342.25)">3100</text></g><g class="ytick"><text text-anchor="end" x="79" y="5.6" style="font-family: 'Open Sans', verdana, arial, sans-serif; font-size: 16px; fill: rgb(42, 63, 95); fill-opacity: 1; white-space: pre; opacity: 1;" transform="translate(0,281.03)">3200</text></g><g class="ytick"><text text-anchor="end" x="79" y="5.6" style="font-family: 'Open Sans', verdana, arial, sans-serif; font-size: 16px; fill: rgb(42, 63, 95); fill-opacity: 1; white-space: pre; opacity: 1;" transform="translate(0,219.8)">3300</text></g><g class="ytick"><text text-anchor="end" x="79" y="5.6" style="font-family: 'Open Sans', verdana, arial, sans-serif; font-size: 16px; fill: rgb(42, 63, 95); fill-opacity: 1; white-space: pre; opacity: 1;" transform="translate(0,158.57999999999998)">3400</text></g></g><g class="overaxes-above"/></g></g><g class="polarlayer"/><g class="smithlayer"/><g class="ternarylayer"/><g class="geolayer"/><g class="funnelarealayer"/><g class="pielayer"/><g class="iciclelayer"/><g class="treemaplayer"/><g class="sunburstlayer"/><g class="glimages"/><defs id="topdefs-067645"><g class="clips"/><clipPath id="legend067645"><rect width="122" height="124" x="0" y="0"/></clipPath></defs><g class="layer-above"><g class="imagelayer"/><g class="shapelayer"/></g><g class="infolayer"><g class="legend" pointer-events="all" transform="translate(1029.62,100)"><rect class="bg" shape-rendering="crispEdges" width="122" height="124" x="0" y="0" style="stroke: rgb(68, 68, 68); stroke-opacity: 1; fill: rgb(255, 255, 255); fill-opacity: 1; stroke-width: 0px;"/><g class="scrollbox" transform="" clip-path="url(#legend067645)"><g class="groups"><g class="traces" transform="translate(0,14.5)" style="opacity: 1;"><text class="legendtext" text-anchor="start" x="40" y="4.680000000000001" style="font-family: 'Open Sans', verdana, arial, sans-serif; font-size: 12px; fill: rgb(42, 63, 95); fill-opacity: 1; white-space: pre;">B&amp;H</text><g class="layers" style="opacity: 1;"><g class="legendfill"/><g class="legendlines"><path class="js-line" d="M5,0h30" style="fill: none; stroke: rgb(99, 110, 250); stroke-opacity: 1; stroke-width: 2px;"/></g><g class="legendsymbols"><g class="legendpoints"/></g></g><rect class="legendtoggle" x="0" y="-9.5" width="116.46875" height="19" style="fill: rgb(0, 0, 0); fill-opacity: 0;"/></g><g class="traces" transform="translate(0,33.5)" style="opacity: 1;"><text class="legendtext" text-anchor="start" x="40" y="4.680000000000001" style="font-family: 'Open Sans', verdana, arial, sans-serif; font-size: 12px; fill: rgb(42, 63, 95); fill-opacity: 1; white-space: pre;">Classical</text><g class="layers" style="opacity: 1;"><g class="legendfill"/><g class="legendlines"><path class="js-line" d="M5,0h30" style="fill: none; stroke: rgb(239, 85, 59); stroke-opacity: 1; stroke-width: 2px;"/></g><g class="legendsymbols"><g class="legendpoints"/></g></g><rect class="legendtoggle" x="0" y="-9.5" width="116.46875" height="19" style="fill: rgb(0, 0, 0); fill-opacity: 0;"/></g><g class="traces" transform="translate(0,52.5)" style="opacity: 1;"><text class="legendtext" text-anchor="start" x="40" y="4.680000000000001" style="font-family: 'Open Sans', verdana, arial, sans-serif; font-size: 12px; fill: rgb(42, 63, 95); fill-opacity: 1; white-space: pre;">Fuzzy</text><g class="layers" style="opacity: 1;"><g class="legendfill"/><g class="legendlines"><path class="js-line" d="M5,0h30" style="fill: none; stroke: rgb(0, 204, 150); stroke-opacity: 1; stroke-width: 2px;"/></g><g class="legendsymbols"><g class="legendpoints"/></g></g><rect class="legendtoggle" x="0" y="-9.5" width="116.46875" height="19" style="fill: rgb(0, 0, 0); fill-opacity: 0;"/></g><g class="traces" transform="translate(0,71.5)" style="opacity: 1;"><text class="legendtext" text-anchor="start" x="40" y="4.680000000000001" style="font-family: 'Open Sans', verdana, arial, sans-serif; font-size: 12px; fill: rgb(42, 63, 95); fill-opacity: 1; white-space: pre;">Fuzzy C</text><g class="layers" style="opacity: 1;"><g class="legendfill"/><g class="legendlines"><path class="js-line" d="M5,0h30" style="fill: none; stroke: rgb(171, 99, 250); stroke-opacity: 1; stroke-width: 2px;"/></g><g class="legendsymbols"><g class="legendpoints"/></g></g><rect class="legendtoggle" x="0" y="-9.5" width="116.46875" height="19" style="fill: rgb(0, 0, 0); fill-opacity: 0;"/></g><g class="traces" transform="translate(0,90.5)" style="opacity: 1;"><text class="legendtext" text-anchor="start" x="40" y="4.680000000000001" style="font-family: 'Open Sans', verdana, arial, sans-serif; font-size: 12px; fill: rgb(42, 63, 95); fill-opacity: 1; white-space: pre;">Fuzzy PSO</text><g class="layers" style="opacity: 1;"><g class="legendfill"/><g class="legendlines"><path class="js-line" d="M5,0h30" style="fill: none; stroke: rgb(255, 161, 90); stroke-opacity: 1; stroke-width: 2px;"/></g><g class="legendsymbols"><g class="legendpoints"/></g></g><rect class="legendtoggle" x="0" y="-9.5" width="116.46875" height="19" style="fill: rgb(0, 0, 0); fill-opacity: 0;"/></g><g class="traces" transform="translate(0,109.5)" style="opacity: 1;"><text class="legendtext" text-anchor="start" x="40" y="4.680000000000001" style="font-family: 'Open Sans', verdana, arial, sans-serif; font-size: 12px; fill: rgb(42, 63, 95); fill-opacity: 1; white-space: pre;">Fuzzy C PSO</text><g class="layers" style="opacity: 1;"><g class="legendfill"/><g class="legendlines"><path class="js-line" d="M5,0h30" style="fill: none; stroke: rgb(25, 211, 243); stroke-opacity: 1; stroke-width: 2px;"/></g><g class="legendsymbols"><g class="legendpoints"/></g></g><rect class="legendtoggle" x="0" y="-9.5" width="116.46875" height="19" style="fill: rgb(0, 0, 0); fill-opacity: 0;"/></g></g></g><rect class="scrollbar" rx="20" ry="3" width="0" height="0" x="0" y="0" style="fill: rgb(128, 139, 164); fill-opacity: 1;"/></g><g class="g-gtitle"/><g class="g-xtitle"><text class="xtitle" x="545.5" y="585.1125" text-anchor="middle" style="font-family: 'Open Sans', verdana, arial, sans-serif; font-size: 14px; fill: rgb(42, 63, 95); opacity: 1; font-weight: normal; white-space: pre;">Time</text></g><g class="g-ytitle"><text class="ytitle" transform="rotate(-90,14.012500000000003,310)" x="14.012500000000003" y="310" text-anchor="middle" style="font-family: 'Open Sans', verdana, arial, sans-serif; font-size: 14px; fill: rgb(42, 63, 95); opacity: 1; font-weight: normal; white-space: pre;">USD $</text></g></g></svg>